<?xml version="1.0" encoding="utf-8"?>
<!-- Generator: Adobe Illustrator 19.2.1, SVG Export Plug-In . SVG Version: 6.00 Build 0)  -->
<svg version="1.1" id="_x33_0" xmlns="http://www.w3.org/2000/svg" xmlns:xlink="http://www.w3.org/1999/xlink" x="0px" y="0px"
	 viewBox="0 0 496 336" style="enable-background:new 0 0 496 336;" xml:space="preserve">
<style type="text/css">
	.st0{fill:#006838;}
</style>
<g>
	<path class="st0" d="M136,256c-13.2,0-24,10.8-24,24s10.8,24,24,24s24-10.8,24-24S149.2,256,136,256z M136,288c-4.4,0-8-3.6-8-8
		s3.6-8,8-8s8,3.6,8,8S140.4,288,136,288z"/>
	<path class="st0" d="M360,256c-13.2,0-24,10.8-24,24s10.8,24,24,24s24-10.8,24-24S373.2,256,360,256z M360,288c-4.4,0-8-3.6-8-8
		s3.6-8,8-8s8,3.6,8,8S364.4,288,360,288z"/>
	<path class="st0" d="M465.8,166.5L416,146.6V144c0-6.8-4.2-12.5-10.2-14.9l-32.3-77.4c-4.3-10.3-13.6-17.5-24.4-19.2l-9.6-19.2
		C335.5,5.1,327.3,0,318.1,0H89.9c-9.1,0-17.4,5.1-21.5,13.3l-10,20.1C25.2,39.7,0,69,0,104v176c0,13.2,10.8,24,24,24h61.5
		c9,18.9,28.2,32,50.5,32s41.5-13.1,50.5-32h123c9,18.9,28.2,32,50.5,32s41.5-13.1,50.5-32H472c13.2,0,24-10.8,24-24v-68.9
		C496,191.3,484.2,173.8,465.8,166.5L465.8,166.5z M400,160h-32v-16h32L400,160z M368,80l20,48h-20c-8.8,0-16,7.2-16,16h-80V80H368z
		 M82.7,20.4c1.4-2.7,4.1-4.4,7.2-4.4h228.2c3,0,5.8,1.7,7.2,4.4l5.8,11.6H76.9L82.7,20.4z M16,104c0-30.9,25.1-56,56-56h272
		c6.5,0,12.3,3.9,14.8,9.8l2.6,6.2H72c-22.1,0-40,17.9-40,40v40H16L16,104z M256,80v64h-96v-40c0-13.2,10.8-24,24-24H256z M152.2,80
		c-5.1,6.7-8.2,15-8.2,24v40H48v-40c0-13.2,10.8-24,24-24H152.2z M16,224h16v32H16V224z M80.6,288H24c-4.4,0-8-3.6-8-8v-8h64.6
		c-0.4,2.6-0.6,5.3-0.6,8S80.3,285.4,80.6,288z M85.5,256H48v-32c0-8.8-7.2-16-16-16H16v-48h128v64.6c-2.6-0.4-5.3-0.6-8-0.6
		C113.7,224,94.5,237.1,85.5,256z M136,320c-22.1,0-40-17.9-40-40s17.9-40,40-40s40,17.9,40,40S158.1,320,136,320z M160,229.5V160
		h96v96h-69.5C181,244.4,171.6,235,160,229.5L160,229.5z M304.6,288H191.4c0.4-2.6,0.6-5.3,0.6-8s-0.3-5.4-0.6-8h113.3
		c-0.4,2.6-0.6,5.3-0.6,8S304.3,285.4,304.6,288z M309.5,256H272v-96h80c0,8.8,7.2,16,16,16v48.6c-2.6-0.4-5.3-0.6-8-0.6
		C337.7,224,318.5,237.1,309.5,256z M360,320c-22.1,0-40-17.9-40-40s17.9-40,40-40s40,17.9,40,40S382.1,320,360,320z M384,229.5V176
		h16c7.6,0,13.9-5.3,15.5-12.4l44.3,17.7c11.3,4.5,18.8,14.8,19.9,26.6H464c-8.8,0-16,7.2-16,16v32h-37.5
		C405,244.4,395.6,235,384,229.5L384,229.5z M480,280c0,4.4-3.6,8-8,8h-56.6c0.4-2.6,0.6-5.3,0.6-8s-0.3-5.4-0.6-8H480V280z
		 M480,256h-16v-32h16V256z"/>
	<path class="st0" d="M176,176h16v16h-16V176z"/>
	<path class="st0" d="M288,176h16v16h-16V176z"/>
</g>
</svg>
