<?xml version="1.0" encoding="utf-8"?>
<!-- Generator: Adobe Illustrator 19.2.1, SVG Export Plug-In . SVG Version: 6.00 Build 0)  -->
<svg version="1.1" id="Layer_1" xmlns="http://www.w3.org/2000/svg" xmlns:xlink="http://www.w3.org/1999/xlink" x="0px" y="0px"
	 viewBox="0 0 512 460" style="enable-background:new 0 0 512 460;" xml:space="preserve">
<style type="text/css">
	.st0{fill:#006838;}
</style>
<path d="M256,300c-5.5,0-10,4.5-10,10s4.5,10,10,10s10-4.5,10-10S261.5,300,256,300z"/>
<path class="st0" d="M493.8,113.7c-0.1,0-129.8-51.3-129.8-51.3S345.5,7,345.5,7c-0.1-0.1-2.1-7-9.5-7H176c-5.5,0-7.6,3.2-9.5,7
	c0,0,0,0,0,0L148,62.4c0,0-129.7,51.2-129.8,51.3C4,119.8-3.2,135.5,1.4,150.2l90.2,288.7c3.9,12.6,15.4,21,28.6,21h271.5
	c13.2,0,24.7-8.5,28.6-21l90.2-288.7C515.2,135.5,508,119.8,493.8,113.7z M362.7,93.7l60.7,73.2l-43.6,22.7
	c-2.6,1.4-4.5,3.8-5.1,6.7s0,5.9,1.8,8.2l19.4,25.8L290.5,382.5c17.5-49.8,32.7-100.9,45.1-152.1
	C346.6,185.5,355.6,139.6,362.7,93.7z M344.9,68.2l-48.4,64.5l-27.6-41.4l62.8-62.8L344.9,68.2z M311.9,20L256,75.9L200.1,20H311.9z
	 M180.4,28.5l62.8,62.8l-27.6,41.4l-48.4-64.5L180.4,28.5z M149.3,93.7c15,98.1,39.2,195.2,72.2,288.8L116.2,230.2l19.4-25.8
	c1.8-2.3,2.4-5.4,1.8-8.2c-0.6-2.9-2.5-5.3-5.1-6.7l-43.6-22.7L149.3,93.7z M120.2,440c-4.4,0-8.2-2.8-9.5-7L20.5,144.2
	c-1.5-4.9,0.8-10.1,5.5-12.1l97.4-38.5l-58.1,70c-1.9,2.3-2.7,5.4-2.1,8.4c0.6,3,2.5,5.5,5.2,6.9l44.2,23L95.9,224
	c-2.6,3.4-2.7,8.2-0.2,11.7L236.9,440H120.2z M256,420l-14.6-41.1c-31.1-88-54.5-179-69.6-271.1L208,156c1.9,2.6,5,4.1,8.3,4
	c3.2-0.1,6.2-1.7,8-4.4L246,123v147c0,5.5,4.5,10,10,10c5.5,0,10-4.5,10-10V123l21.7,32.5c1.8,2.7,4.8,4.4,8,4.4
	c3.2,0.1,6.3-1.4,8.3-4l36.2-48.2c-6.5,39.6-14.5,79.1-24,117.9c-12.5,51.6-27.9,103.1-45.6,153.2L256,420z M491.5,144.3L401.3,433
	c-1.3,4.2-5.1,7-9.5,7H275.1l141.3-204.3c2.5-3.5,2.4-8.3-0.2-11.7l-16.7-22.1l44.2-23c2.7-1.4,4.6-3.9,5.2-6.9s-0.2-6-2.1-8.4
	l-58.1-70l97.4,38.5C490.7,134.2,493.1,139.4,491.5,144.3z"/>
</svg>
