<?xml version="1.0" encoding="utf-8"?>
<!-- Generator: Adobe Illustrator 19.2.1, SVG Export Plug-In . SVG Version: 6.00 Build 0)  -->
<svg version="1.1" id="Layer_1" xmlns="http://www.w3.org/2000/svg" x="0px" y="0px"
     viewBox="0 0 196.2 32.4" style="enable-background:new 0 0 196.2 32.4;" xml:space="preserve">
<style type="text/css">
	.st0{fill:#FCB64E;}
	.st1{fill:#4D4D4E;}
</style>
<g>
	<path class="st0" d="M21.6,10.7c-1.3-1.3-3.2-2.1-5.4-2.1c-4.4,0-7.6,3.2-7.6,7.6c0,4.4,3.2,7.6,7.6,7.6c2.2,0,4.1-0.8,5.4-2.2l6,6
		c-2.9,2.9-7,4.8-11.5,4.8C7.3,32.4,0,25.1,0,16.2S7.3,0,16.2,0c4.4,0,8.5,1.8,11.4,4.7L21.6,10.7z"/>
	<path class="st1" d="M65.4,15v1.2c0,8.9-7.3,16.2-16.2,16.2S33,25.1,33,16.2S40.2,0,49.2,0c4.4,0,8.5,1.8,11.4,4.7l-6,6
		c-1.4-1.3-3.2-2.2-5.4-2.2c-4.1,0-7.6,3.2-7.6,7.7s3.7,7.7,7.6,7.7c2.5,0,4.9-1.3,6.3-3.2h-6.3V15H65.4z"/>
	<path class="st1" d="M88.8,32.4l-5-8.6h-5.3v8.6H70V0h13.6c6.6,0,11.9,5.4,11.9,11.9c0,3.5-1.5,6.6-3.8,8.7l6.9,11.7H88.8z
		 M78.5,16.4h5.3c2.6,0,4.7-2,4.7-4.6c0-2.6-2.1-4.7-4.7-4.7h-5.3V16.4z"/>
	<path class="st1" d="M117.4,0c8.9,0,16.2,7.3,16.2,16.2s-7.3,16.1-16.2,16.1c-8.9,0-16.1-7.2-16.1-16.1S108.5,0,117.4,0z
		 M117.4,8.5c-4.2,0-7.7,3.5-7.7,7.7c0,4.2,3.5,7.7,7.7,7.7c4.3,0,7.7-3.5,7.7-7.7C125.1,11.9,121.7,8.5,117.4,8.5z"/>
	<path class="st1" d="M147.2,19.5c0,2.3,1.9,4.2,4.2,4.2s4.2-1.9,4.2-4.2V0h8.5v19.6c0,7.1-5.7,12.8-12.8,12.8
		c-7.1,0-12.8-5.7-12.8-12.8V0h8.5V19.5z"/>
	<path class="st1" d="M170.6,0h13.6c6.6,0,11.9,5.4,11.9,11.9c0,6.5-5.3,11.9-11.7,11.9h-5.3v8.6h-8.5V0z M179.1,16.4h5.3
		c2.6,0,4.7-2,4.7-4.6c0-2.6-2.1-4.7-4.7-4.7h-5.3V16.4z"/>
</g>
</svg>
