<?xml version="1.0" encoding="utf-8"?>
<!-- Generator: Adobe Illustrator 19.2.1, SVG Export Plug-In . SVG Version: 6.00 Build 0)  -->
<svg version="1.1" id="Capa_1" xmlns="http://www.w3.org/2000/svg" x="0px" y="0px"
     viewBox="0 0 452 384.1" style="enable-background:new 0 0 452 384.1;" xml:space="preserve">
<style type="text/css">
	.st0{fill:#006838;}
</style>
<g>
	<g>
		<path class="st0" d="M359,231.1h-54c-5.5,0-10,4.5-10,10v37c0,5.5,4.5,10,10,10h54c5.5,0,10-4.5,10-10v-37
			C369,235.6,364.5,231.1,359,231.1z M349,268.1h-34v-17h34V268.1z"/>
	</g>
</g>
<g>
	<g>
		<path class="st0" d="M147,231.1H93c-5.5,0-10,4.5-10,10v37c0,5.5,4.5,10,10,10h54c5.5,0,10-4.5,10-10v-37
			C157,235.6,152.5,231.1,147,231.1z M137,268.1h-34v-17h34V268.1z"/>
	</g>
</g>
<g>
	<g>
		<path class="st0" d="M266,266.1h-80c-5.5,0-10,4.5-10,10s4.5,10,10,10h80c5.5,0,10-4.5,10-10S271.5,266.1,266,266.1z"/>
	</g>
</g>
<g>
	<g>
		<path class="st0" d="M266,238.1h-80c-5.5,0-10,4.5-10,10s4.5,10,10,10h80c5.5,0,10-4.5,10-10S271.5,238.1,266,238.1z"/>
	</g>
</g>
<g>
	<g>
		<path class="st0" d="M426.1,151.1H402V42.3c0-22.6-18.2-41-40.8-41.1L90.8,0C68.3-0.1,50,18.1,49.9,40.6c0,0.2,0,0.3,0,0.5v110
			H25.8c-14,0-25.8,11.3-25.8,25.4v31.1C0,221.7,11.8,233,25.9,233H50v65.6c-0.1,14.6,7.5,28.2,20,35.7v24.3
			c0,14.1,11.9,25.4,26,25.4h33.5c14.1,0.1,25.5-11.3,25.5-25.3c0,0,0,0,0-0.1v-18.5h142v18.6c0,14.1,11.4,25.4,25.5,25.4
			c0,0,0,0,0.1,0H356c14.1,0,26-11.3,26-25.4v-24.3c12.5-7.5,20.1-21.1,20-35.7v-65.6h24.1c14.1,0,25.9-11.3,25.9-25.4v-31.2
			C452,162.4,440.2,151.1,426.1,151.1z M50,213.1H25.9c-3.1,0.1-5.7-2.3-5.9-5.4v-31.2c0.2-3.1,2.8-5.5,5.9-5.4H50V213.1z
			 M69.9,51.7V41.1c0-5.6,2.2-11,6.1-14.9s9.2-6.1,14.7-6.1h0.1l270.3,1.2c11.6,0.1,20.9,9.5,20.8,21v10.8L69.9,51.7z M135,358.7
			c0,3-2.4,5.4-5.4,5.4h-0.1H96c-3.1,0-6-2.3-6-5.4v-18.9c1,0,0.6,0.3,0.8,0.3H135V358.7z M362,358.7c0,3.1-2.9,5.4-6,5.4h-33.5
			c-3,0.1-5.5-2.3-5.5-5.3v-0.1v-18.6h44.2c0.1,0-0.2-0.3,0.8-0.3V358.7z M382,298.6c0,11.7-9.1,21.5-20.8,21.5H90.8
			c-11.6,0-20.8-9.8-20.8-21.4V191l312,1.4V298.6z M114.3,171.2c5.9-16.8,24.3-25.5,41.1-19.6c9.3,3.3,16.5,10.6,19.7,19.9
			L114.3,171.2z M382,172.4l-186.3-0.8c-5.6-28.2-33-46.4-61.2-40.8c-20.4,4-36.5,19.9-40.7,40.3L70,171V71.7l312,1.4V172.4z
			 M432,207.7c-0.2,3.1-2.8,5.5-5.9,5.4H402v-42h24.1c3.1-0.1,5.7,2.3,5.9,5.4V207.7z"/>
	</g>
</g>
</svg>
