<?xml version="1.0" encoding="utf-8"?>
<!-- Generator: Adobe Illustrator 19.2.1, SVG Export Plug-In . SVG Version: 6.00 Build 0)  -->
<svg version="1.1" id="Layer_1" xmlns="http://www.w3.org/2000/svg" x="0px" y="0px"
     viewBox="0 0 575 306.7" style="enable-background:new 0 0 575 306.7;" xml:space="preserve">
<style type="text/css">
	.st0{fill:#006838;}
</style>
<g id="surface1">
	<path class="st0" d="M9.6,268.4h48.9c5.2,25.9,30.4,42.6,56.2,37.4c11.7-2.3,22-8.9,29.1-18.5c15.6,21.2,45.5,25.8,66.8,10.2
		c9.6-7,16.2-17.4,18.5-29.1h193.6c5.3,25.9,30.6,42.7,56.5,37.4c18.9-3.8,33.6-18.6,37.4-37.4h48.9c5.3,0,9.6-4.3,9.6-9.6V186
		c0-9.7-1.1-19.4-3.4-28.8l-20.9-88c-3.6-17.9-19.3-30.8-37.6-30.8H226.4l-16.5-33c-1.6-3.3-5-5.3-8.6-5.3H67.1
		c-3.6,0-7,2.1-8.6,5.3L42,38.3H9.6c-5.3,0-9.6,4.3-9.6,9.6v210.8C0,264.1,4.3,268.4,9.6,268.4z M105.4,287.5
		c-15.9,0-28.8-12.9-28.8-28.8S89.5,230,105.4,230s28.7,12.9,28.7,28.7S121.3,287.5,105.4,287.5z M182.1,287.5
		c-15.9,0-28.7-12.9-28.7-28.8s12.9-28.7,28.7-28.7s28.8,12.9,28.8,28.7S198,287.5,182.1,287.5z M469.6,287.5
		c-15.9,0-28.8-12.9-28.8-28.8s12.9-28.7,28.8-28.7c15.9,0,28.7,12.9,28.7,28.7S485.5,287.5,469.6,287.5z M553,161.6
		c0.1,0.4,0.1,0.9,0.2,1.3h-74V95.8h58.2L553,161.6z M73,19.2h122.3l9.6,19.2H63.4L73,19.2z M19.2,57.5h494
		c9.2,0.1,17.2,6.7,18.9,15.7l0.9,3.4H19.2V57.5z M460,95.8v67.1h-57.5V95.8H460z M383.4,95.8v67.1h-57.5V95.8H383.4z M306.7,95.8
		v67.1h-57.5V95.8H306.7z M230,95.8v67.1h-57.5V95.8H230z M153.3,95.8v67.1H95.8V95.8H153.3z M19.2,95.8h57.5v67.1H19.2V95.8z
		 M19.2,220.4h19.2v-19.2H19.2v-19.2h536.5c0,1.3,0.2,2.6,0.2,3.9v15.3h-19.2v19.2h19.2v28.8h-39.3c0-0.2-0.1-0.3-0.2-0.5
		c-0.6-2.7-1.4-5.4-2.5-8c-0.4-1-0.9-1.8-1.3-2.7c-0.8-1.7-1.7-3.4-2.8-5.1c-0.6-1-1.3-1.8-2-2.7c-1.1-1.4-2.2-2.8-3.4-4.1
		c-0.8-0.9-1.6-1.6-2.5-2.4c-1.3-1.2-2.6-2.3-4-3.3c-1-0.7-1.9-1.4-2.9-2c-1.6-0.9-3.2-1.8-4.8-2.6c-1-0.5-2-1-3.1-1.4
		c-1.9-0.7-3.8-1.3-5.8-1.8c-1-0.2-1.9-0.6-2.8-0.8c-6-1.2-12.2-1.2-18.2,0c-1,0.2-1.9,0.5-2.8,0.8c-2,0.5-3.9,1.1-5.8,1.8
		c-1.1,0.4-2,1-3.1,1.4c-1.6,0.8-3.2,1.6-4.8,2.6c-1,0.6-1.9,1.3-2.9,2c-1.4,1-2.8,2.1-4,3.3c-0.9,0.8-1.7,1.6-2.5,2.4
		c-1.2,1.3-2.3,2.7-3.4,4.1c-0.7,0.9-1.4,1.8-2,2.7c-1,1.6-1.9,3.3-2.8,5.1c-0.4,0.9-1,1.7-1.3,2.7c-1.1,2.6-1.9,5.3-2.5,8
		c0,0.2-0.1,0.3-0.2,0.5H229.1c0-0.2-0.1-0.3-0.2-0.5c-0.6-2.7-1.4-5.4-2.5-8c-0.4-1-0.9-1.8-1.3-2.7c-0.8-1.7-1.7-3.4-2.8-5.1
		c-0.6-1-1.3-1.8-2-2.7c-1.1-1.4-2.2-2.8-3.4-4.1c-0.8-0.9-1.6-1.6-2.5-2.4c-1.3-1.2-2.6-2.3-4-3.3c-1-0.7-1.9-1.4-2.9-2
		c-1.5-0.9-3.1-1.8-4.8-2.6c-1-0.5-2-1-3.1-1.4c-1.9-0.7-3.8-1.3-5.7-1.8c-1-0.2-1.9-0.6-2.9-0.8c-5.9-1.2-12-1.2-17.8,0
		c-0.5,0.1-1,0.2-1.5,0.3c-2.7,0.6-5.3,1.4-7.8,2.4l-1.4,0.6c-2.5,1.1-4.9,2.4-7.2,3.9l-0.4,0.3c-2.2,1.5-4.3,3.2-6.2,5.1
		c-0.3,0.3-0.6,0.6-1,0.9c-1.5,1.5-2.8,3-4.1,4.7c-1.3-1.7-2.7-3.3-4.2-4.8c-0.3-0.3-0.6-0.6-1-0.9c-1.9-1.9-4-3.6-6.2-5.1l-0.4-0.3
		c-2.3-1.5-4.7-2.8-7.2-3.9l-1.4-0.6c-2.5-1-5.1-1.8-7.8-2.4c-0.5-0.1-1-0.2-1.5-0.3c-5.9-1.2-11.9-1.2-17.8,0
		c-1,0.2-1.9,0.5-2.8,0.8c-2,0.5-3.9,1.1-5.8,1.8c-1.1,0.4-2,1-3.1,1.4c-1.6,0.8-3.2,1.6-4.7,2.6c-1,0.6-1.9,1.3-2.9,2
		c-1.4,1-2.8,2.1-4,3.3c-0.9,0.8-1.7,1.6-2.5,2.4c-1.2,1.3-2.3,2.7-3.4,4.1c-0.7,0.9-1.4,1.8-2,2.7c-1,1.6-1.9,3.3-2.8,5.1
		c-0.4,0.9-1,1.7-1.3,2.7c-1.1,2.6-1.9,5.3-2.5,8c0,0.2-0.1,0.3-0.2,0.5H19.2V220.4z"/>
	<path class="st0" d="M230,201.3h191.7v19.2H230V201.3z"/>
</g>
</svg>
