<?xml version="1.0" encoding="utf-8"?>
<!-- Generator: Adobe Illustrator 19.2.1, SVG Export Plug-In . SVG Version: 6.00 Build 0)  -->
<svg version="1.1" id="Layer_1" xmlns="http://www.w3.org/2000/svg" x="0px" y="0px"
     viewBox="0 0 109.1 18.2" style="enable-background:new 0 0 109.1 18.2;" xml:space="preserve">
<style type="text/css">
	.st0{fill:#262626;}
	.st1{fill:#FFFFFF;}
</style>
<g>
	<path class="st0" d="M27.4,11.5h3.5c-0.7,1.1-2.1,1.8-3.5,1.8c-2.2,0-4.2-1.8-4.2-4.3s2-4.3,4.2-4.3c1.2,0,2.2,0.5,3,1.2l3.3-3.3
		C32.1,1,29.8,0,27.4,0c-5,0-9,4-9,9s4,9,9,9s9-4,9-9V8.3h-9V11.5z"/>
	<path class="st0" d="M53.2,6.7c0-3.6-3-6.6-6.6-6.6H39v18h4.7v-4.8h2.9l2.8,4.8h5.4L51,11.6C52.3,10.3,53.2,8.6,53.2,6.7z
		 M46.6,9.2h-2.9V4h2.9c1.5,0,2.6,1.2,2.6,2.6C49.2,8.1,48.1,9.2,46.6,9.2z"/>
	<path class="st0" d="M65.3,0c-0.9,0-1.7,0.1-2.5,0.4c-3.7,1.1-6.5,4.6-6.5,8.7c0,5,4,9,9,9c4.1,0,7.6-2.7,8.6-6.5
		c0.2-0.8,0.4-1.6,0.4-2.5C74.3,4.1,70.3,0,65.3,0z M65.3,13.3c-2.4,0-4.3-1.9-4.3-4.3s1.9-4.3,4.3-4.3c2.4,0,4.3,1.9,4.3,4.3
		S67.7,13.3,65.3,13.3z"/>
	<path class="st0" d="M86.6,10.9c0,1.3-1.1,2.4-2.4,2.4s-2.4-1.1-2.4-2.4V0H77v10.9c0,4,3.1,7.1,7.1,7.1c3.9,0,7.1-3.1,7.1-7.1V0
		h-4.8v10.9H86.6z"/>
	<path class="st0" d="M102.5,0h-7.6v18h4.7v-4.8h3c3.6,0,6.5-3,6.5-6.6S106.1,0,102.5,0z M102.6,9.2h-2.9V4h2.9
		c1.4,0,2.6,1.2,2.6,2.6C105.2,8.1,104,9.2,102.6,9.2z"/>
	<path class="st1" d="M9,13.3c-2.4,0-4.2-1.8-4.2-4.2S6.6,4.9,9,4.9c1.2,0,2.3,0.4,3,1.2l3.3-3.3C13.7,1.2,11.4,0.2,9,0.2
		c-5,0-9,4-9,9s4,9,9,9c2.5,0,4.8-1,6.4-2.7L12,12.2C11.3,12.8,10.3,13.3,9,13.3z"/>
</g>
</svg>
