<?xml version="1.0" encoding="utf-8"?>
<!-- Generator: Adobe Illustrator 19.2.1, SVG Export Plug-In . SVG Version: 6.00 Build 0)  -->
<svg version="1.1" id="Layer_1" xmlns="http://www.w3.org/2000/svg" x="0px" y="0px"
     viewBox="0 0 329 329" style="enable-background:new 0 0 329 329;" xml:space="preserve">
<path d="M194.6,164.8L322.7,36.7c8.3-8.3,8.3-21.8,0-30.1c-8.3-8.3-21.8-8.3-30.1,0L164.5,134.6L36.4,6.5c-8.3-8.3-21.8-8.3-30.1,0
	c-8.3,8.3-8.3,21.8,0,30.1l128.1,128.1L6.3,292.9c-8.3,8.3-8.3,21.8,0,30.1c4.2,4.2,9.6,6.2,15.1,6.2s10.9-2.1,15.1-6.2l128.1-128.1
	L292.6,323c4.2,4.2,9.6,6.2,15.1,6.2c5.5,0,10.9-2.1,15.1-6.2c8.3-8.3,8.3-21.8,0-30.1L194.6,164.8z"/>
</svg>
