<?xml version="1.0" encoding="utf-8"?>
<!-- Generator: Adobe Illustrator 19.2.1, SVG Export Plug-In . SVG Version: 6.00 Build 0)  -->
<svg version="1.1" id="Layer_1" xmlns="http://www.w3.org/2000/svg" x="0px" y="0px"
     viewBox="0 0 512 421.6" style="enable-background:new 0 0 512 421.6;" xml:space="preserve">
<style type="text/css">
	.st0{fill:#006838;}
</style>
<path class="st0" d="M407,0H105C47.1,0,0,47.1,0,105v162.2c0,46.2,30.3,86.4,74.3,99.3l50.7,50.7c2.8,2.8,6.6,4.4,10.6,4.4
	c4,0,7.8-1.6,10.6-4.4l46.5-46.5H407c57.9,0,105-47.1,105-105V105C512,47.1,464.9,0,407,0z M482,265.7c0,41.4-33.6,75-75,75H186.5
	c-4,0-7.8,1.6-10.6,4.4l-40.3,40.3l-42.9-42.9c-1.9-1.9-4.3-3.3-7-3.9C52.9,330.3,30,301,30,267.2V105c0-41.4,33.6-75,75-75h302
	c41.4,0,75,33.6,75,75V265.7z"/>
<path class="st0" d="M351.2,143.8H160.8c-8.3,0-15,6.7-15,15c0,8.3,6.7,15,15,15h190.5c8.3,0,15-6.7,15-15
	C366.2,150.5,359.5,143.8,351.2,143.8z"/>
<path class="st0" d="M351.2,196.9H160.8c-8.3,0-15,6.7-15,15s6.7,15,15,15h190.5c8.3,0,15-6.7,15-15S359.5,196.9,351.2,196.9z"/>
</svg>
