<?xml version="1.0" encoding="utf-8"?>
<!-- Generator: Adobe Illustrator 19.2.1, SVG Export Plug-In . SVG Version: 6.00 Build 0)  -->
<svg version="1.1" id="Layer_1" xmlns="http://www.w3.org/2000/svg" x="0px" y="0px"
     viewBox="0 0 512 478" style="enable-background:new 0 0 512 478;" xml:space="preserve">
<style type="text/css">
	.st0{fill:#181818;}
</style>
<g>
	<g>
		<path class="st0" d="M401,384c-20.7,0-38.3,13.4-44.5,32H79c-27,0-49-22-49-49s22-49,49-49h96c43.6,0,79-35.4,79-79
			s-35.4-79-79-79H91.5c-4.7-13.9-15.7-24.8-29.5-29.5V94h81c8.3,0,15-6.7,15-15V15c0-8.3-6.7-15-15-15H47c-8.3,0-15,6.7-15,15v64
			v51.5C13.4,136.7,0,154.3,0,175c0,25.9,21.1,47,47,47c20.7,0,38.3-13.4,44.5-32H175c27,0,49,22,49,49s-22,49-49,49H79
			c-43.6,0-79,35.4-79,79s35.4,79,79,79h277.5c6.3,18.6,23.9,32,44.5,32c25.9,0,47-21.1,47-47S426.9,384,401,384z M62,30h66v34H62
			V30z M47,192c-9.4,0-17-7.6-17-17s7.6-17,17-17s17,7.6,17,17S56.4,192,47,192z M401,448c-9.4,0-17-7.6-17-17s7.6-17,17-17
			s17,7.6,17,17S410.4,448,401,448z"/>
	</g>
</g>
<g>
	<g>
		<path class="st0" d="M401,96c-25.9,0-47,21.1-47,47s21.1,47,47,47s47-21.1,47-47S426.9,96,401,96z M401,160c-9.4,0-17-7.6-17-17
			s7.6-17,17-17s17,7.6,17,17S410.4,160,401,160z"/>
	</g>
</g>
<g>
	<g>
		<path class="st0" d="M401,32c-61.2,0-111,49.8-111,111c0,33.1,14.4,63.8,39.6,85l58,113.8c2.6,5,7.7,8.2,13.4,8.2
			s10.8-3.2,13.4-8.2l58-113.8c25.2-21.2,39.6-52,39.6-85C512,81.8,462.2,32,401,32z M451.1,206.6c-1.7,1.3-3.1,3-4.1,5L401,302
			l-46.1-90.4c-1-1.9-2.4-3.6-4.1-5C331.2,191.1,320,167.9,320,143c0-44.7,36.3-81,81-81s81,36.3,81,81
			C482,167.9,470.8,191.1,451.1,206.6z"/>
	</g>
</g>
</svg>
