<?xml version="1.0" encoding="utf-8"?>
<!-- Generator: Adobe Illustrator 19.2.1, SVG Export Plug-In . SVG Version: 6.00 Build 0)  -->
<svg version="1.1" id="_x31_px" xmlns="http://www.w3.org/2000/svg" x="0px" y="0px"
     viewBox="0 0 512 512" style="enable-background:new 0 0 512 512;" xml:space="preserve">
<style type="text/css">
	.st0{fill:#181818;}
</style>
<path class="st0" d="M256,384c-70.6,0-128-57.4-128-128s57.4-128,128-128s128,57.4,128,128S326.6,384,256,384z M256,149.3
	c-58.8,0-106.7,47.9-106.7,106.7S197.2,362.7,256,362.7S362.7,314.8,362.7,256S314.8,149.3,256,149.3z"/>
<path class="st0" d="M298.7,309.3c-2.2,0-4.5-0.7-6.4-2.1l-42.7-32c-2.7-2-4.3-5.2-4.3-8.5v-64c0-5.9,4.8-10.7,10.7-10.7
	s10.7,4.8,10.7,10.7v58.7l38.4,28.8c4.7,3.5,5.7,10.2,2.2,14.9C305.1,307.9,301.9,309.3,298.7,309.3z"/>
<path class="st0" d="M16.4,320c-4.9,0-9.3-3.4-10.4-8.3c-4-17.7-6-36.5-6-55.7C0,114.8,114.8,0,256,0c80.1,0,154,36.5,202.8,100.2
	c3.6,4.7,2.7,11.4-2,15c-4.6,3.6-11.4,2.7-14.9-2C397.1,54.8,329.4,21.3,256,21.3C126.6,21.3,21.3,126.6,21.3,256
	c0,17.6,1.9,34.8,5.5,51c1.3,5.7-2.3,11.5-8.1,12.7C18,319.9,17.2,320,16.4,320L16.4,320z"/>
<path class="st0" d="M256,512c-80.1,0-154-36.5-202.8-100.2c-3.6-4.7-2.7-11.4,2-15c4.6-3.6,11.4-2.7,14.9,2
	c44.8,58.3,112.5,91.8,185.9,91.8c129.4,0,234.7-105.3,234.7-234.7c0-17.9-1.9-35-5.7-50.9c-1.4-5.7,2.2-11.5,7.9-12.8
	c5.8-1.4,11.5,2.2,12.9,7.9c4.2,17.5,6.3,36.2,6.3,55.8C512,397.2,397.2,512,256,512L256,512z"/>
<path class="st0" d="M54.4,512c-5.8,0-10.6-4.7-10.7-10.6l-1.1-106.7c0-2.8,1.1-5.6,3.1-7.6c2-2,4.7-3.2,7.6-3.2H160
	c5.9,0,10.7,4.8,10.7,10.7c0,5.9-4.8,10.7-10.7,10.7H64.1l1,95.9c0.1,5.9-4.7,10.7-10.6,10.8C54.5,512,54.4,512,54.4,512L54.4,512z"
	/>
<path class="st0" d="M458.7,128H352c-5.9,0-10.7-4.8-10.7-10.7s4.8-10.7,10.7-10.7h96v-96C448,4.8,452.8,0,458.7,0
	c5.9,0,10.7,4.8,10.7,10.7v106.7C469.3,123.2,464.6,128,458.7,128z"/>
</svg>
