<?xml version="1.0" encoding="utf-8"?>
<!-- Generator: Adobe Illustrator 19.2.1, SVG Export Plug-In . SVG Version: 6.00 Build 0)  -->
<svg version="1.1" id="Capa_1" xmlns="http://www.w3.org/2000/svg" x="0px" y="0px"
     viewBox="0 0 512 384" style="enable-background:new 0 0 512 384;" xml:space="preserve">
<style type="text/css">
	.st0{fill:#006838;}
</style>
<path class="st0" d="M464,0H48C21.5,0,0,21.5,0,48v288c0,26.5,21.5,48,48,48h416c26.5,0,48-21.5,48-48V48C512,21.5,490.5,0,464,0z
	 M464,32c2.2,0,4.2,0.5,6.1,1.2L256,218.8L41.9,33.2c1.9-0.8,4-1.2,6.1-1.2L464,32z M464,352H48c-8.8,0-16-7.2-16-16V67l213.5,185
	c3,2.6,6.8,3.9,10.5,3.9c3.7,0,7.5-1.3,10.5-3.9L480,67v269C480,344.8,472.8,352,464,352z"/>
</svg>
