<?xml version="1.0" encoding="utf-8"?>
<!-- Generator: Adobe Illustrator 19.2.1, SVG Export Plug-In . SVG Version: 6.00 Build 0)  -->
<svg version="1.1" id="Layer_1" xmlns="http://www.w3.org/2000/svg" x="0px" y="0px"
     viewBox="0 0 575 230" style="enable-background:new 0 0 575 230;" xml:space="preserve">
<style type="text/css">
	.st0{fill:#006838;}
</style>
<g id="surface1">
	<path class="st0" d="M239.6,86.3h38.3v19.2h-38.3V86.3z"/>
	<path class="st0" d="M566.8,57.6l-65.1-9.3c-11.9-7.3-24.2-13.8-36.9-19.5C422.9,9.8,377.4-0.1,331.3,0H320
		c-54.3,0-107.8,13.7-155.6,39.7l-32.9,17.9C93.1,58,55.4,68.3,22,87.3C8.4,95.1,0,109.5,0,125.2v56.9c0,5.3,4.3,9.6,9.6,9.6h32.2
		c10.5,29.9,43.2,45.6,73,35.1c16.4-5.8,29.4-18.7,35.1-35.1H406c10.5,29.9,43.2,45.6,73,35.1c16.4-5.8,29.4-18.7,35.1-35.1h3.4
		c1.2,0,2.4-0.2,3.6-0.7l31-12.5c13.9-5.5,22.9-18.9,22.9-33.8V67.1C575,62.3,571.5,58.3,566.8,57.6z M133.4,180.2
		c-4.2,20.7-24.5,34.1-45.2,29.9c-20.7-4.2-34.1-24.5-29.9-45.2c4.2-20.7,24.5-34.1,45.2-29.9c17.8,3.6,30.7,19.4,30.7,37.6
		C134.2,175.1,133.9,177.7,133.4,180.2z M306.7,172.5H153.3c0-31.8-25.7-57.5-57.5-57.5s-57.5,25.7-57.5,57.5H19.2v-47.3
		c0-8.8,4.7-16.9,12.3-21.2c31.3-17.9,66.7-27.3,102.7-27.3h172.5V172.5z M306.7,57.5H171.8l1.8-1c41-22.3,86.5-34.9,133.1-36.9
		V57.5z M325.9,19.2h5.4c38.6,0,76.9,7.3,112.8,21.6l-16.7,16.7H325.9V19.2z M497.6,180.2c-4.2,20.7-24.5,34.1-45.2,29.9
		c-20.7-4.2-34.1-24.5-29.9-45.2c4.2-20.7,24.5-34.1,45.2-29.9c17.8,3.6,30.7,19.4,30.7,37.6C498.4,175.1,498.1,177.7,497.6,180.2z
		 M555.9,86.3h-28.8v19.2h28.8v39.3c0,7.1-4.3,13.4-10.8,16l-27.5,11c0-0.9-0.1-1.8-0.2-2.6c-0.1-0.9-0.1-1.9-0.2-2.9
		c-0.1-1-0.3-1.9-0.4-2.9c-0.2-1-0.3-1.9-0.5-2.8c-0.2-0.9-0.5-1.8-0.7-2.8c-0.2-0.9-0.4-1.8-0.7-2.7c-0.3-0.9-0.6-1.7-1-2.6
		c-0.3-0.9-0.6-1.8-1-2.6c-0.3-0.9-0.8-1.6-1.2-2.5s-0.8-1.7-1.2-2.5c-0.5-0.8-1-1.5-1.4-2.3c-0.4-0.8-1-1.6-1.5-2.4
		c-0.5-0.8-1.1-1.4-1.6-2.1s-1.1-1.5-1.7-2.3c-0.6-0.7-1.2-1.3-1.8-1.9c-0.6-0.6-1.3-1.4-1.9-2.1c-0.7-0.7-1.3-1.2-2-1.8
		c-0.7-0.6-1.4-1.3-2.1-1.9c-0.7-0.6-1.5-1.1-2.2-1.6c-0.7-0.5-1.5-1.1-2.2-1.6c-0.8-0.5-1.6-1-2.5-1.5c-0.8-0.5-1.5-1-2.3-1.4
		c-0.8-0.4-1.7-0.8-2.6-1.3s-1.6-0.8-2.4-1.1c-0.8-0.3-1.9-0.7-2.9-1.1c-1-0.3-1.6-0.6-2.4-0.9c-1.1-0.3-2.2-0.6-3.3-0.9
		c-0.7-0.2-1.4-0.4-2.2-0.6c-1.2-0.2-2.4-0.4-3.6-0.5c-0.7-0.1-1.4-0.2-2.1-0.3c-1.9-0.2-3.8-0.3-5.8-0.3
		c-31.7,0-57.5,25.8-57.5,57.5h-76.7V76.7h105.4c2.5,0,5-1,6.8-2.8L462.9,49c10.4,5,20.6,10.5,30.4,16.6c1.1,0.7,2.4,1.2,3.7,1.4
		l58.9,8.4V86.3z"/>
</g>
</svg>
