<?xml version="1.0" encoding="utf-8"?>
<!-- Generator: Adobe Illustrator 19.2.1, SVG Export Plug-In . SVG Version: 6.00 Build 0)  -->
<svg version="1.1" id="Layer_1" xmlns="http://www.w3.org/2000/svg" x="0px" y="0px"
     viewBox="0 0 272 480" style="enable-background:new 0 0 272 480;" xml:space="preserve">
<style type="text/css">
	.st0{fill:#006838;}
</style>
<path class="st0" d="M232,128h-48V40h16c4.4,0,8-3.6,8-8V8c0-4.4-3.6-8-8-8H72c-4.4,0-8,3.6-8,8v24c0,4.4,3.6,8,8,8h16v88H40
	c-22.1,0-40,17.9-40,40v248c0,22.1,17.9,40,40,40v16c0,4.4,3.6,8,8,8h32c4.4,0,8-3.6,8-8v-16h96v16c0,4.4,3.6,8,8,8h32
	c4.4,0,8-3.6,8-8v-16c22.1,0,40-17.9,40-40V168C272,145.9,254.1,128,232,128z M80,16h112v8H80V16z M104,40h64v88h-64V40z M72,464H56
	v-8h16V464z M216,464h-16v-8h16V464z M256,416c0,13.3-10.7,24-24,24H40c-13.3,0-24-10.7-24-24V168c0-13.3,10.7-24,24-24h192
	c13.3,0,24,10.7,24,24V416z"/>
<path class="st0" d="M136,160c-4.4,0-8,3.6-8,8v248c0,4.4,3.6,8,8,8s8-3.6,8-8V168C144,163.6,140.4,160,136,160z"/>
<path class="st0" d="M200,176c-4.4,0-8,3.6-8,8v216c0,4.4,3.6,8,8,8s8-3.6,8-8V184C208,179.6,204.4,176,200,176z"/>
<path class="st0" d="M72,176c-4.4,0-8,3.6-8,8v216c0,4.4,3.6,8,8,8s8-3.6,8-8V184C80,179.6,76.4,176,72,176z"/>
</svg>
