<?xml version="1.0" encoding="utf-8"?>
<!-- Generator: Adobe Illustrator 19.2.1, SVG Export Plug-In . SVG Version: 6.00 Build 0)  -->
<svg version="1.1" id="Layer_1" xmlns="http://www.w3.org/2000/svg" x="0px" y="0px"
     viewBox="0 0 575 249.5" style="enable-background:new 0 0 575 249.5;" xml:space="preserve">
<style type="text/css">
	.st0{fill:#006838;}
</style>
<g id="surface1">
	<path class="st0" d="M162.9,124.8h19.2v38.3h-19.2V124.8z"/>
	<path class="st0" d="M249.2,96.1H345v19.2h-95.8V96.1z"/>
	<path class="st0" d="M402.5,96.1h95.8v19.2h-95.8V96.1z"/>
	<path class="st0" d="M565.5,134.4V86.5c0-0.1-0.1-0.2-0.1-0.4c0-1-0.2-2-0.5-3L536.1,6.2c-1.4-3.7-5-6.2-9-6.2H147.2
		c-11.3,0-22,5-29.2,13.6L60.3,89.2l-25.8,19.3c-9.6,7.3-15.3,18.6-15.3,30.7v24H9.6c-5.3,0-9.6,4.3-9.6,9.6v38.3
		c0,5.3,4.3,9.6,9.6,9.6h32.9c10.4,24.2,38.5,35.3,62.6,24.8c11.1-4.8,20-13.7,24.8-24.8h286.3c10.4,24.1,38.4,35.3,62.5,24.9
		c11.8-5.1,21.1-14.8,25.7-26.8l53.7-26.8h7.3c5.3,0,9.6-4.3,9.6-9.6V144C575,138.7,570.8,134.4,565.5,134.4z M520.5,19.2l21.6,57.7
		h-17.9l-21.6-57.7H520.5z M132.8,25.7c3.6-4.2,8.9-6.5,14.4-6.5h25.3v67.3H86.4L132.8,25.7z M42.3,182.7c-1.2,2.9-2.2,5.8-2.9,8.9
		c0,0.1,0,0.2-0.1,0.3c-0.7,3.2-1,6.4-1,9.6H19.2v-19.2h23.3C42.4,182.4,42.4,182.6,42.3,182.7z M114,208.7
		c-4.2,15.3-20.1,24.3-35.4,20c-12.3-3.4-20.9-14.5-21.1-27.2c0.2-15.8,13-28.5,28.7-28.8c15.6-0.2,28.5,12.2,28.8,27.8
		C115.1,203.3,114.7,206,114,208.7z M210.8,201.5h-76.7c0-26.5-21.5-47.9-47.9-47.9c-2.7,0-5.4,0.3-8.1,0.7
		c-0.9,0.2-1.7,0.4-2.5,0.6c-1.8,0.4-3.5,0.9-5.3,1.5c-1,0.4-1.9,0.8-2.9,1.2c-1.5,0.7-3,1.4-4.5,2.2c-1,0.6-1.9,1.2-2.9,1.8
		c-0.8,0.5-1.6,1-2.4,1.5H38.3v-24c0-6,2.9-11.7,7.7-15.3l24.3-18.2h111.8c5.3,0,9.6-4.3,9.6-9.6V19.2h19.2V201.5z M364.2,201.5H230
		V19.2h134.2V201.5z M487.7,208.7c-4.2,15.1-19.8,23.8-34.9,19.6c-15.1-4.2-23.8-19.8-19.6-34.9c4.2-15.1,19.8-23.8,34.9-19.6
		c12.4,3.5,20.9,14.9,20.7,27.7C488.7,203.9,488.4,206.3,487.7,208.7z M518.3,186.1c0.2,0.3,0.4,0.7,0.6,1c0.4,0.8,0.9,1.5,1.5,2.1
		l0.1,0.1l-12.9,6.5c-0.1-0.7-0.3-1.4-0.4-2.1c-0.2-1.4-0.5-2.7-0.9-4c-0.4-1.6-0.9-3.2-1.5-4.8c-0.5-1.3-1-2.5-1.5-3.7
		c-0.7-1.5-1.5-3-2.4-4.4c-0.7-1.1-1.4-2.2-2.1-3.3c-1-1.3-2.1-2.6-3.2-3.8c-0.9-1-1.7-1.9-2.6-2.8c-1.3-1.2-2.6-2.3-4-3.3
		c-1-0.8-1.9-1.5-3-2.2c-1.5-1-3.1-1.8-4.7-2.6c-1.1-0.5-2.1-1.1-3.2-1.6c-1.9-0.7-3.8-1.3-5.8-1.8c-1-0.3-1.9-0.6-2.9-0.8
		c-3.1-0.6-6.2-0.9-9.3-1c-26.5,0-47.9,21.5-47.9,47.9h-28.8V19.2h98.8l26.4,70.7c1.4,3.7,5,6.2,9,6.2h28.8v38.3h-19.2
		c-5.3,0-9.6,4.3-9.6,9.6v38.3C517.5,183.6,517.8,184.9,518.3,186.1z M555.9,172.7h-19.2v-19.2h19.2V172.7z"/>
</g>
</svg>
