<?xml version="1.0" encoding="utf-8"?>
<!-- Generator: Adobe Illustrator 19.2.1, SVG Export Plug-In . SVG Version: 6.00 Build 0)  -->
<svg version="1.1" id="Capa_1" xmlns="http://www.w3.org/2000/svg" x="0px" y="0px"
     viewBox="0 0 456.5 512" style="enable-background:new 0 0 456.5 512;" xml:space="preserve">
<style type="text/css">
	.st0{fill:#181818;}
</style>
<g>
	<g>
		<path class="st0" d="M415.7,225.5c-1.9-1.9-4.4-2.9-7.1-2.9c-2.6,0-5.2,1.1-7.1,2.9c-1.9,1.9-2.9,4.4-2.9,7.1s1.1,5.2,2.9,7.1
			c1.9,1.9,4.4,2.9,7.1,2.9c2.6,0,5.2-1.1,7.1-2.9c1.9-1.9,2.9-4.4,2.9-7.1S417.5,227.4,415.7,225.5z"/>
	</g>
</g>
<g>
	<g>
		<path class="st0" d="M449,20.7C442.3,10.4,432,3.4,420,1c-12-2.5-24.2-0.2-34.4,6.6c-10.2,6.7-17.2,17-19.7,29l-1.1,5.1
			c-7.8-22.8-29.4-39.3-54.8-39.3c-31.9,0-57.9,26-57.9,57.9v8.7c0,16.6,7.1,31.7,18.4,42.2c-4.2,1.6-8.2,3.7-12,6.2
			c-14.2,9.3-23.9,23.6-27.4,40.4l-8.2,40.6l-18.8,18.9h-78.1c-17.8,0-32.4,14.5-32.4,32.4c0,4.4,0.9,8.5,2.5,12.4h-8.1
			c-18.8,0-35.2,12.7-40,30.9l-11.8,45.3c-1.4,5.3,1.8,10.8,7.2,12.2c0.8,0.2,1.7,0.3,2.5,0.3c4.4,0,8.5-3,9.7-7.5l11.8-45.3
			c2.4-9.4,10.9-15.9,20.6-15.9h146.5c2.7,0,5.2-1.1,7.1-3l50.6-51.1c3.9-3.9,3.9-10.3-0.1-14.1c-3.9-3.9-10.3-3.9-14.1,0.1
			l-47.7,48.2H126.3c-6.8,0-12.4-5.5-12.4-12.4c0-6.8,5.5-12.4,12.4-12.4h82.2c2.7,0,5.2-1.1,7.1-2.9l57.2-57.6
			c3.9-3.9,3.9-10.2,0-14.1c-3.9-3.9-10.2-3.9-14.1,0l-10,10.1l2.2-10.9c2.4-11.4,9-21.2,18.8-27.6c9.7-6.4,21.4-8.6,32.8-6.3
			c11.4,2.4,21.2,9,27.6,18.8c6.4,9.7,8.6,21.4,6.3,32.8c0,0.1,0,0.1,0,0.2l-25.1,121c-2.9,13.9-15.2,23.9-29.4,23.9H139.7
			c-23.4,0-43.1,18.1-45.5,41c-0.2,0.5-0.4,0.9-0.5,1.4L63,484.5c-1.2,4.4-5.2,7.5-9.7,7.5H30.1c-3.1,0-6-1.4-8-3.9
			c-1.9-2.5-2.6-5.7-1.8-8.7L37,415.3c1.4-5.3-1.8-10.8-7.2-12.2c-5.3-1.4-10.8,1.8-12.2,7.2L1,474.4c-2.4,9.1-0.4,18.5,5.3,26
			C12,507.7,20.7,512,30.1,512h23.2c13.7,0,25.6-9.2,29.1-22.5l23.2-89c0.5,0.5,0.9,1,1.4,1.5c8.8,8.9,20.9,14.1,33.4,14.1h48.7
			l-34.2,82.1c-1.3,3.1-0.9,6.6,0.9,9.4c1.9,2.8,5,4.5,8.3,4.5h154.3c3.3,0,6.5-1.7,8.3-4.5c1.9-2.8,2.2-6.3,0.9-9.4l-34.2-82.1
			h50.1c21.6,0,40.4-15.3,44.8-36.5l21.9-105.6c1.1-5.4-2.4-10.7-7.8-11.8c-5.4-1.1-10.7,2.4-11.8,7.8l-21.9,105.6
			c-2.5,11.9-13.1,20.5-25.2,20.5H140.4c-7.1,0-14.1-2.9-19.1-8.1c-4.9-5-7.5-11.4-7.4-18.2c0.3-13.9,11.8-25.3,25.8-25.3h142.2
			c23.6,0,44.2-16.8,49-39.9l54.7-264.1c1.4-6.7,5.3-12.5,11.1-16.3c5.8-3.8,12.6-5.1,19.4-3.7c6.7,1.4,12.5,5.3,16.3,11.1
			c3.8,5.8,5.1,12.6,3.7,19.4l-29.7,143.4c-1.1,5.4,2.4,10.7,7.8,11.8c5.4,1.1,10.7-2.4,11.8-7.8l29.7-143.4
			C458.1,43.1,455.7,30.9,449,20.7z M271.7,416.1l31.6,75.9H179.1l31.6-75.9H271.7z M310.1,106.8c-20.9,0-37.9-17-37.9-37.9v-8.7
			c0-20.9,17-37.9,37.9-37.9c20.9,0,37.9,17,37.9,37.9v8.7C348,89.8,331,106.8,310.1,106.8z M345.7,134.1c-3.3-4.7-7.2-9-11.5-12.6
			c6.1-2.8,11.7-6.7,16.5-11.4L345.7,134.1z"/>
	</g>
</g>
<g>
	<g>
		<path class="st0" d="M44.2,368.1c-1.9-1.9-4.4-2.9-7.1-2.9c-2.6,0-5.2,1.1-7.1,2.9c-1.9,1.9-2.9,4.4-2.9,7.1
			c0,2.6,1.1,5.2,2.9,7.1c1.9,1.9,4.4,2.9,7.1,2.9c2.6,0,5.2-1.1,7.1-2.9c1.9-1.9,2.9-4.4,2.9-7.1C47.2,372.6,46.1,370,44.2,368.1z"
			/>
	</g>
</g>
</svg>
