<?xml version="1.0" encoding="utf-8"?>
<!-- Generator: Adobe Illustrator 19.2.1, SVG Export Plug-In . SVG Version: 6.00 Build 0)  -->
<svg version="1.1" id="Capa_1" xmlns="http://www.w3.org/2000/svg" x="0px" y="0px"
     viewBox="0 0 480 480" style="enable-background:new 0 0 480 480;" xml:space="preserve">
<style type="text/css">
	.st0{fill:#006838;}
</style>
<path id="XMLID_2089_" class="st0" d="M450,371.3V360c0-35.2-26.1-64.4-60-69.3V210c0-6.2-0.5-12.3-1.5-18.4l4.7-4.8
	c5.6-5.7,8.6-13.3,8.6-21.3c-0.1-8-3.3-15.5-9-21.1l-28.6-28c-5.7-5.6-13.3-8.6-21.3-8.6c-4.9,0.1-9.7,1.3-13.9,3.6
	c-3.6-1.8-7.4-3.4-11.2-4.8C331.3,95.6,340,78.8,340,60c0-33.1-26.9-60-60-60h-80c-33.1,0-60,26.9-60,60c0,18.8,8.7,35.6,22.3,46.7
	C120.2,122.1,90,162.6,90,210v80.7c-33.9,4.9-60,34.1-60,69.3v11.3C12.8,375.7,0,391.4,0,410c0,38.6,31.4,70,70,70h340
	c38.6,0,70-31.4,70-70C480,391.4,467.2,375.7,450,371.3z M430,360v10H330v-10c0-27.6,22.4-50,50-50S430,332.4,430,360z M310,360v10
	h-96.1L370,210.5v80.2C336.1,295.6,310,324.8,310,360z M335.9,130.9l0.5-0.4c0.1-0.1,0.2-0.2,0.4-0.4c3.9-3.2,9.7-3.1,13.4,0.6
	l28.6,28c1.9,1.9,3,4.4,3,7c0,2.7-1,5.2-2.9,7.1L186,370H102l45.9-46.9c0,0,0.1-0.1,0.1-0.1L335.9,130.9z M160,60
	c0-22.1,17.9-40,40-40h80c22.1,0,40,17.9,40,40s-17.9,40-40,40h-80C177.9,100,160,82.1,160,60z M110,210c0-49.6,40.4-90,90-90h80
	c11.2,0,22.3,2.1,32.7,6.1L140,302.6c-9-6.3-19.2-10.3-30-11.9L110,210L110,210z M50,360c0-27.6,22.4-50,50-50
	c9.2,0,18,2.5,25.8,7.1L82.9,361c-2.5,2.6-4.1,5.7-4.9,9H50V360z M410,460H70c-27.6,0-50-22.4-50-50c0-11,9-20,20-20h400
	c11,0,20,9,20,20C460,437.6,437.6,460,410,460z"/>
</svg>
