<?xml version="1.0" encoding="utf-8"?>
<!-- Generator: Adobe Illustrator 19.2.1, SVG Export Plug-In . SVG Version: 6.00 Build 0)  -->
<svg version="1.1" id="Capa_1" xmlns="http://www.w3.org/2000/svg" x="0px" y="0px"
     viewBox="0 0 512 270" style="enable-background:new 0 0 512 270;" xml:space="preserve">
<style type="text/css">
	.st0{fill:#006838;}
</style>
<g>
	<g>
		<path class="st0" d="M455.9,268.8c30.4-1.9,55-26.3,56.1-56.7c0-0.7,0-1.4,0-2.1V60c0-33.1-26.9-60-60-60H60C26.9,0,0,26.9,0,60
			v150c0,0.7,0,1.4,0,2.1c1,30.4,25.7,54.8,56.1,56.7l17,1.1c1.3,0.1,2.5,0.1,3.8,0.1h358.2c1.3,0,2.5,0,3.8-0.1L455.9,268.8z
			 M482,210c0,16.5-13.5,30-30,30H60c-16.5,0-30-13.5-30-30V60c0-16.5,13.5-30,30-30h392c16.5,0,30,13.5,30,30V210z"/>
	</g>
</g>
<g>
	<g>
		<rect x="90" y="90" class="st0" width="332" height="30"/>
	</g>
</g>
<g>
	<g>
		<rect x="165" y="150" class="st0" width="182" height="30"/>
	</g>
</g>
</svg>
