<?xml version="1.0" encoding="utf-8"?>
<!-- Generator: Adobe Illustrator 19.2.1, SVG Export Plug-In . SVG Version: 6.00 Build 0)  -->
<svg version="1.1" id="Capa_1" xmlns="http://www.w3.org/2000/svg" x="0px" y="0px"
     viewBox="0 0 400.8 512" style="enable-background:new 0 0 400.8 512;" xml:space="preserve">
<style type="text/css">
	.st0{fill:#818285;}
</style>
<g>
	<g>
		<path class="st0" d="M111,247.5v17.1c0,9.4-7.7,17.1-17.1,17.1H68.3c-9.4,0-17.1-7.7-17.1-17.1v-128c0-9.4,7.7-17.1,17.1-17.1
			h25.6c7,0,13.3,4.3,15.9,10.8l1.3,7.7l16.8-2.9l-1.5-8.5c-0.1-0.5-0.2-1-0.4-1.4c-4.8-13.6-17.7-22.8-32.2-22.8h0H68.3
			c-18.8,0-34.1,15.3-34.1,34.1v128c0,18.8,15.3,34.1,34.1,34.1h25.6c18.8,0,34.1-15.3,34.1-34.1v-17.1H111z"/>
	</g>
</g>
<g>
	<g>
		<path class="st0" d="M81.1,25.6c-25.9,0-46.9,21.1-46.9,46.9s21.1,46.9,46.9,46.9S128,98.4,128,72.5S107,25.6,81.1,25.6z
			 M81.1,102.4c-16.5,0-29.9-13.4-29.9-29.9c0-16.5,13.4-29.9,29.9-29.9c16.5,0,29.9,13.4,29.9,29.9S97.5,102.4,81.1,102.4z"/>
	</g>
</g>
<g>
	<g>
		<path class="st0" d="M42.7,179.2H23.9C10.7,179.2,0,189.9,0,203.1v37.5c0,13.2,10.7,23.9,23.9,23.9h18.8c4.7,0,8.5-3.8,8.5-8.5
			v-68.3C51.2,183,47.4,179.2,42.7,179.2z M34.1,247.5H23.9c-3.8,0-6.8-3.1-6.8-6.8v-37.5c0-3.8,3.1-6.8,6.8-6.8h10.2V247.5z"/>
	</g>
</g>
<g>
	<g>
		<path class="st0" d="M187.7,102.4h-34.1v17.1h34.1c14.1,0,25.6,11.5,25.6,25.6v145.1H128v-59.7h-17.1v68.3c0,4.7,3.8,8.5,8.5,8.5
			h102.4c4.7,0,8.5-3.8,8.5-8.5V145.1C230.4,121.5,211.3,102.4,187.7,102.4z"/>
	</g>
</g>
<g>
	<g>
		<path class="st0" d="M220.5,31.9L204,36.4c0.6,2,0.8,4.1,0.8,6.3v34.1c0,14.1-11.5,25.6-25.6,25.6c-14.1,0-25.6-11.5-25.6-25.6
			V42.6c0-2.1,0.3-4.2,0.8-6.2L138,31.9c-1,3.5-1.5,7.2-1.4,10.8v34.1c0,23.5,19.1,42.7,42.7,42.7c23.5,0,42.7-19.1,42.7-42.7V42.7
			C221.9,39.1,221.4,35.4,220.5,31.9z"/>
	</g>
</g>
<g>
	<g>
		<path class="st0" d="M230.4,0h-59.7c-18.8,0-34.1,15.3-34.1,34.1v34.1c0,3.4,2.1,6.6,5.3,7.9c1.1,0.4,2.2,0.6,3.3,0.6
			c2.2,0,4.4-0.9,6-2.5l31.6-31.6h22.1c18.8,0,34.1-15.3,34.1-34.1C238.9,3.8,235.1,0,230.4,0z M204.8,25.6h-25.6
			c-2.3,0-4.4,0.9-6,2.5l-19.6,19.6V34.1c0-9.4,7.7-17.1,17.1-17.1h48.9C216.6,22.2,211.1,25.6,204.8,25.6z"/>
	</g>
</g>
<g>
	<g>
		<path class="st0" d="M306.3,448.4l-76.8-153.6l-15.3,7.6l73,146l-19.2,9.6l-68.1-120.7c-4.2-8-12.5-13-21.6-13
			c-13.6,0-24.7,11.1-24.7,24.7v37.8c-0.1,10.3-6.2,19.5-15.8,23.5l-74,31l-9.5-19l68.6-30.5c3.1-1.4,5.1-4.4,5.1-7.8v-85.3h-17.1
			v79.8l-71.7,31.9c-2.1,0.9-3.8,2.7-4.6,4.9c-0.8,2.2-0.6,4.6,0.4,6.7l17.1,34.1c2,4,6.8,5.8,10.9,4.1l81.4-34.1
			c15.8-6.6,26.1-22,26.2-39.2v-37.9c0-4.2,3.4-7.6,7.5-7.6c2.8,0,5.3,1.6,6.7,4.2l72.2,128c1.6,2.8,4.4,4.3,7.4,4.3
			c1.3,0,2.6-0.3,3.8-0.9l34.1-17.1C306.7,457.8,308.4,452.7,306.3,448.4z"/>
	</g>
</g>
<g>
	<g>
		<path class="st0" d="M80.6,475l-30.3-60.7c-1-2-2.8-3.6-4.9-4.3c-2.2-0.7-4.5-0.6-6.5,0.5L4.7,427.6c-2,1-3.6,2.8-4.3,4.9
			c-0.7,2.1-0.5,4.5,0.5,6.5l29.4,58.8c4.4,8.8,13.1,14.2,22.9,14.2h4.4c9.8,0,18.6-5.5,22.9-14.2C84.1,490.6,84.1,482.1,80.6,475z
			 M65.3,490.2c-1.5,2.9-4.4,4.7-7.6,4.7h-4.4c-3.3,0-6.2-1.8-7.6-4.7c0,0,0,0,0,0L20,439l18.9-9.4l26.5,53
			C66.5,485,66.5,487.8,65.3,490.2z"/>
	</g>
</g>
<g>
	<g>
		<path class="st0" d="M349,448.4c-6.8-13.6-23.4-19.1-37-12.3l-51.2,25.6c-4.2,2.1-5.9,7.2-3.8,11.5l17.1,34.1
			c1.5,3,4.5,4.7,7.6,4.7c1.3,0,2.6-0.3,3.8-0.9l51.2-25.6c0,0,0,0,0,0C350.2,478.7,355.7,462.1,349,448.4z M329,470.2L285.4,492
			l-9.4-18.9l43.5-21.8c5.2-2.6,11.6-0.5,14.2,4.7C336.3,461.3,334.2,467.6,329,470.2z"/>
	</g>
</g>
<g>
	<g>
		<path class="st0" d="M81.1,59.7c-7.1,0-12.8,5.7-12.8,12.8S74,85.3,81.1,85.3s12.8-5.7,12.8-12.8S88.1,59.7,81.1,59.7z M81.1,76.8
			c-2.4,0-4.3-1.9-4.3-4.3c0-2.4,1.9-4.3,4.3-4.3c2.4,0,4.3,1.9,4.3,4.3S83.4,76.8,81.1,76.8z"/>
	</g>
</g>
<g>
	<g>
		<path class="st0" d="M345.9,159.2c-0.9-1.2-1.8-2.2-2.8-3.3c-5.6-5.6-13-8.6-20.9-8.6c0,0-0.1,0-0.1,0c-7.9,0-15.3,3.1-20.9,8.7
			l-36.1,36.1l-36.7-44l-13.1,10.9l42.7,51.2c1.5,1.8,3.8,3,6.2,3.1c2.4,0.1,4.7-0.8,6.4-2.5l42.7-42.7c2.4-2.4,5.5-3.7,8.9-3.7
			c0,0,0,0,0,0c3.3,0,6.5,1.3,8.8,3.6c0.4,0.4,0.9,0.9,1.2,1.4c3.7,5,3.2,12.1-1.2,16.5l-42.2,42.2c-6.8,6.8-16.1,10.8-25.8,10.8
			c0,0,0,0-0.1,0c-12.2,0-23.5-6.1-30.3-16.3l-3.8-5.5l-14.1,9.6l3.7,5.5c9.9,15,26.5,23.9,44.4,23.9c0.1,0,0.1,0,0.1,0
			c14.2,0,28-5.8,37.9-15.8l42.2-42.2C353.5,187.7,354.7,171,345.9,159.2z"/>
	</g>
</g>
<g>
	<g>
		<path class="st0" d="M203.5,233.6c-1.6-7.8-6.1-14.5-12.5-18.7l-47.6-34.2l38.5-23.5c0.1-0.1,0.2-0.1,0.3-0.2
			c0.5-0.4,1-0.7,1.6-1.1c6.3-4.8,10.3-11.8,11.3-19.7c1-7.9-1.1-15.7-5.8-21.8c-9.5-12.7-27.2-15.8-40.2-7.1l-62.8,39.2
			c-11.3,7.5-18,20.1-18,33.6c0,13.6,6.7,26.1,17.8,33.5l71.7,50.7c5.1,3.4,10.8,5,16.5,5c9.1,0,18-4.2,23.9-12c0.4-0.5,0.7-1,1-1.4
			C203.5,249.4,205.1,241.4,203.5,233.6z M184.5,247.2c-4,5.4-11.6,6.7-17.1,3.1l-71.7-50.7c-6.5-4.3-10.4-11.6-10.4-19.5
			c0-7.8,3.9-15.1,10.1-19.3l62.9-39.2c2.2-1.4,4.6-2.1,7-2.1c3.9,0,7.8,1.8,10.3,5.2c2.1,2.7,3,6,2.5,9.3c-0.4,3.3-2.1,6.3-4.8,8.4
			l-49.8,30.5c-2.4,1.5-4,4.1-4.1,7c-0.1,2.9,1.2,5.6,3.6,7.3l58.3,41.9c2.8,1.9,4.8,4.7,5.5,8.1
			C187.5,240.4,186.8,243.8,184.5,247.2z"/>
	</g>
</g>
<g>
	<g>

			<rect x="139.6" y="163.9" transform="matrix(0.4834 -0.8754 0.8754 0.4834 -64.8437 235.084)" class="st0" width="54.4" height="17.1"/>
	</g>
</g>
<g>
	<g>

			<rect x="108.9" y="247.5" transform="matrix(0.4472 -0.8944 0.8944 0.4472 -158.2306 255.9934)" class="st0" width="38.2" height="17.1"/>
	</g>
</g>
<g>
	<g>
		<rect x="42.7" y="247.5" class="st0" width="76.8" height="17.1"/>
	</g>
</g>
<g>
	<g>

			<rect x="341.3" y="131.6" transform="matrix(0.974 -0.2265 0.2265 0.974 -63.39 87.5634)" class="st0" width="17.1" height="376.7"/>
	</g>
</g>
<g>
	<g>
		<rect x="76.8" y="102.4" class="st0" width="93.9" height="17.1"/>
	</g>
</g>
</svg>
