<?xml version="1.0" encoding="utf-8"?>
<!-- Generator: Adobe Illustrator 19.2.1, SVG Export Plug-In . SVG Version: 6.00 Build 0)  -->
<svg version="1.1" id="Layer_1" xmlns="http://www.w3.org/2000/svg" x="0px" y="0px"
     viewBox="0 0 575 191.7" style="enable-background:new 0 0 575 191.7;" xml:space="preserve">
<style type="text/css">
	.st0{fill:#006838;}
</style>
<g id="surface1">
	<path class="st0" d="M536.7,57.5H495l-16.6-37.8c-0.2-0.4-0.3-0.7-0.6-1.1C470.9,7.1,458.4,0,445,0H173.7
		c-11.6,0-22.6,5.3-29.9,14.4l-38,53.2l-80.3,7.3C11,76.5,0,88.8,0,103.4v49.9c0,5.3,4.3,9.6,9.6,9.6h39.6
		c4.4,16.9,19.6,28.7,37.1,28.8c0.8,0,1.6,0,2.4-0.1c16.5-1.1,30.3-12.7,34.4-28.7h299.8c4.4,16.9,19.6,28.7,37.1,28.8
		c0.8,0,1.6,0,2.4-0.1c16.5-1.1,30.3-12.7,34.4-28.7h68.6c5.3,0,9.6-4.3,9.6-9.6V95.8C575,74.7,557.9,57.5,536.7,57.5z M403.6,19.2
		H445c6.5,0,12.6,3.3,16.1,8.8l16.3,36.9l-2.2,2.1h-72L403.6,19.2z M221.6,19.2h162.9L384,67.1H221.1L221.6,19.2z M221,86.3h162.9
		l-0.2,19.2H220.8L221,86.3z M159,26.1c3.6-4.4,9-6.9,14.7-6.9h28.7L202,67.1h-72.2L159,26.1z M105.3,153.3c0,10.5-8.5,19.1-19,19.2
		c-4.7,0-9.2-1.7-12.7-4.8c-3.8-3.3-6.1-7.9-6.4-12.9c0-0.2,0.1-1.2,0.1-1.5c0-10.6,8.6-19.1,19.2-19.1c9.9,0,18.2,7.6,19,17.5
		C105.4,152,105.3,153.1,105.3,153.3L105.3,153.3z M123.4,143.8l-0.1-0.2c-0.2-0.7-0.5-1.4-0.8-2.2c-0.5-1.5-1-3-1.7-4.5
		c-0.4-0.9-1-1.7-1.4-2.5c-0.7-1.2-1.4-2.4-2.2-3.5c-0.6-0.8-1.2-1.5-1.9-2.3c-0.9-1-1.8-2-2.8-3c-0.7-0.7-1.4-1.3-2.1-1.9
		c-1.1-0.9-2.3-1.7-3.5-2.5c-0.7-0.5-1.5-1-2.3-1.4c-1.4-0.7-2.8-1.4-4.3-2c-0.7-0.3-1.4-0.6-2.1-0.9c-1.7-0.5-3.5-1-5.3-1.3
		c-0.6-0.1-1.2-0.3-1.7-0.4c-2.5-0.3-5-0.4-7.5-0.3c-2.3,0.2-4.6,0.5-6.8,1.1c-0.7,0.2-1.4,0.4-2.1,0.7c-1.5,0.4-2.9,1-4.3,1.6
		c-0.7,0.3-1.5,0.7-2.2,1.1c-1.3,0.7-2.5,1.4-3.7,2.2c-0.7,0.4-1.3,0.9-1.9,1.4c-1.2,0.9-2.3,1.9-3.4,3c-0.5,0.5-1,1-1.4,1.4
		c-1.5,1.6-2.8,3.3-4,5.1l-0.1,0.1c-1.2,1.9-2.2,3.9-3.1,5.9c-0.2,0.6-0.4,1.2-0.6,1.8c-0.4,1.1-0.8,2.2-1.1,3.3H19.2v-19.1h19.2
		v-19.2H19.2v-2c0-4.8,3.6-8.9,8.3-9.5l83.7-7.6h90.7l-0.2,19.2h-67.5v19.2h67.3l-0.2,19.1l9.6,0.1H123.4z M220.4,143.8l0.2-19.2
		h162.9l-0.2,19.1l9.6,0.1H220.4z M479.1,153.3c0,10.5-8.5,19.1-19,19.2c-4.7,0-9.2-1.7-12.7-4.8c-3.8-3.3-6.1-7.9-6.4-12.9
		c0-0.2,0.1-1.2,0.1-1.5c0-10.6,8.6-19.1,19.2-19.1c9.9,0,18.2,7.6,19,17.5C479.1,152,479.1,153.1,479.1,153.3L479.1,153.3z
		 M555.9,143.8h-58.7l-0.1-0.2c-0.2-0.7-0.5-1.3-0.7-2c-0.5-1.6-1.1-3.1-1.8-4.7c-0.4-0.8-0.9-1.6-1.3-2.4c-0.7-1.3-1.5-2.5-2.3-3.7
		c-0.5-0.7-1.1-1.4-1.7-2.1c-0.9-1.1-1.9-2.2-3-3.2c-0.6-0.6-1.3-1.2-1.9-1.7c-1.2-1-2.4-1.8-3.7-2.7c-0.7-0.4-1.4-0.9-2.1-1.3
		c-1.4-0.8-2.9-1.5-4.5-2.1c-0.7-0.3-1.3-0.6-2-0.8c-1.8-0.6-3.6-1-5.4-1.3c-0.6-0.1-1.1-0.3-1.6-0.3c-2.5-0.3-5-0.4-7.5-0.3
		c-2.3,0.2-4.6,0.5-6.8,1.1c-0.7,0.2-1.4,0.4-2.1,0.7c-1.5,0.4-2.9,1-4.3,1.6c-0.7,0.3-1.5,0.7-2.2,1.1c-1.3,0.7-2.5,1.4-3.7,2.2
		c-0.7,0.4-1.3,0.9-1.9,1.4c-1.2,0.9-2.3,1.9-3.4,3c-0.5,0.5-1,1-1.4,1.4c-1.5,1.6-2.8,3.3-4,5.1l-0.1,0.1c-1.2,1.9-2.2,3.9-3.1,5.9
		c-0.2,0.6-0.4,1.2-0.6,1.8c-0.4,1.1-0.8,2.2-1.1,3.3h-20.6l0.2-19.2h19v-19.2h-18.8l0.2-19.2h76.2c2.5,0,5-1,6.8-2.8l6.8-6.8h24.8
		v28.8c0,5.3,4.3,9.6,9.6,9.6h28.8V143.8z M536.7,95.8V76.7c10.6,0,19.2,8.6,19.2,19.2H536.7z"/>
</g>
</svg>
