<svg xmlns="http://www.w3.org/2000/svg" viewBox="0 0 351.55 114.63"><defs><style>.cls-1{fill:#8dc63f;}.cls-2{fill:#231f20;}.cls-3{fill:#006838;}</style></defs><title>Asset 1</title><g id="Layer_2" data-name="Layer 2"><g id="Layer_1-2" data-name="Layer 1"><path class="cls-1" d="M23,51H36.41l23,63.45H46.07l-6-16.4H19.33l-6,16.4H0Zm.68,34.85H35.63l-6-16.4Z"/><path class="cls-2" d="M82.74,114.63c-12.92,0-20.33-8.76-20.33-24V67h9.91V91.57c0,9.25,3.73,13.74,11.4,13.74a27.2,27.2,0,0,0,8.55-1.15l.89-.32V67h10v43.72C98.41,113.05,90.35,114.63,82.74,114.63Z"/><path class="cls-2" d="M132.39,114c-11.61,0-17.5-5.82-17.5-17.3V52.31h10V67h18.55v9.32H124.89V96.84c0,5.16,2.59,7.88,7.5,7.88a26.37,26.37,0,0,0,12.46-3.29l2.91,8.52A29,29,0,0,1,132.39,114Z"/><path class="cls-2" d="M176.23,114c-13.17,0-20.42-8.53-20.42-24v-.59c0-15.5,7.25-24,20.42-24s20.42,8.53,20.42,24V90C196.65,105.51,189.4,114,176.23,114Zm0-39.33c-7.14,0-10.32,4.54-10.32,14.71V90c0,10.18,3.18,14.71,10.32,14.71s10.33-4.53,10.33-14.71v-.59C186.56,79.25,183.37,74.71,176.23,74.71Z"/><path class="cls-1" d="M230.49,51C247.38,51,254,58.68,254,68.83a14.12,14.12,0,0,1-7.42,12.69c6.54,3.22,9.37,8.39,9.37,14.34,0,10.84-6.93,18.55-24.5,18.55H204.72V51ZM217.8,63.17V76.34h12.69c7.81,0,10.45-3.12,10.45-6.54,0-4-2.64-6.63-10.45-6.63Zm0,24.4v14.64h13.67c8.59,0,11.42-2.83,11.42-7.32,0-4.1-2.83-7.32-11.42-7.32Z"/><path class="cls-2" d="M284.36,114.63c-12.91,0-20.32-8.76-20.32-24V67h9.9V91.57c0,9.25,3.73,13.74,11.4,13.74a27.2,27.2,0,0,0,8.55-1.15l.89-.32V67h10v43.72C300,113.05,292,114.63,284.36,114.63Z"/><path class="cls-2" d="M331.13,114a39,39,0,0,1-18.28-4.17l2.94-8.59a36.92,36.92,0,0,0,15.34,3.44c3.09,0,10.32,0,10.32-4.56,0-3.89-5.81-5.35-10.19-6.11-8.92-1.58-17.63-4-17.63-14.39,0-9.47,6.55-14.27,19.45-14.27a35.61,35.61,0,0,1,17.3,4.16L347.48,78a31.71,31.71,0,0,0-14.4-3.31c-6,0-9.35,1.62-9.35,4.56,0,3.63,4.54,4.23,7.54,4.63.53.07,1,.13,1.49.21,12.82,2.15,18.79,7.41,18.79,16.54C351.55,109.54,344.68,114,331.13,114Z"/><path class="cls-3" d="M194.33,37.79C177.76,24.1,108.11-5.78,23.94,14.13c0,0,103.52-44.16,210.89,23.66Z"/><path class="cls-1" d="M140.22,37.79C123.65,24.1,93.42,9.11,23.94,14.13c0,0,77.51-23.34,156.78,23.66Z"/></g></g></svg>