<?xml version="1.0" encoding="utf-8"?>
<!-- Generator: Adobe Illustrator 19.2.1, SVG Export Plug-In . SVG Version: 6.00 Build 0)  -->
<svg version="1.1" id="Layer_1" xmlns="http://www.w3.org/2000/svg" xmlns:xlink="http://www.w3.org/1999/xlink" x="0px" y="0px"
	 viewBox="0 0 30 26.2" style="enable-background:new 0 0 30 26.2;" xml:space="preserve">
<style type="text/css">
	.st0{fill:#1AAEA8;}
</style>
<g>
	<path class="st0" d="M4.6,14.9H7c0.3,0,0.6-0.3,0.6-0.6v-2.2c0-0.3-0.3-0.6-0.6-0.6H4.6c-0.3,0-0.6,0.3-0.6,0.6v2.2
		C4.1,14.7,4.3,14.9,4.6,14.9z M5.2,12.7h1.2v1.1H5.2V12.7z"/>
	<path class="st0" d="M4.6,19.4H7c0.3,0,0.6-0.3,0.6-0.6v-2.2c0-0.3-0.3-0.6-0.6-0.6H4.6c-0.3,0-0.6,0.3-0.6,0.6v2.2
		C4.1,19.2,4.3,19.4,4.6,19.4z M5.2,17.2h1.2v1.1H5.2V17.2z"/>
	<path class="st0" d="M13.1,9.6h2.5c0.3,0,0.6-0.3,0.6-0.6V6.7c0-0.3-0.3-0.6-0.6-0.6h-2.5c-0.3,0-0.6,0.3-0.6,0.6V9
		C12.5,9.4,12.8,9.6,13.1,9.6z M13.7,7.3H15v1.2h-1.3V7.3z"/>
	<path class="st0" d="M18.2,9.6h2.5c0.3,0,0.6-0.3,0.6-0.6V6.7c0-0.3-0.3-0.6-0.6-0.6h-2.5c-0.3,0-0.6,0.3-0.6,0.6V9
		C17.6,9.4,17.9,9.6,18.2,9.6z M18.8,7.3h1.3v1.2h-1.3V7.3z"/>
	<path class="st0" d="M15.6,11.1h-2.5c-0.3,0-0.6,0.3-0.6,0.6V14c0,0.3,0.3,0.6,0.6,0.6h2.5c0.3,0,0.6-0.3,0.6-0.6v-2.3
		C16.2,11.3,15.9,11.1,15.6,11.1z M15.1,13.4h-1.3v-1.2h1.3V13.4z"/>
	<path class="st0" d="M20.7,11.1h-2.5c-0.3,0-0.6,0.3-0.6,0.6V14c0,0.3,0.3,0.6,0.6,0.6h2.5c0.3,0,0.6-0.3,0.6-0.6v-2.3
		C21.3,11.3,21,11.1,20.7,11.1z M20.1,13.4h-1.3v-1.2h1.3V13.4z"/>
	<path class="st0" d="M29.6,16.3c-0.4-1.3-1.1-2.8-1.9-3.8c-0.5-0.7-1.1-1.3-1.9-1.3c0,0,0,0,0,0c-0.7,0-1.2,0.5-1.7,1V3.3l0.2,0
		c0.9,0,1.7-0.7,1.7-1.7S25.3,0,24.3,0h-15C8.4,0,7.6,0.7,7.6,1.7s0.7,1.7,1.7,1.7h0.2v2.6H1.7C0.8,5.9,0,6.7,0,7.6
		c0,0.8,0.5,1.5,1.3,1.7v15.8H1c-0.3,0-0.6,0.3-0.6,0.6c0,0.3,0.3,0.6,0.6,0.6h25.5c0.3,0,0.6-0.3,0.6-0.6c0-0.3-0.2-0.6-0.5-0.6
		v-2.8c1.8-0.2,2.7-1.1,3.1-1.9C30.3,19.1,30,17.5,29.6,16.3z M1.7,7h7.8v1.1H1.7c-0.3,0-0.6-0.3-0.6-0.6C1.1,7.3,1.4,7,1.7,7z
		 M9.5,25.1H2.4V9.3h7.1V25.1z M16.1,25.1h-2v-6h2V25.1z M19.2,25.1h-2v-6h2V25.1z M23,25.1h-2.7v-6.6c0-0.3-0.3-0.6-0.6-0.6h-6.3
		c-0.3,0-0.6,0.3-0.6,0.6v6.6h-2.3V3.3h3.9c0.3,0,0.6-0.3,0.6-0.6c0-0.3-0.3-0.6-0.6-0.6H9.3C9,2.2,8.8,2,8.8,1.7
		c0-0.3,0.2-0.5,0.5-0.5h15c0.3,0,0.5,0.2,0.5,0.5c0,0.3-0.2,0.5-0.5,0.5l-5.2,0c0,0,0,0,0,0c-0.3,0-0.6,0.3-0.6,0.6
		c0,0.3,0.3,0.6,0.6,0.6l3.9,0V14c-0.7,1.3-1.1,2.8-1.2,4c-0.1,1.5,0.3,2.7,1.2,3.5V25.1z M25.4,25.1h-1.2V22
		c0.3,0.2,0.7,0.3,1.2,0.3V25.1z M28.6,20c-0.3,0.7-1,1.1-2,1.2v-2.4l0.8-0.8c0.2-0.2,0.2-0.6,0-0.8c-0.2-0.2-0.6-0.2-0.8,0
		l-0.1,0.1v-1.8c0-0.3-0.3-0.6-0.6-0.6s-0.6,0.3-0.6,0.6v1l-0.1-0.1c-0.2-0.2-0.6-0.2-0.8,0c-0.2,0.2-0.2,0.6,0,0.8l0.8,0.8v0.7
		l-0.5-0.3c-0.3-0.2-0.6-0.1-0.8,0.1c-0.2,0.3-0.1,0.6,0.1,0.8l1.1,0.8v1c-1.1-0.1-1.8-0.5-2.1-1.3c-0.7-1.4-0.1-3.7,0.8-5.4
		c0,0,0,0,0,0c0.2-0.5,0.5-0.9,0.8-1.2c0.6-0.7,0.9-0.9,1-0.9h0c0.1,0,0.4,0.2,1,0.9C28.1,14.9,29.5,18.2,28.6,20z"/>
	<path class="st0" d="M16.8,2.2L16.8,2.2c-0.3,0-0.6,0.3-0.6,0.6c0,0.3,0.3,0.6,0.6,0.6h0c0.3,0,0.6-0.3,0.6-0.6
		C17.4,2.4,17.2,2.2,16.8,2.2z"/>
</g>
</svg>
