<?xml version="1.0" encoding="utf-8"?>
<!-- Generator: Adobe Illustrator 19.2.1, SVG Export Plug-In . SVG Version: 6.00 Build 0)  -->
<svg version="1.1" id="Layer_1" xmlns="http://www.w3.org/2000/svg" xmlns:xlink="http://www.w3.org/1999/xlink" x="0px" y="0px"
	 viewBox="0 0 594.8 268.6" style="enable-background:new 0 0 594.8 268.6;" xml:space="preserve">
<style type="text/css">
	.st0{fill:#006838;}
</style>
<g id="surface1">
	<path class="st0" d="M105.5,268.6c33.4,0,61.6-24.6,66.4-57.6h260.6c5.3,36.7,39.3,62.1,75.9,56.9c29.5-4.2,52.6-27.4,56.9-56.9
		h10.4c4.6,0,8.5-3.2,9.4-7.7l9.6-48.7c0.2-1.1,0.2-2.3,0.1-3.4c-5.6-41.1-39-72.8-80.3-76.4L423,66.1L366,31.7
		C335.8,11,300,0,263.4,0h-42.2c-35.5,0-71,3.1-106.1,9.2c-11.4,1.9-20.8,3.8-29.6,5.8l-20.3,4.5c-4.4,1-7.5,4.9-7.6,9.4V42
		L15.4,63.2C5.9,67.8,0,77.5,0,88v67.6c0,7.4,2.9,14.4,8.1,19.6l30.5,30.5C40.8,241,70.1,268.6,105.5,268.6z M105.5,249.5
		c-26.5,0-48-21.5-48-48c0-26.5,21.5-48,48-48c26.5,0,48,21.5,48,48C153.5,228,132,249.4,105.5,249.5z M498.9,249.5
		c-26.5,0-48-21.5-48-48c0-26.5,21.5-48,48-48c26.5,0,48,21.5,48,48C546.8,228,525.4,249.4,498.9,249.5z M512.6,93.9L512.6,93.9
		c11.8,1,23.2,5,32.9,11.6h-8.3v19.2h26.9c5.6,8.4,9.5,18,11.3,27.9l-7.7,39.2h-2.4c-0.1-0.7-0.3-1.5-0.4-2.2
		c-0.2-0.9-0.3-1.8-0.5-2.7c-0.3-1.2-0.6-2.4-1-3.6c-0.2-0.8-0.5-1.7-0.7-2.5c-0.4-1.3-0.9-2.5-1.4-3.7c-0.3-0.7-0.5-1.4-0.8-2.2
		c-0.6-1.4-1.3-2.8-2-4.2c-0.2-0.5-0.5-1-0.7-1.4c-1-1.8-2.1-3.6-3.2-5.3c-0.2-0.3-0.4-0.6-0.7-0.9c-1-1.4-1.9-2.8-3-4.1
		c-0.4-0.5-1-1.1-1.4-1.6c-0.9-1-1.8-2-2.7-3c-0.6-0.6-1.2-1.1-1.7-1.7c-0.9-0.9-1.8-1.7-2.8-2.5c-0.7-0.5-1.3-1.1-2-1.6
		c-1-0.8-1.9-1.5-2.9-2.2c-0.7-0.5-1.5-1-2.2-1.5c-1-0.7-2-1.3-3.1-1.9c-0.8-0.4-1.6-0.9-2.3-1.3c-1.1-0.6-2.2-1.1-3.3-1.6
		c-0.8-0.4-1.6-0.7-2.4-1.1c-1.1-0.5-2.3-0.9-3.5-1.3c-0.8-0.3-1.6-0.6-2.5-0.8c-1.2-0.4-2.5-0.7-3.8-1c-0.8-0.2-1.6-0.4-2.4-0.6
		c-1.4-0.3-2.9-0.5-4.3-0.7c-0.7-0.1-1.4-0.2-2.1-0.3c-2.2-0.2-4.4-0.3-6.6-0.3c-2.2,0-4.4,0.1-6.6,0.3c-0.7,0.1-1.4,0.2-2.1,0.3
		c-1.4,0.2-2.9,0.4-4.3,0.7c-0.8,0.2-1.6,0.4-2.4,0.6c-1.3,0.3-2.5,0.6-3.8,1c-0.8,0.2-1.7,0.5-2.5,0.8c-1.2,0.4-2.3,0.8-3.5,1.3
		c-0.8,0.3-1.6,0.7-2.4,1.1c-1.1,0.5-2.2,1-3.3,1.6c-0.8,0.4-1.6,0.8-2.3,1.3c-1,0.6-2.1,1.2-3.1,1.9c-0.7,0.5-1.5,1-2.2,1.4
		c-1,0.7-1.9,1.4-2.9,2.2c-0.7,0.5-1.3,1-2,1.6c-1,0.8-1.9,1.7-2.8,2.5c-0.6,0.6-1.2,1.1-1.7,1.7c-1,1-1.8,2-2.7,3
		c-0.5,0.5-1,1-1.4,1.6c-1.1,1.3-2.1,2.7-3.1,4.1c-0.2,0.3-0.4,0.6-0.6,0.9c-1.2,1.7-2.2,3.5-3.2,5.3c-0.3,0.5-0.5,1-0.7,1.4
		c-0.7,1.4-1.4,2.8-2,4.2c-0.3,0.7-0.6,1.4-0.8,2.1c-0.5,1.2-1,2.5-1.4,3.7c-0.3,0.8-0.5,1.7-0.7,2.5c-0.3,1.2-0.7,2.4-1,3.7
		c-0.2,0.9-0.3,1.8-0.5,2.7c-0.1,0.7-0.3,1.4-0.4,2.2H276.9l-4.3-28.8h140v-19.2H269.7l-11.1-74.3l160.9,15.6L512.6,93.9z
		 M263.3,19.2c33,0,65.2,10,92.3,28.6l23.2,14L255.6,50L251,19.2H263.3z M221.1,19.2h10.5l4.3,28.9l-95.8-9.2l-7.8-13
		C161.7,21.4,191.4,19.2,221.1,19.2L221.1,19.2z M19.2,105.5h38.4V86.3H19.4c0.5-2.6,2.1-4.8,4.5-6l47.5-23.7c3.3-1.6,5.3-5,5.3-8.6
		V36.5l12.8-2.9c6.8-1.5,14-2.9,22.3-4.4l14.2,23.7c1.6,2.6,4.3,4.3,7.3,4.6l105.5,10.3l11.4,76.2h-68v19.2h70.9l4.3,28.8H172
		c-0.1-0.7-0.3-1.5-0.4-2.2c-0.2-0.9-0.3-1.8-0.5-2.7c-0.3-1.2-0.6-2.4-1-3.6c-0.2-0.8-0.4-1.7-0.7-2.5c-0.4-1.3-0.9-2.5-1.4-3.7
		c-0.3-0.7-0.5-1.4-0.8-2.1c-0.6-1.4-1.3-2.8-2-4.2c-0.2-0.5-0.5-1-0.7-1.4c-1-1.8-2.1-3.6-3.2-5.3c-0.2-0.3-0.4-0.6-0.7-0.9
		c-1-1.4-1.9-2.8-3-4.1c-0.4-0.5-1-1.1-1.4-1.6c-0.9-1-1.8-2-2.7-3c-0.6-0.6-1.2-1.1-1.7-1.7c-1-0.9-1.8-1.7-2.8-2.5
		c-0.7-0.5-1.3-1.1-2-1.6c-1-0.8-1.9-1.5-2.9-2.2c-0.7-0.5-1.4-1-2.2-1.5c-1-0.7-2-1.3-3.1-1.9c-0.8-0.4-1.6-0.9-2.3-1.3
		c-1.1-0.6-2.2-1.1-3.3-1.6c-0.8-0.4-1.6-0.7-2.4-1.1c-1.1-0.5-2.3-0.9-3.5-1.3c-0.8-0.3-1.6-0.6-2.5-0.8c-1.2-0.4-2.5-0.7-3.7-1
		c-0.8-0.2-1.6-0.4-2.4-0.6c-1.4-0.3-2.9-0.5-4.3-0.7c-0.7-0.1-1.4-0.2-2.1-0.3c-2.2-0.2-4.4-0.3-6.6-0.3c-3.3,0-6.6,0.3-9.9,0.8
		c-0.7,0.1-1.3,0.2-2,0.3c-3.1,0.5-6.1,1.3-9.1,2.3c-0.5,0.2-1.1,0.4-1.6,0.6c-2.7,1-5.4,2.1-7.9,3.4c-0.3,0.2-0.7,0.3-1.1,0.5
		c-1,0.5-1.9,1.1-2.9,1.7h-52L19.2,105.5L19.2,105.5z M50.5,163.1c-1.7,2.5-3.3,5.1-4.7,7.8c-0.3,0.5-0.5,1.1-0.8,1.7
		c-1.4,2.8-2.6,5.7-3.5,8.7v0.1l-18.3-18.3H50.5z"/>
	<path class="st0" d="M422.1,105.5h19.2v19.2h-19.2V105.5z"/>
	<path class="st0" d="M134.3,86.3h38.4v19.2h-38.4V86.3z"/>
	<path class="st0" d="M287.8,95.9h38.4v19.2h-38.4V95.9z"/>
	<path class="st0" d="M105.5,172.7c-15.9,0-28.8,12.9-28.8,28.8c0,15.9,12.9,28.8,28.8,28.8c15.9,0,28.8-12.9,28.8-28.8
		C134.3,185.6,121.4,172.7,105.5,172.7z M105.5,211.1c-5.3,0-9.6-4.3-9.6-9.6c0-5.3,4.3-9.6,9.6-9.6c5.3,0,9.6,4.3,9.6,9.6
		C115.1,206.8,110.8,211.1,105.5,211.1z"/>
	<path class="st0" d="M498.9,172.7c-15.9,0-28.8,12.9-28.8,28.8c0,15.9,12.9,28.8,28.8,28.8c15.9,0,28.8-12.9,28.8-28.8
		C527.7,185.6,514.8,172.7,498.9,172.7z M498.9,211.1c-5.3,0-9.6-4.3-9.6-9.6c0-5.3,4.3-9.6,9.6-9.6s9.6,4.3,9.6,9.6
		C508.5,206.8,504.2,211.1,498.9,211.1z"/>
</g>
</svg>
