<svg xmlns="http://www.w3.org/2000/svg" width="40.159" height="36.143" viewBox="0 0 40.159 36.143">
  <g id="calendar_1_" data-name="calendar (1)" transform="translate(0 -24)">
    <g id="Group_170" data-name="Group 170" transform="translate(9.01 52.29)">
      <g id="Group_169" data-name="Group 169" transform="translate(0 0)">
        <circle id="Ellipse_20" data-name="Ellipse 20" cx="1.5" cy="1.5" r="1.5" transform="translate(0.07 -0.218)" fill="#fff"/>
      </g>
    </g>
    <g id="Group_172" data-name="Group 172" transform="translate(27.743 52.29)">
      <g id="Group_171" data-name="Group 171" transform="translate(0 0)">
        <circle id="Ellipse_21" data-name="Ellipse 21" cx="1.5" cy="1.5" r="1.5" transform="translate(0.336 -0.218)" fill="#fff"/>
      </g>
    </g>
    <g id="Group_174" data-name="Group 174" transform="translate(0 24)">
      <g id="Group_173" data-name="Group 173" transform="translate(0 0)">
        <path id="Path_1192" data-name="Path 1192" d="M35.474,28.016H30.119V24.669a.669.669,0,1,0-1.339,0v3.347h-17.4V24.669a.669.669,0,1,0-1.339,0v3.347H4.685A4.691,4.691,0,0,0,0,32.7V55.458a4.691,4.691,0,0,0,4.685,4.685H35.474a4.691,4.691,0,0,0,4.685-4.685V32.7A4.691,4.691,0,0,0,35.474,28.016Zm3.347,27.442A3.351,3.351,0,0,1,35.474,58.8H4.685a3.351,3.351,0,0,1-3.347-3.347V38.725H38.821Zm0-18.072H1.339V32.7a3.351,3.351,0,0,1,3.347-3.347H10.04V32.7a.669.669,0,0,0,1.339,0V29.355h17.4V32.7a.669.669,0,1,0,1.339,0V29.355h5.355A3.351,3.351,0,0,1,38.821,32.7Z" transform="translate(0 -24)" fill="#fff"/>
      </g>
    </g>
    <g id="Group_176" data-name="Group 176" transform="translate(9.01 42.923)">
      <g id="Group_175" data-name="Group 175" transform="translate(0 0)">
        <ellipse id="Ellipse_22" data-name="Ellipse 22" cx="1.5" cy="1" rx="1.5" ry="1" transform="translate(0.07 0.148)" fill="#fff"/>
      </g>
    </g>
    <g id="Group_178" data-name="Group 178" transform="translate(27.743 42.923)">
      <g id="Group_177" data-name="Group 177" transform="translate(0 0)">
        <ellipse id="Ellipse_23" data-name="Ellipse 23" cx="1.5" cy="1" rx="1.5" ry="1" transform="translate(0.336 0.148)" fill="#fff"/>
      </g>
    </g>
    <g id="Group_180" data-name="Group 180" transform="translate(18.377 42.923)">
      <g id="Group_179" data-name="Group 179" transform="translate(0 0)">
        <ellipse id="Ellipse_24" data-name="Ellipse 24" cx="2" cy="1" rx="2" ry="1" transform="translate(-0.297 0.148)" fill="#fff"/>
      </g>
    </g>
    <g id="Group_182" data-name="Group 182" transform="translate(18.377 52.29)">
      <g id="Group_181" data-name="Group 181" transform="translate(0 0)">
        <ellipse id="Ellipse_25" data-name="Ellipse 25" cx="2" cy="1.5" rx="2" ry="1.5" transform="translate(-0.297 -0.218)" fill="#fff"/>
      </g>
    </g>
  </g>
</svg>
