<?xml version="1.0" encoding="utf-8"?>
<!-- Generator: Adobe Illustrator 19.2.1, SVG Export Plug-In . SVG Version: 6.00 Build 0)  -->
<svg version="1.1" id="Layer_1" xmlns="http://www.w3.org/2000/svg" xmlns:xlink="http://www.w3.org/1999/xlink" x="0px" y="0px"
	 viewBox="0 0 575 249" style="enable-background:new 0 0 575 249;" xml:space="preserve">
<style type="text/css">
	.st0{fill:#006838;}
</style>
<g id="surface1">
	<path class="st0" d="M9.6,220.3h46.2c15.7,27.4,50.7,36.9,78.1,21.2c8.8-5.1,16.1-12.4,21.2-21.2H420
		c15.7,27.4,50.7,36.9,78.1,21.2c8.9-5.1,16.3-12.5,21.3-21.4c1.1-0.2,2.1-0.6,3.1-1.1l47.9-28.8c2.9-1.7,4.6-4.8,4.6-8.2V95.7
		c0-1.1-0.3-2.2-0.7-3.3c-0.1-0.3-0.2-0.6-0.4-0.8c-0.1-0.3-0.2-0.5-0.3-0.8l-26-43.4l7.2-14.5c2.4-4.7,0.4-10.5-4.3-12.9
		c-0.9-0.4-1.8-0.7-2.7-0.9l-49.3-8.2L475.2,7C360.4-11.8,242.7,7.5,139.9,61.9L111.7,77l-43.1,9.6C39.2,93.1,14.4,112.4,1,139.3
		c-0.7,1.3-1,2.8-1,4.3v67.1C0,216,4.3,220.3,9.6,220.3z M140.5,206.8c-8.5,19.3-31.1,28.1-50.4,19.6S62,195.4,70.5,176
		s31.1-28.1,50.4-19.6c13.9,6.1,22.9,19.9,22.8,35.1C143.7,196.8,142.6,202,140.5,206.8L140.5,206.8z M504.7,206.8
		c-8.5,19.3-31.1,28.1-50.4,19.6s-28.1-31.1-19.6-50.4c8.5-19.3,31.1-28.1,50.4-19.6c13.9,6.1,22.9,19.9,22.8,35.1
		C507.9,196.8,506.8,202,504.7,206.8L504.7,206.8z M555.9,124.4h-24l-14.4-19.2h38.3V124.4z M362.8,19.9C399.3,18,436,20,472,26
		l5,0.8l-49.8,49.7h-72.6L362.8,19.9z M431.3,95.7c2.5,0,5-1,6.8-2.8l62.2-62.2l31.6,5.3l-3.8,7.6c-1.5,2.9-1.3,6.4,0.4,9.2
		l20.1,33.4h-50.2c-5.3,0-9.6,4.3-9.6,9.6c0,2.1,0.7,4.1,1.9,5.7l28.8,38.3c1.8,2.4,4.6,3.8,7.7,3.8h28.8v32.9l-28.8,17.3
		c0-0.8,0-1.5,0-2.3c0-31.8-25.7-57.5-57.5-57.5c-31.8,0-57.5,25.7-57.5,57.5c0,2.9,0.3,5.7,0.7,8.6c0,0.3,0,0.7,0.1,1h-76.1
		L352,95.7H431.3z M343.2,21.3l-7.9,55.2h-182C212.5,45.9,277,27.2,343.2,21.3z M19.2,162.7h19.2v-19.2H20.6
		c11.2-19.5,30.1-33.4,52.1-38.3l43.4-9.6h216.5l-15,105.4H162.1c0-0.3,0-0.7,0.1-1c0.5-2.8,0.7-5.7,0.7-8.6
		c0-31.8-25.7-57.5-57.5-57.5c-31.8,0-57.5,25.7-57.5,57.5c0,2.9,0.3,5.7,0.7,8.6c0,0.3,0,0.7,0.1,1H19.2V162.7z"/>
	<path class="st0" d="M249.2,114.8h38.3V134h-38.3V114.8z"/>
</g>
</svg>
