<?xml version="1.0" encoding="UTF-8" standalone="no"?>
<!-- Created with Inkscape (http://www.inkscape.org/) -->

<svg
   xmlns:dc="http://purl.org/dc/elements/1.1/"
   xmlns:cc="http://creativecommons.org/ns#"
   xmlns:rdf="http://www.w3.org/1999/02/22-rdf-syntax-ns#"
   xmlns:svg="http://www.w3.org/2000/svg"
   xmlns="http://www.w3.org/2000/svg"
   xmlns:sodipodi="http://sodipodi.sourceforge.net/DTD/sodipodi-0.dtd"
   xmlns:inkscape="http://www.inkscape.org/namespaces/inkscape"
   width="744.09448819"
   height="1052.3622047"
   id="svg2"
   version="1.1"
   inkscape:version="0.48.4 r9939"
   sodipodi:docname="New document 1">
  <defs
     id="defs4" />
  <sodipodi:namedview
     id="base"
     pagecolor="#ffffff"
     bordercolor="#666666"
     borderopacity="1.0"
     inkscape:pageopacity="0.0"
     inkscape:pageshadow="2"
     inkscape:zoom="0.35"
     inkscape:cx="375"
     inkscape:cy="591.60779"
     inkscape:document-units="px"
     inkscape:current-layer="layer1"
     showgrid="false"
     showguides="true"
     inkscape:guide-bbox="true"
     inkscape:window-width="1360"
     inkscape:window-height="701"
     inkscape:window-x="-5"
     inkscape:window-y="-5"
     inkscape:window-maximized="1" />
  <metadata
     id="metadata7">
    <rdf:RDF>
      <cc:Work
         rdf:about="">
        <dc:format>image/svg+xml</dc:format>
        <dc:type
           rdf:resource="http://purl.org/dc/dcmitype/StillImage" />
        <dc:title></dc:title>
      </cc:Work>
    </rdf:RDF>
  </metadata>
  <g
     inkscape:label="Layer 1"
     inkscape:groupmode="layer"
     id="layer1">
    <rect
       style="fill:#008000"
       id="rect3107"
       width="0"
       height="0"
       x="0"
       y="178.07646" />
    <rect
       style="fill:#00ff00"
       id="rect3217"
       width="751.42737"
       height="808.57141"
       x="-5.7142768"
       y="246.6479" />
    <path
       style="fill:#00ff00"
       id="path3219"
       d="m 101.74082,287.98996 c -0.312,8.22417 -0.34437,16.43738 0.54605,24.62265 0.9565,6.91567 1.65548,13.85596 2.02495,20.82689 0.79498,5.76196 1.91364,11.45863 2.51306,17.2501 0.51187,5.74074 0.56074,11.50803 0.6009,17.26716 -0.0303,2.06779 0.0103,4.13443 0.15237,6.1971 0,0 -37.974861,19.33938 -37.974861,19.33938 l 0,0 c 0.144435,-2.10176 0.192222,-4.20739 0.145913,-6.31444 -0.01971,-5.64568 -0.03121,-11.29751 -0.426349,-16.93226 -0.503866,-5.87419 -1.494207,-11.66202 -2.57574,-17.45492 -0.250986,-6.91633 -0.770266,-13.81645 -1.692637,-20.67873 -0.965709,-8.28801 -1.027047,-16.53925 -1.081008,-24.87951 0,0 37.767352,-19.24342 37.767352,-19.24342 z"
       inkscape:connector-curvature="0" />
    <path
       style="fill:#00ff00"
       id="path3221"
       d="m 95.435819,305.67258 c -3.4518,6.83863 -5.845303,14.1841 -8.148517,21.47745 -1.767695,5.79519 -2.640826,11.70611 -2.005229,17.73131 0.578561,5.74557 1.729076,11.36067 2.986828,16.9852 1.283149,5.73713 1.666601,11.60571 1.893859,17.46259 -0.205459,6.29753 0.857206,12.48976 1.688755,18.70427 0.64939,6.13794 2.262124,12.10471 3.170987,18.20629 0.629929,5.79231 2.093158,11.43683 2.913579,17.20415 0.841204,5.67921 0.570299,11.43888 1.129788,17.13508 1.044821,5.7173 1.826471,11.46098 2.260011,17.25606 0.35637,5.74754 0.37249,11.50852 0.39177,17.26483 0.007,5.71627 -0.005,11.43254 -0.0106,17.14881 0.0177,2.61917 -0.0557,5.23863 0.0548,7.85663 0.0168,0.39665 0.42862,1.38166 0.0819,1.1882 -0.44929,-0.25074 -0.36156,-0.96343 -0.54234,-1.44514 0,0 -36.204524,22.77399 -36.204524,22.77399 l 0,0 c -0.408326,-0.66133 -0.967811,-1.25053 -1.224978,-1.98397 -0.6663,-1.9003 0.880543,-7.09183 0.147322,-9.19116 0.0048,-5.71232 0.01445,-11.42464 0.01659,-17.13697 -0.0063,-5.67425 -2.28e-4,-11.35163 -0.265087,-17.02109 -0.340298,-5.7199 -0.972149,-11.40876 -2.136443,-17.02625 -0.887605,-5.66377 -0.390244,-11.42835 -1.123644,-17.12305 -0.711633,-5.78668 -2.208873,-11.41218 -2.891281,-17.18814 -0.787704,-6.14961 -2.424819,-12.12655 -3.125755,-18.27633 -0.784643,-6.33282 -2.18533,-12.6114 -1.953505,-19.0203 -0.151221,-5.61837 -0.387597,-11.25864 -1.522412,-16.78123 -1.243942,-5.75938 -2.639071,-11.44632 -3.169281,-17.33519 -0.921926,-6.57228 -0.536206,-12.95891 1.347997,-19.37589 2.180568,-7.44731 4.911103,-14.73689 7.602802,-22.00978 0,0 38.636505,-17.48037 38.636505,-17.48037 z"
       inkscape:connector-curvature="0" />
    <path
       style="fill:#00ff00"
       id="path3231"
       d="m 107.24582,296.83135 c -1.39255,7.8709 -1.98145,15.85277 -2.39224,23.826 -0.28237,6.25041 -0.30617,12.50812 -0.31831,18.76363 -9.3e-4,5.71267 0.0102,11.42532 0.0157,17.13798 0.005,5.7059 0.006,11.4118 0.006,17.11769 3.3e-4,5.71378 2e-4,11.42757 1.5e-4,17.14135 -6e-5,5.71438 -8e-5,11.42877 -9e-5,17.14315 0.45455,16.82838 6.63547,2.59438 -37.8585,21.46597 -0.742392,0.31488 0.06553,-1.61185 0.128151,-2.41582 0.259669,-3.33365 0.503051,-4.98264 0.922693,-8.4392 1.549354,-12.32391 2.894383,-24.67364 4.402343,-37.00299 1.062187,-10.57329 3.063321,-21.00488 4.676811,-31.49805 0.745396,-6.64744 2.46304,-13.11794 3.457932,-19.72573 0.07249,-5.66904 2.423824,-12.54844 -0.430176,-17.75635 -12.348318,-1.79089 -25.147035,1.44888 -37.029351,4.64564 0,0 32.838412,-25.11553 32.838412,-25.11553 l 0,0 c 9.190433,-2.14517 28.479595,-6.70898 37.245225,-3.12141 1.35869,0.55608 2.39298,1.70139 3.58947,2.55208 0.62615,1.14986 1.46134,2.20851 1.87844,3.44958 1.74251,5.18476 -0.55804,11.36622 -0.24433,16.65178 -0.6835,6.75585 -2.59171,13.22669 -3.56237,19.92809 -1.70816,10.53216 -4.06882,20.95295 -5.12628,31.58697 -1.66025,12.20736 -2.76545,24.5074 -4.13979,36.74478 -0.21095,2.61976 -0.60683,5.22676 -0.70436,7.85318 -0.0283,0.76241 0.78383,1.89515 0.12815,2.28523 -45.56273,27.10583 -38.258506,33.95068 -37.858483,17.11375 1.1e-5,-5.71439 3.1e-5,-11.42878 7.9e-5,-17.14318 4.2e-5,-5.7136 1.51e-4,-11.4272 -2.28e-4,-17.1408 -5.74e-4,-5.70463 -0.0014,-11.40925 -0.006,-17.11388 -0.005,-5.71897 -0.01545,-11.43794 -0.0098,-17.15691 0.01844,-6.34272 0.05374,-12.68776 0.362531,-19.0244 0.435467,-8.0354 1.149018,-16.04682 1.99562,-24.0491 0,0 38.032313,-18.7035 38.032313,-18.7035 z"
       inkscape:connector-curvature="0" />
    <path
       style="fill:#00ff00"
       id="path3233"
       d="m 98.674395,296.83135 c -1.39255,7.8709 -1.981454,15.85277 -2.392246,23.826 -0.28237,6.25041 -0.30617,12.50812 -0.318307,18.76363 -0.04939,5.61212 0.963819,11.23148 2.186861,16.69601 1.282113,5.79771 3.326747,11.37182 4.715737,17.13995 1.14093,5.78864 2.71299,11.45733 3.61332,17.29503 0.86284,5.81627 0.68404,11.70769 1.15096,17.55224 0.96853,6.45344 1.79275,12.91666 2.25471,19.42677 0.94195,6.65634 1.81187,13.33236 2.85693,19.97452 1.37846,6.61772 2.32637,13.29722 2.85469,20.03318 0.38512,5.85526 0.39941,11.72577 0.41515,17.59101 0.002,5.70854 -0.0118,11.41707 -0.0185,17.1256 -0.77226,7.31352 -1.6855,14.62475 -2.65988,21.91721 -1.44261,9.1602 -3.52617,18.18872 -4.80292,27.37802 -2.13158,20.68996 -5.68163,14.92322 -40.036678,28.33434 -0.622265,0.24291 -2.704567,-4.51206 -4.405587,-8.15835 -7.263808,-19.87892 -8.796676,-41.48973 -10.628828,-62.43497 -2.085793,-30.07672 -2.71817,-60.25057 -2.308827,-90.39146 0.121929,-4.97522 0.243858,-9.95043 0.365786,-14.92564 0,0 35.624097,-18.02565 35.624097,-18.02565 l 0,0 c -0.157339,4.9741 -0.314678,9.9482 -0.472018,14.9223 -0.508575,29.95918 0.178776,59.96144 2.426638,89.8463 1.983681,20.24232 3.579335,41.30568 11.432017,60.26022 0.69454,1.28536 1.29915,2.62354 2.08362,3.85608 0.35238,0.55366 1.85902,1.11622 1.30753,1.47199 -11.606613,7.48741 -23.941961,13.78086 -35.836195,20.80239 -0.45499,0.2686 1.182834,-0.10228 1.494113,-0.5292 0.905438,-1.24182 1.109554,-5.3685 1.227628,-6.45475 1.269844,-9.20781 3.38181,-18.24714 4.785499,-27.4217 1.175527,-7.04049 1.372332,-14.21905 2.715395,-21.24891 0.0055,-5.70577 0.0159,-11.41153 0.02424,-17.1173 6.27e-4,-5.78618 0.0169,-11.5756 -0.247654,-17.35719 -0.388134,-6.61361 -1.132685,-13.19621 -2.56555,-19.67429 -1.323866,-6.73405 -1.745179,-13.62479 -3.160297,-20.35423 -0.350675,-6.45254 -1.00197,-12.87862 -2.125513,-19.24691 -0.8472,-5.77162 -0.420898,-11.62183 -1.154198,-17.41762 -0.759751,-5.75898 -2.313763,-11.30622 -3.439501,-16.98711 -1.264056,-5.7892 -3.395775,-11.30947 -4.689488,-17.09163 -1.490842,-5.70431 -2.454849,-11.72059 -2.663174,-17.59888 0.01844,-6.34272 0.05374,-12.68776 0.362531,-19.0244 0.435466,-8.0354 1.149018,-16.04682 1.995619,-24.0491 0,0 38.032317,-18.7035 38.032317,-18.7035 z"
       inkscape:connector-curvature="0" />
    <path
       style="fill:#00ffff"
       id="path3235"
       d="m 116.41062,275.60619 c 1.69437,8.20524 4.20141,16.20246 6.07067,24.36473 1.47952,6.47378 4.11499,12.57384 5.86976,18.96437 1.8614,7.12468 4.08459,14.14315 5.70896,21.32785 1.51347,6.27285 3.50032,12.40555 5.27581,18.60323 1.57327,5.84824 3.0905,11.69281 4.4439,17.5973 1.61596,6.51849 3.87919,12.81781 5.20494,19.4133 0.75547,6.4619 1.91254,12.86271 2.86034,19.29796 0.46433,3.09291 0.23179,6.69504 2.6475,9.00517 0,0 -36.50259,21.7971 -36.50259,21.7971 l 0,0 c -2.30138,-3.36775 -3.37098,-7.01381 -3.47863,-11.11971 -0.85037,-6.38963 -2.26029,-12.68056 -2.80732,-19.10635 -1.13754,-6.56945 -3.32862,-12.7981 -5.05824,-19.21642 -1.54172,-5.80441 -2.80014,-11.68791 -4.42951,-17.46817 -1.7019,-6.31302 -3.78103,-12.51122 -5.294754,-18.8795 -1.454743,-7.16132 -3.69868,-14.09384 -5.723104,-21.10717 -1.614804,-6.5074 -4.332633,-12.65134 -5.809091,-19.20222 -1.637069,-8.03549 -3.969525,-15.90355 -6.147109,-23.80118 0,0 37.168468,-20.47029 37.168468,-20.47029 z"
       inkscape:connector-curvature="0" />
    <path
       style="fill:#00ffff"
       id="path3237"
       d="m 68.335156,287.44714 c 7.048139,3.81718 14.292114,6.7086 22.135506,8.34439 7.38003,1.43603 14.717278,1.50451 22.102568,0.34615 5.94998,-1.94831 11.97753,-3.51386 17.95318,-5.35363 5.71206,-1.84298 11.31819,-3.64161 17.29048,-4.494 5.74554,-1.3436 11.28694,-3.32077 17.00527,-4.75016 5.93819,-1.78975 11.67937,-0.89089 17.64712,-0.0202 5.87619,0.60319 11.73593,1.81215 17.33027,3.72506 5.73751,1.59654 11.23295,3.82178 17.07463,5.0434 6.28527,0.42096 11.32498,1.75985 15.44906,6.71449 2.79243,4.98129 4.18629,10.6643 5.28195,16.2365 0.14465,0.97873 0.2893,1.95747 0.43395,2.93621 0,0 -37.4202,19.70869 -37.4202,19.70869 l 0,0 c -0.1136,-0.91848 -0.2272,-1.83695 -0.3408,-2.75543 -0.84286,-4.85949 -2.04271,-9.78677 -4.24254,-14.21072 -3.66255,-3.83631 -9.07644,-3.41083 -13.93834,-4.58413 -5.80082,-1.54188 -11.42602,-3.65407 -17.21114,-5.25887 -5.5781,-1.45613 -11.20369,-2.63604 -16.95588,-3.15048 -5.67022,-0.67545 -11.15102,-0.43462 -16.63707,1.36513 -5.69554,1.6829 -11.40519,3.34191 -17.24655,4.45424 -5.7711,1.23532 -11.28603,3.27711 -16.95535,4.89314 -6.023775,1.8565 -12.153238,3.53002 -18.340392,4.71203 -7.657069,0.69073 -15.357741,0.0469 -22.863229,-1.63236 -8.026341,-2.09538 -15.472485,-5.46902 -22.978786,-8.96021 0,0 35.426293,-23.30924 35.426293,-23.30924 z"
       inkscape:connector-curvature="0" />
    <path
       style="fill:#00ffff"
       id="path3239"
       d="m 34.049442,290.30428 c 6.971348,3.13195 14.009351,6.12148 21.41719,8.05761 6.721094,2.2441 12.709507,-0.17196 19.217172,-1.79508 6.338499,-1.04724 12.394265,-3.12562 18.723288,-4.22932 4.951794,-0.70858 10.146168,0.14471 14.917078,1.55036 0,0 -34.774054,24.0503 -34.774054,24.0503 l 0,0 c -4.612347,-0.7974 -9.240769,-1.29288 -13.844302,-0.0893 -6.190167,1.38954 -12.308626,3.07972 -18.534873,4.31695 -6.979453,1.67416 -13.531747,2.55989 -20.477746,-0.004 -7.530474,-2.37777 -14.7835254,-5.52 -22.0700462,-8.54804 0,0 35.4262932,-23.30924 35.4262932,-23.30924 z"
       inkscape:connector-curvature="0" />
    <path
       style="fill:#00ffff"
       id="path3241"
       d="m 156.22776,407.72409 c 0.87759,8.04174 1.66534,16.08917 2.16762,24.16356 1.12049,6.69581 2.38937,12.92962 0.64751,19.60196 -1.1933,2.80886 -2.67554,5.89898 -5.47234,7.50018 -25.74994,14.74214 -27.05153,20.6092 -45.84858,22.70018 -6.15476,0.48978 -12.335703,0.387 -18.503899,0.34351 -6.024218,-0.46201 -10.535856,-3.61015 -14.77709,-7.61547 0,0 35.905709,-22.26031 35.905709,-22.26031 l 0,0 c 3.84764,3.28179 7.87579,5.26452 13.0885,5.03954 6.02269,0.0126 12.08301,0.0772 18.04973,-0.86588 15.41342,-3.27315 25.4523,-14.03765 -27.34283,17.87457 -2.17555,1.31502 10.94204,-5.1386 6.63334,-4.80907 3.0728,-6.66443 1.27061,-11.22155 0.1863,-18.18607 -0.34466,-7.93249 -0.85369,-15.87935 -2.22025,-23.71154 0,0 37.48628,-19.77516 37.48628,-19.77516 z"
       inkscape:connector-curvature="0" />
    <path
       style="fill:#00ffff"
       id="path3243"
       d="m 221.94205,422.00981 c 0.73385,5.24912 1.94144,10.32759 4.19351,15.12357 0,0 -36.66319,20.70368 -36.66319,20.70368 l 0,0 c -2.30481,-5.17516 -3.70929,-10.54637 -5.0166,-16.0521 0,0 37.48628,-19.77515 37.48628,-19.77515 z"
       inkscape:connector-curvature="0" />
    <path
       style="fill:#00ffff"
       id="path3245"
       d="m 342.139,309.44803 c -22.83818,-5.66528 -46.12875,-9.51461 -69.41064,-12.89052 -12.63892,-1.30889 -25.05592,-4.09427 -37.67471,-5.53506 -4.08114,-0.4998 -7.97424,-0.82212 -11.75985,1.06419 -0.89026,0.4436 -3.42896,2.01749 -2.56366,1.527 11.16363,-6.328 22.30612,-12.69323 33.45918,-19.03984 -6.94465,3.92299 -10.491,10.73977 -13.03119,18.00038 -1.9347,6.74922 -2.25038,13.77735 -2.40266,20.75103 0.0623,5.70284 -0.52218,11.45209 0.91565,17.01739 2.1404,5.64171 6.90081,9.36127 12.12724,12.00972 7.14265,2.8706 14.60135,4.82085 22.08481,6.56672 7.68498,1.48906 15.45445,2.12295 23.16173,3.46368 6.82277,0.95781 13.61768,1.60094 20.39475,2.83435 6.31744,1.42966 12.87174,1.03017 19.18285,2.32087 6.15417,1.27099 12.30837,1.71088 18.2611,3.79505 8.82658,3.34112 14.3233,10.45013 19.30999,18.09253 5.21134,7.66196 8.94484,16.08078 12.09287,24.75259 2.55753,6.69074 5.07638,13.41363 7.21824,20.25109 1.73072,5.7818 2.17108,11.80059 2.41658,17.79549 0.18104,6.28054 0.0929,12.56462 0.0268,18.84622 0.16251,7.16304 0.1113,14.23822 -1.39025,21.26262 -6.25515,23.42277 -21.17157,22.74284 -46.57774,37.40677 -12.60099,2.34775 -25.53335,1.92319 -38.29747,1.9787 -14.57792,0.0286 -29.15598,0.0369 -43.73379,0.10723 -9.75144,-0.047 -17.95439,-3.98388 -25.63255,-9.61088 -6.65938,-5.00774 -12.16135,-10.95309 -16.47065,-18.05575 -3.10154,-6.23441 -5.37767,-12.88416 -6.94476,-19.664 -1.47193,-6.3518 -1.57795,-12.39811 0.60092,-18.55161 0.53846,-1.03462 1.07692,-2.06923 1.61539,-3.10384 0,0 38.58056,-17.10881 38.58056,-17.10881 l 0,0 c -0.59849,0.86902 -1.19698,1.73805 -1.79547,2.60707 -3.04493,5.58794 -2.98933,9.98392 -1.77077,16.17568 1.2846,6.38852 3.38449,12.61645 6.12224,18.52576 3.99147,6.61869 9.31037,12.03068 15.55273,16.5986 7.2617,4.98012 14.97901,7.88706 23.94287,7.6478 14.4129,0.17018 28.82808,0.31396 43.24178,0.17812 12.61574,-0.21505 25.94368,0.43752 37.92494,-4.04681 -10.9581,6.49914 -21.91791,12.9954 -32.8743,19.49742 -0.88718,0.52649 1.8719,-0.91305 2.66665,-1.57082 3.191,-2.64105 4.53864,-7.05193 5.7532,-10.81426 2.10385,-6.62724 2.14102,-13.43275 1.93949,-20.33844 -0.038,-6.2126 -0.0267,-12.42551 -0.10204,-18.63779 -0.14741,-5.65721 -0.38,-11.35451 -1.84828,-16.85382 -1.9833,-6.82696 -4.48142,-13.50887 -6.93888,-20.17548 -2.91594,-8.41108 -6.46234,-16.55418 -11.49369,-23.94662 -4.53759,-6.93777 -9.72715,-13.03563 -17.9692,-15.47048 -5.9198,-1.49867 -12.03082,-2.00689 -18.00638,-3.27192 -6.39141,-0.7087 -12.82311,-1.11671 -19.13707,-2.42409 -6.75978,-1.11744 -13.6116,-1.54287 -20.34604,-2.84658 -7.74155,-1.27435 -15.60106,-1.83464 -23.22946,-3.76685 -7.78074,-1.92647 -15.6356,-3.88029 -22.87124,-7.4197 -5.9838,-3.60242 -11.25104,-8.12864 -13.89676,-14.78993 -1.87432,-5.94536 -1.60134,-11.97508 -1.47706,-18.1614 0.12636,-7.33069 0.42311,-14.69624 2.06318,-21.87345 2.01179,-7.71491 5.23911,-15.68407 11.6692,-20.74532 25.99728,-14.95847 31.30934,-26.2849 54.63775,-23.07615 12.20099,1.92826 24.227,4.84333 36.4796,6.47931 23.61282,3.97928 47.17556,8.24798 70.80525,12.12666 0,0 -34.60101,24.11018 -34.60101,24.11018 z"
       inkscape:connector-curvature="0" />
    <path
       style="fill:#00ffff"
       id="path3247"
       d="m 455.81725,428.25992 c -1.1952,6.65925 -1.74752,13.40843 -2.20292,20.15125 0,0 -37.62163,18.84844 -37.62163,18.84844 l 0,0 c 0.46419,-6.77746 1.09332,-13.539 1.79224,-20.29619 0,0 38.03231,-18.7035 38.03231,-18.7035 z"
       inkscape:connector-curvature="0" />
    <path
       style="fill:#00ffff"
       id="path3249"
       d="m 499.26776,315.60619 c 3.08699,9.10354 5.44705,18.42507 8.13263,27.65049 2.75822,9.34622 4.95766,18.83664 7.42455,28.25666 1.50428,6.39976 3.72488,12.59283 5.24395,18.98581 1.91011,5.69909 2.97436,11.58103 4.07871,17.46907 1.61991,6.35479 2.0809,12.90244 3.12635,19.34996 1.33239,5.82489 2.17227,11.72258 2.63707,17.67452 0.92881,5.69339 2.03212,11.3383 2.63195,17.08173 0.46749,5.66862 1.50393,11.32168 2.77078,16.86615 1.70385,5.09953 4.25781,8.94143 10.06779,7.3317 12.39424,-7.43811 30.08172,-16.49566 -28.49001,16.0937 -1.05045,0.58447 1.9879,-1.35571 2.93108,-2.101 2.35517,-1.86099 2.97589,-2.66004 5.057,-4.83086 4.74905,-5.05972 8.76822,-10.63701 11.19003,-17.15372 2.24985,-6.05385 3.74653,-12.28635 4.54307,-18.68459 1.18628,-6.80035 2.33991,-13.58625 2.92474,-20.46849 0.1034,-7.28548 1.19501,-14.47161 2.14304,-21.67779 1.71161,-17.82337 23.25813,-54.53901 44.54482,-29.23475 6.32247,9.92884 10.83071,20.93096 15.8219,31.57325 4.84409,10.06088 9.45181,20.2221 13.73834,30.53229 3.1107,6.84479 6.01369,13.79212 9.33807,20.5367 2.84939,6.06342 7.2416,9.67814 13.62427,11.30795 0.83892,-0.0502 1.69296,0.0156 2.51677,-0.15068 2.11362,-0.42669 13.64729,-7.45985 7.72073,-4.13404 -33.09087,18.5696 -42.93108,27.41877 -30.08152,16.31272 5.21535,-5.55295 7.71255,-12.4766 9.04711,-19.82555 0.8532,-5.95327 0.74003,-11.98144 0.77943,-17.97876 -0.0419,-6.87892 -0.0389,-13.75781 -0.0685,-20.63677 -0.0629,-7.16416 0.008,-14.32834 0.0101,-21.49255 -0.0467,-7.57941 0.0114,-15.15876 0.008,-22.73819 -0.0528,-7.20387 -0.0199,-14.40767 -0.0363,-21.6116 0.0193,-7.49254 0.0365,-14.98521 0.0144,-22.47779 0.0397,-7.1791 -0.0124,-14.35829 -0.0406,-21.53734 0,0 37.62106,-19.16888 37.62106,-19.16888 l 0,0 c -0.0281,7.19282 -0.0802,14.38578 -0.0405,21.57865 -0.022,7.48769 -0.005,14.97547 0.0144,22.46312 -0.0164,7.21638 0.0163,14.43262 -0.0368,21.64895 -0.003,7.57653 0.0537,15.15299 0.007,22.72951 0.004,7.15158 0.0741,14.30295 0.0419,21.45457 0.005,6.86853 0.0691,13.73675 0.11982,20.60507 0.0866,6.19971 0.14408,12.41986 -0.49159,18.59583 -1.10006,7.97076 -3.30505,15.62554 -8.15212,22.20386 -11.90806,15.14633 -2.0319,3.42139 -41.54623,26.40927 -3.85304,2.24154 -8.14894,2.73846 -12.40231,1.49834 -6.9175,-2.77443 -11.92398,-7.4561 -15.22117,-14.22519 -3.44214,-6.82074 -6.37992,-13.87546 -9.38091,-20.8975 -4.03173,-10.33973 -8.48153,-20.51284 -13.26038,-30.52868 -4.80108,-10.1662 -9.10404,-20.82671 -15.72665,-29.95791 -12.75985,-8.89308 -1.72043,-0.50915 33.86287,-21.73034 0.55416,-0.33049 -1.38482,0.16939 -1.82709,0.63918 -2.27859,2.4204 -1.52335,6.70945 -2.67998,9.57307 -0.93072,7.15547 -2.37356,14.24454 -2.28426,21.49167 -0.46202,6.91131 -1.28304,13.76596 -2.75714,20.54405 -0.63878,6.65828 -1.83911,13.22971 -4.26252,19.49729 -1.98227,7.12637 -5.42926,13.31046 -10.47788,18.78023 -13.26903,15.6837 -32.25852,28.76603 -52.59492,32.10424 -6.71842,-1.23025 -10.91359,-5.70892 -13.02474,-12.16169 -1.49446,-5.67259 -2.43844,-11.59126 -3.07486,-17.4074 -0.50009,-5.79026 -1.46189,-11.49725 -2.68189,-17.17935 -0.35247,-5.82021 -1.021,-11.60857 -2.38406,-17.28976 -1.24636,-6.37532 -1.29603,-12.95719 -3.04367,-19.25906 -1.3312,-5.80372 -1.97844,-11.76713 -4.09637,-17.38468 -1.36025,-6.40747 -3.64941,-12.55071 -4.99847,-18.96398 -2.41786,-9.40469 -4.19816,-18.97572 -7.14668,-28.25169 -2.71772,-9.11642 -4.81106,-18.47156 -8.59304,-27.22873 0,0 37.16847,-20.47029 37.16847,-20.47029 z"
       inkscape:connector-curvature="0" />
    <path
       style="fill:#00ffff"
       id="path3251"
       d="m 53.169389,556.56139 c -0.262018,7.99555 -0.160701,15.99813 -0.115625,23.99646 -9.85e-4,8.08857 -0.06412,16.17667 -0.03334,24.26523 -0.05727,8.21123 -0.0097,16.42227 0.04069,24.63337 0.04705,6.76579 0.0096,13.53153 0.02672,20.29747 0.0069,7.03903 -0.03182,14.07808 -0.03507,21.11715 -0.01023,8.42646 -0.05678,16.85277 -0.07836,25.27927 0.01584,7.61033 0.08409,15.2204 0.121697,22.83063 0.452041,6.04873 -0.620083,11.96291 -1.55025,17.90351 -1.083393,7.31627 -1.194249,14.72852 -1.355609,22.10899 0.03362,2.3729 -0.815424,16.13677 2.225413,16.80773 0.620888,0.137 1.12014,-0.60197 1.68021,-0.90296 10.445073,-12.53152 -1.015411,1.85448 -30.441723,15.31024 -1.768208,0.80855 2.509569,-2.98309 3.570342,-4.61253 1.307598,-2.00858 2.343722,-4.18136 3.515583,-6.27204 0,0 37.76447,-17.04856 37.76447,-17.04856 l 0,0 c -9.182893,19.84228 -22.483751,34.84895 -49.12301,36.88095 -1.131699,-0.61592 -2.43996,-0.98299 -3.395096,-1.84775 -5.019531,-4.54457 -2.825782,-13.48112 -3.24372,-19.29568 0.03048,-7.50223 0.0767,-15.01989 0.840841,-22.49097 0.82759,-5.7868 2.337462,-11.47994 1.891797,-17.3722 0.03762,-7.65157 0.105725,-15.30298 0.121698,-22.95465 -0.02157,-8.39988 -0.06817,-16.79957 -0.07836,-25.19941 -0.0032,-7.02716 -0.042,-14.05429 -0.03507,-21.08141 0.01708,-6.77502 -0.02027,-13.54983 0.02672,-20.3247 0.05017,-8.22492 0.09802,-16.44978 0.04069,-24.67483 0.03061,-8.07724 -0.03218,-16.15401 -0.03334,-24.23125 0.0446,-7.95902 0.148542,-15.9225 -0.115626,-23.87864 0,0 37.76735,-19.24342 37.76735,-19.24342 z"
       inkscape:connector-curvature="0" />
    <path
       style="fill:#00ffff"
       id="path3253"
       d="m 10.233452,527.23373 c 7.917046,-2.0009 15.940935,-3.73558 23.707171,-6.28786 7.301343,-1.6234 14.509924,-3.59445 21.81319,-5.2052 5.921272,-1.20639 11.969224,-1.40924 17.990576,-1.52835 5.716469,-0.0657 11.433507,-0.0323 17.150182,-0.018 7.605366,-0.13862 14.729359,3.31032 21.608709,6.18972 8.05494,3.59845 15.23749,8.57552 20.95163,15.28848 4.93242,5.86741 8.47276,12.72866 11.20036,19.85397 1.91611,5.88299 3.67656,11.77171 4.69252,17.8808 0.82839,5.99011 1.25554,11.98938 0.0452,17.93607 -2.24444,7.14356 -7.37093,12.69574 -12.32226,18.10302 -5.69436,6.05324 -11.55946,11.93214 -17.83889,17.37758 -6.56693,5.72621 -14.08864,10.16368 -20.99996,15.4251 -2.35724,1.9166 -4.240259,4.18626 -5.635596,6.87968 -0.45081,0.87019 -0.846272,1.76874 -1.227942,2.6714 -0.174347,0.41233 -0.0682,1.01771 -0.438374,1.26948 -0.232525,0.15815 -0.158822,-0.53953 -0.238233,-0.80929 -1.898961,-15.62557 0.41409,-2.62277 -35.364411,17.16136 -0.737969,0.40806 1.450459,-0.86073 2.16918,-1.30182 2.966895,-1.82081 5.849276,-3.77132 8.749012,-5.69607 7.773443,-5.75668 15.956728,-10.90002 24.230871,-15.89719 17.094133,-10.10172 2.944655,-1.76306 43.670233,-25.1291 5.81697,-3.33745 7.64272,-3.96579 14.02674,-1.61498 7.28973,3.5935 12.04507,9.91204 16.33436,16.57058 4.68204,6.86416 8.53395,14.18308 12.04898,21.69025 2.85814,5.77342 4.13338,12.00791 4.79921,18.35991 0.45549,5.7503 0.41195,11.52425 0.40356,17.288 -0.002,6.14858 -0.0818,12.29646 -0.0924,18.44498 0.11923,6.39736 -0.953,12.77059 -2.17843,19.03145 -1.67777,6.435 -3.82954,12.7014 -5.11361,19.2377 -0.54551,2.95364 -0.77175,5.9469 -0.99417,8.93706 0,0 -37.7853,18.94468 -37.7853,18.94468 l 0,0 c 0.17568,-3.13799 0.35269,-6.27907 0.82706,-9.39024 1.09741,-6.63077 2.98165,-13.01037 4.9778,-19.41505 1.63007,-5.86108 2.41552,-12.13568 2.66202,-18.19149 0.006,-6.13534 -0.0455,-12.27043 0.006,-18.40573 0.019,-5.64675 0.0791,-11.29896 -0.21831,-16.94015 -0.4515,-5.9128 -1.38531,-11.74673 -3.99042,-17.14749 -3.3765,-7.33964 -6.89901,-14.60324 -11.59264,-21.22517 -3.86784,-5.68579 -8.02654,-11.53931 -14.84988,-13.78112 -3.47044,-0.28603 -5.37049,0.4036 -8.4851,2.03642 -1.1815,0.6194 -4.65501,2.60797 -3.50294,1.9354 41.9484,-24.48922 41.76344,-24.40175 28.14204,-16.26474 -8.33033,4.70103 -16.52488,9.74925 -24.14285,15.54592 -3.40981,2.39296 -6.850645,5.03644 -10.484437,7.08391 -39.316046,22.15267 -26.523742,30.08742 -41.09109,19.70689 -0.389614,-0.73764 -0.999919,-1.396 -1.168842,-2.21293 -0.678209,-3.27993 4.391291,-11.24321 6.496663,-13.61687 6.503288,-5.8652 14.376337,-9.84607 21.129676,-15.41872 6.31006,-5.29242 12.293253,-10.88967 17.928819,-16.90759 4.781661,-4.98155 9.777321,-9.97836 12.980761,-16.16972 1.96681,-5.30526 1.32683,-10.7853 0.74623,-16.33263 -0.81947,-5.88319 -2.47528,-11.50212 -4.22376,-17.16634 -2.37666,-6.71001 -5.64212,-13.17147 -10.295935,-18.60284 -5.478062,-6.0881 -12.253203,-10.56392 -19.854096,-13.64559 -6.76424,-2.61505 -13.511792,-5.30012 -20.92152,-4.71263 -5.688461,-0.01 -11.378666,-0.0414 -17.065277,0.1301 -5.856706,0.25001 -11.717648,0.71123 -17.423364,2.14576 -7.184242,1.75987 -14.437801,3.23885 -21.53574103,5.32851 -7.97964427,2.17724 -16.04933997,4.07004 -23.92107397,6.61344 0,0 33.508599,-26.0327 33.508599,-26.0327 z"
       inkscape:connector-curvature="0" />
    <path
       style="fill:#00ffff"
       id="path3255"
       d="m 241.53154,693.97421 c -1.11196,8.04367 -2.14397,16.07138 -3.57201,24.06892 -0.64402,3.5889 -1.56262,7.24826 0.5935,10.41517 0,0 -36.58539,21.30858 -36.58539,21.30858 l 0,0 c -2.74078,-4.54454 -3.04689,-8.05464 -1.872,-13.283 1.468,-7.90027 3.02029,-15.75208 3.40358,-23.80618 0,0 38.03232,-18.70349 38.03232,-18.70349 z"
       inkscape:connector-curvature="0" />
    <path
       style="fill:#00ffff"
       id="path3257"
       d="m 379.98864,600.22135 c -9.31467,-4.91068 -19.49783,-7.64909 -29.42069,-10.98037 -7.28998,-2.52014 -14.90454,-3.77087 -22.42328,-5.38095 -6.23633,-1.31728 -12.59971,-1.6929 -18.95278,-1.88306 -5.74556,-0.11396 -11.49274,-0.0806 -17.23905,-0.0677 -5.90824,-0.62726 -11.23579,1.23699 -16.72388,3.06609 -15.67769,4.41835 -44.02076,23.12343 19.22885,-13.11249 -6.67591,4.17221 -12.18669,9.73915 -17.14246,15.79127 -4.48044,5.87343 -7.15532,12.65149 -8.77044,19.79361 -1.56834,6.18629 -0.80045,11.27371 2.37357,16.70155 4.27614,6.16131 9.67758,11.42652 14.9412,16.73076 4.85443,5.83425 11.12247,8.47608 18.37716,9.87351 6.64667,0.90914 13.38112,0.79018 20.07431,0.75355 6.77334,-0.0106 13.54643,-0.0769 20.31967,-0.11218 7.23587,0.0182 14.47164,0.024 21.70752,0.005 6.98977,0.22596 14.04616,-0.53837 20.97528,0.50467 6.10634,0.9307 12.14285,1.75219 18.14223,3.20293 7.11839,2.53096 13.32446,6.99932 19.25285,11.58075 6.22756,5.56554 11.11077,12.30474 14.34907,19.98 2.18908,5.89965 2.5425,12.17661 2.71879,18.39922 0.40357,6.34396 0.0226,12.31703 -2.17886,18.29478 -3.30664,7.64115 -8.54373,14.14906 -14.22282,20.14446 -15.96909,14.43101 -35.04668,27.2805 -55.3663,34.02423 -6.93658,2.62142 -13.89681,5.18592 -20.81958,7.85565 -8.17234,2.25167 -16.16915,5.08486 -24.48838,6.76907 -6.88625,1.00675 -13.85178,1.16501 -20.79837,1.24528 -7.11876,0.69376 -12.83368,-1.24367 -18.35868,-5.65386 -5.19115,-5.22324 -8.66749,-11.85551 -12.35562,-18.16613 -4.20926,-6.79681 -5.14673,-14.72505 -6.45957,-22.44563 -1.37223,-7.93029 -2.12092,-15.94165 -2.51755,-23.97389 -0.0534,-0.8214 -0.10674,-1.6428 -0.1601,-2.46419 0,0 37.68902,-19.35445 37.68902,-19.35445 l 0,0 c -6.9e-4,0.83775 -0.001,1.6755 -0.002,2.51325 0.22444,7.89687 0.71072,15.79502 2.02496,23.59625 1.28603,7.18164 2.18504,14.6256 5.93521,21.024 3.38729,5.7966 6.49513,12.03511 11.4393,16.67021 5.28148,3.35952 10.71449,3.83738 16.89507,3.36846 6.77258,-0.15356 13.58791,-0.39907 20.22502,-1.88159 8.10022,-1.97587 16.09303,-4.45974 23.97788,-7.15496 6.99187,-2.66188 13.99129,-5.30391 20.95763,-8.03041 14.4004,-6.76475 4.04869,-2.00734 -29.99291,17.82284 -1.10392,0.64307 2.23343,-1.24558 3.3023,-1.94537 3.53705,-2.31571 6.94231,-4.92161 10.05425,-7.7791 5.85118,-5.33671 10.95997,-11.52615 14.74348,-18.51139 2.7251,-5.95408 3.29162,-10.12291 2.83398,-16.69115 -0.0693,-5.74132 -0.14287,-11.56434 -1.9056,-17.08915 -2.73083,-7.08291 -7.20269,-13.24842 -13.06737,-18.10547 -5.63518,-4.17609 -11.56474,-8.25076 -18.46387,-9.97777 -5.86465,-1.29882 -11.85086,-1.93053 -17.78829,-2.81275 -6.88415,-0.37287 -13.784,-0.0907 -20.67542,-0.17881 -7.2547,-0.0153 -14.50936,-0.007 -21.76386,0.054 -6.77193,0.0159 -13.5438,0.0444 -20.31565,0.0813 -6.89019,-0.0593 -13.8637,-0.0491 -20.62031,-1.56749 -7.67235,-2.15549 -14.3055,-5.73938 -19.55184,-11.90227 -5.50831,-5.55649 -11.1363,-11.08998 -15.58654,-17.56113 -3.69352,-6.19856 -5.45058,-12.21136 -3.82102,-19.4372 1.38988,-7.66815 3.83581,-15.00905 8.10851,-21.59829 4.66518,-6.46062 10.00644,-12.34447 16.45995,-17.07911 18.25277,-10.64421 33.67479,-22.5317 53.50737,-28.07375 5.73401,-1.71102 11.5276,-2.3951 17.51833,-2.05292 5.77724,-0.002 11.55756,-0.0202 17.33053,0.2356 6.47817,0.36933 12.93663,1.05342 19.26661,2.53927 7.56679,1.65902 15.19784,3.08745 22.44409,5.93233 10.10165,3.40384 20.22015,6.75529 30.01719,10.98748 0,0 -35.23803,23.4832 -35.23803,23.4832 z"
       inkscape:connector-curvature="0" />
    <path
       style="fill:#00ffff"
       id="path3259"
       d="m 16.628859,804.38644 c 4.017514,9.2264 9.112293,17.86175 15.008646,25.99534 4.543111,6.55876 9.080796,13.18355 14.862985,18.71975 4.916772,4.77506 10.559303,8.00259 17.204221,9.52747 10.352283,2.67376 21.079516,3.39049 31.718242,3.94819 8.574327,0.36973 17.157787,0.34143 25.737737,0.29934 6.35702,-0.69712 12.28388,-2.75954 17.72025,-6.08348 13.97549,-7.33902 6.42816,-3.42162 -30.45308,17.63205 -0.98305,0.56117 1.94907,-1.15304 2.89735,-1.77113 3.06864,-2.00015 5.86893,-4.30095 8.6723,-6.64829 6.09176,-5.61759 12.16131,-11.23321 18.46408,-16.61633 2.35882,-1.80521 4.63147,-3.66039 7.2023,-5.16969 13.12725,-7.70684 26.33725,-15.27188 39.51584,-22.89058 33.41019,-19.31484 -120.654571,69.65264 10.07425,-5.855 6.35169,-2.87032 13.08782,-4.76449 19.94056,-5.97221 6.11941,-0.92876 12.31843,-1.00139 18.49389,-1.04943 8.06326,0.0684 15.8574,3.41978 23.3534,6.14941 9.01679,3.63369 18.04253,7.26532 27.23582,10.43238 6.87359,2.58392 14.08775,4.05081 21.06521,6.24828 5.5363,1.85488 11.32061,2.47087 17.1146,2.79522 5.85938,-0.32926 11.46911,0.79475 17.20204,1.75924 6.38015,1.2089 12.67068,2.71292 19.14153,3.47431 6.33046,0.61989 12.69834,0.64754 19.05295,0.67883 6.80677,0.009 13.49595,0.58555 20.0308,-1.56661 15.70337,-5.09666 45.96742,-24.16515 -16.76603,11.76113 7.17735,-4.36491 13.5891,-9.8679 20.10963,-15.13757 6.68718,-5.69826 13.26395,-11.51249 20.0143,-17.13806 16.75264,-15.62264 36.36428,-24.5032 56.63394,-36.12964 6.70482,-3.7539 13.98981,-6.27856 21.11428,-9.10291 7.92096,-3.02887 16.416,-3.5119 24.79787,-3.81421 9.23298,-0.32125 18.47183,-0.34966 27.70919,-0.32617 8.74014,-0.84543 16.50105,1.35608 24.37679,4.90639 8.92066,4.31549 17.25605,9.7075 25.16635,15.65063 7.54533,5.31986 14.65866,11.19085 21.51524,17.36267 6.08057,5.58514 11.91779,11.42678 17.76007,17.25836 6.42078,5.8735 13.20438,11.37703 20.87316,15.52526 7.74803,4.367 16.34046,6.32154 24.86469,8.47874 9.93096,2.36915 20.13259,3.11266 30.30167,3.55006 6.90435,0.23768 13.66253,0.78089 20.28443,-1.39377 15.43603,-6.28252 49.06023,-26.72888 -13.86443,9.40786 0,0 39.18418,-15.10234 39.18418,-15.10234 l 0,0 c -18.30358,10.58552 -37.93745,24.49341 -58.84014,31.31225 -6.90911,1.20967 -13.90061,0.61712 -20.87656,0.2656 -10.29566,-0.72781 -20.60429,-1.77039 -30.64493,-4.26614 -8.89593,-2.17008 -17.70554,-4.67825 -25.67499,-9.34475 -7.71512,-4.70436 -14.83859,-10.31571 -21.46909,-16.45185 -5.78974,-5.77849 -11.57407,-11.56756 -17.60364,-17.09786 -6.76641,-6.07929 -13.79366,-11.85063 -21.24313,-17.08238 -7.70597,-5.7181 -15.83673,-10.91483 -24.65293,-14.76675 -7.62713,-2.96584 -15.24319,-4.08843 -23.44176,-3.52398 -9.15202,0.0107 -18.31108,-0.0416 -27.45371,0.43959 -8.27285,0.64729 -16.52402,1.65432 -24.19744,5.04636 -7.04917,2.79038 -14.11978,5.58345 -20.69918,9.39142 62.50616,-36.41952 27.23685,-17.84979 15.00482,-5.91411 -6.72838,5.65928 -13.50783,11.23192 -19.98972,17.17697 -6.47836,5.37714 -13.01919,10.7036 -19.77451,15.7215 -17.52042,10.06458 -35.75383,23.5216 -56.03936,28.93347 -6.83967,1.12633 -13.75745,0.75422 -20.66912,0.74136 -6.47286,-0.0862 -12.96508,-0.15845 -19.38427,-1.09651 -6.46308,-0.9966 -12.80645,-2.57136 -19.27293,-3.54408 -5.6412,-0.94922 -11.27258,-1.26019 -16.98774,-1.44362 -5.97423,-0.57784 -11.86421,-1.63593 -17.56826,-3.55874 -7.0799,-1.92848 -14.04918,-4.14438 -20.96731,-6.59939 -9.11328,-3.34822 -18.12067,-6.9646 -27.18413,-10.44313 -7.39213,-2.48958 -14.88478,-5.26972 -22.81418,-4.71642 -6.01135,0.1344 -12.04949,0.36851 -17.9506,1.62938 -6.60478,1.54921 -13.14892,3.60313 -19.07292,6.97526 110.45114,-64.01568 -86.176386,49.44944 22.29643,-13.00272 2.52755,-1.45521 -9.91795,6.11859 -7.40526,4.66021 -6.26487,5.36727 -12.57646,10.6449 -18.36517,16.53799 -15.56846,14.0695 -34.05711,23.90914 -53.05093,33.07518 -5.990115,2.6921 -12.289763,4.46279 -18.91523,4.41699 -8.544391,-0.0646 -17.094628,-0.16195 -25.624994,-0.69373 -10.890606,-0.77488 -21.830416,-1.83329 -32.44417,-4.49796 -7.061417,-2.2317 -13.160674,-6.06002 -18.403603,-11.33413 -5.7234954,-5.9029 -10.54910326,-12.55286 -15.0193516,-19.44416 -5.9679754,-8.45823 -10.9238324,-17.46956 -15.8526644,-26.55844 0,0 36.921422,-20.73617 36.921422,-20.73617 z"
       inkscape:connector-curvature="0" />
    <path
       style="fill:#00ffff"
       id="path3261"
       d="m 86.002839,898.51753 c -13.511726,-2.29465 -26.978294,-4.66131 -40.600032,-6.26187 -11.318281,-1.27703 -22.701055,-1.71858 -34.082649,-1.8421 -6.4957194,-0.0302 -12.9913739,0.0324 -19.4869838,0.063 -1.6344672,0.006 -3.9833952,-0.17378 -5.5518482,0.56255 -0.812742,0.38155 -2.880421,2.12755 -2.094227,1.69393 62.494414,-34.46878 38.610477,-27.9421 31.123726,-15.50289 -3.011962,6.19307 0.41762,10.40697 4.421591,15.0193 4.90231,5.60336 11.257206,9.51906 17.530398,13.38539 6.162071,3.16005 12.538721,5.92502 19.298694,7.49487 5.575853,2.14494 11.412143,3.1502 17.333388,3.65953 5.604262,1.53646 11.328271,2.3807 17.110415,2.82968 7.401213,1.66089 14.365319,4.68679 21.129409,8.05526 8.10172,4.13848 15.15895,9.8689 21.92091,15.88022 5.51113,5.08553 9.49476,11.01166 11.79601,18.11882 1.53884,5.77365 1.61034,11.77207 1.67077,17.70514 -0.0701,5.79735 0.15114,11.60626 -0.30776,17.38888 -1.12071,7.17539 -5.55803,12.86389 -10.28229,18.10969 -15.72751,13.8994 -34.29446,26.0887 -54.733143,31.3872 -6.970383,1.309 -13.830241,2.9464 -20.900541,3.7138 -6.372009,0.5911 -12.776811,0.5205 -19.168628,0.5388 -8.307381,0.2923 -16.509538,-1.1982 -24.759087,-1.975 -9.5238015,-1.1836 -17.66207487,-5.1565 -24.6436192,-11.6067 -5.5543328,-5.6063 -9.8352378,-12.2038 -12.2725438,-19.699 -1.795313,-6.684 -2.097504,-13.6173 -2.179611,-20.49901 -0.05167,-4.57549 -0.09845,-9.13775 0.234388,-13.70172 0,0 37.824811,-18.75076 37.824811,-18.75076 l 0,0 c -0.673372,4.39682 -0.522076,8.80506 -0.494812,13.2487 0.09778,6.49854 0.09722,13.06274 1.590237,19.428 2.041466,6.83469 5.916786,12.82449 11.004389,17.83189 6.584318,5.7415 14.437113,8.6309 23.144706,9.4022 8.206454,0.8361 16.402088,1.9528 24.675715,1.4968 6.305162,-0.059 12.62706,-0.1553 18.89,-0.9625 6.886799,-1.0021 13.687679,-2.5186 20.421679,-4.2657 13.93313,-5.023 30.90012,-17.0435 -26.348334,16.4589 -4.200557,2.4582 13.029144,-6.9959 8.760944,-5.9302 4.81321,-4.242 9.17501,-9.3585 11.31951,-15.4918 0.98038,-5.5617 0.2989,-11.2724 0.549,-16.8995 -0.005,-5.55669 0.0678,-11.17273 -1.07646,-16.63909 -1.80826,-6.47855 -5.44834,-11.67915 -10.411546,-16.23077 -6.522829,-5.73602 -13.346949,-11.18302 -21.253176,-14.91963 -6.553868,-2.99773 -13.342529,-5.79818 -20.555615,-6.66432 -5.772337,-0.66566 -11.423508,-1.901 -17.143348,-2.88056 -6.027862,-0.81703 -11.879542,-2.29321 -17.651966,-4.21592 -6.918521,-2.09114 -13.579293,-5.02339 -19.8639806,-8.59287 -6.6255913,-4.09401 -13.0730254,-8.53805 -18.2152754,-14.47125 -4.810704,-5.58441 -9.202466,-11.40228 -6.846116,-19.14566 6.27498,-18.92845 29.9371414,-29.28713 49.207386,-29.23191 6.447351,-0.0102 12.895998,-0.0177 19.341144,0.17812 11.283764,0.39505 22.556459,1.128 33.757153,2.59824 13.843991,1.85256 27.6112,4.26946 41.50542,5.70906 0,0 -34.638201,24.42279 -34.638201,24.42279 z"
       inkscape:connector-curvature="0" />
    <path
       style="fill:#00ffff"
       id="path3263"
       d="m 156.02653,847.98996 c -0.26202,7.99555 -0.1607,15.99813 -0.11562,23.99646 0.0405,6.28612 0.0597,12.57233 0.0696,18.85856 0.007,5.71476 0.006,11.42953 0.006,17.14429 0.003,6.81686 1.22213,13.56678 1.9045,20.34121 1.14428,7.8874 2.12476,15.79148 3.82084,23.58224 1.50321,7.18408 2.49881,14.45943 3.73103,21.69604 1.59612,6.48937 2.9813,13.02666 4.77224,19.46559 1.83161,6.444 4.69945,11.94975 9.66853,16.47275 4.81292,3.4151 10.66968,4.9964 16.50961,4.1849 13.19001,-5.5568 33.03631,-17.39071 -28.39774,16.5791 -0.90808,0.5021 1.71671,-1.1721 2.51208,-1.8385 2.08656,-1.7483 2.27412,-2.225 3.89998,-4.3394 3.42637,-4.8482 5.18264,-10.315 6.13005,-16.1052 0.70745,-5.6268 0.67693,-11.31036 0.68625,-16.97128 -0.1877,-5.77899 -0.10571,-11.47856 1.20026,-17.12867 18.10026,-43.38659 37.13311,-28.84396 49.50916,-11.90548 5.45642,7.79561 10.87497,15.6197 16.21585,23.49644 4.70258,6.42769 8.69686,13.32362 13.27116,19.83819 4.5766,6.2311 9.03081,12.5218 14.02322,18.4326 3.42642,3.0342 7.47342,11.744 13.23243,9.5752 0.76575,-0.2883 1.34241,-0.9359 2.01361,-1.4039 -11.39516,6.3612 -22.73063,12.8306 -34.18548,19.0837 -0.78382,0.4279 1.50997,-0.9751 2.15134,-1.5965 3.25707,-3.1555 4.83529,-7.4898 6.22549,-11.6792 1.53118,-6.8239 2.08834,-13.8107 3.22644,-20.7143 1.23431,-7.2523 1.42911,-14.6152 1.63124,-21.95131 0.0956,-7.23479 0.0786,-14.47088 0.0745,-21.70622 0.0307,-7.79297 -0.005,-15.58589 0.0251,-23.3789 0.0208,-8.43038 0.035,-16.86012 -0.0159,-25.29046 -0.005,-7.53021 -0.018,-15.06026 -0.0216,-22.59044 -0.0104,-7.64378 0.0378,-15.28735 0.0125,-22.93117 0.0309,-5.08126 0.002,-10.16261 -0.0218,-15.24384 0,0 37.55944,-19.13749 37.55944,-19.13749 l 0,0 c -0.0232,5.08862 -0.0527,10.17737 -0.0218,15.26604 -0.0252,7.63959 0.0228,15.27893 0.0124,22.91848 -0.004,7.53753 -0.0171,15.07492 -0.0218,22.61248 -0.0504,8.43438 -0.0368,16.86816 -0.0111,25.30258 0.0357,7.77765 0.0101,15.55537 0.0597,23.33294 0.009,7.27129 0.0267,14.54248 -0.0899,21.8133 -0.0947,7.49035 -0.29565,14.99893 -1.24687,22.43738 -1.17182,7.05923 -2.24603,14.08133 -3.03965,21.19353 -6.06636,23.4369 -19.03638,25.2451 -45.88362,38.0607 -8.59456,-0.094 -12.50233,-6.3984 -17.75058,-12.2828 -5.05004,-6.0211 -9.54963,-12.4244 -14.16217,-18.779 -4.589,-6.541 -8.7146,-13.3846 -13.28689,-19.9357 -5.20411,-7.86895 -10.48191,-15.6958 -16.08596,-23.28731 -1.72037,-2.1819 -2.98546,-3.9852 -5.01537,-5.85765 -0.60909,-0.56185 -1.21914,-1.18036 -1.98517,-1.49637 -0.40201,-0.16584 -1.66838,0.36843 -1.29682,0.14247 33.64178,-20.45888 48.20549,-23.98634 33.34525,-20.21899 -2.73954,4.75799 -1.87677,10.52041 -1.96197,15.80786 0.0107,5.83219 0.0603,11.67635 -0.43499,17.49286 -0.70887,6.23455 -1.98353,12.36783 -5.38552,17.75903 -1.37839,2.607 -3.08524,6.1998 -5.74278,7.8036 -11.80072,7.1216 -28.28996,22.0992 -45.1008,23.7556 -6.75173,-0.5125 -13.07668,-2.4585 -18.25048,-7.0278 -5.22485,-5.2612 -8.83928,-11.2155 -10.88989,-18.3756 -1.81526,-6.6002 -3.1733,-13.28978 -4.85302,-19.92862 -1.15448,-7.1819 -2.44558,-14.33476 -3.66783,-21.50236 -1.68862,-7.95858 -2.62367,-16.0105 -4.04795,-24.02043 -0.61247,-6.89494 -1.94106,-13.72206 -2.23651,-20.61909 -7e-5,-5.71687 -6.5e-4,-11.43374 0.006,-17.15061 0.01,-6.30987 0.0292,-12.61972 0.0696,-18.92947 0.0446,-7.95902 0.14854,-15.9225 -0.11563,-23.87864 0,0 37.76735,-19.24342 37.76735,-19.24342 z"
       inkscape:connector-curvature="0" />
    <path
       style="fill:#00ffff"
       id="path3265"
       d="m 417.97869,851.54277 c -7.91533,5.77162 -16.00261,11.32267 -24.12953,16.79579 -7.03171,4.5801 -13.41549,10.01593 -19.5842,15.67855 -5.74185,5.48084 -11.48814,10.97217 -16.90292,16.77901 -4.65036,5.50526 -7.97009,11.91856 -11.15795,18.33442 -3.66346,6.73966 -5.44604,14.15916 -7.36358,21.51661 -2.97927,9.31865 -4.32979,18.97551 -5.16376,28.68639 -0.60582,7.8196 -0.64652,15.66367 -0.64035,23.50155 0.0243,6.01383 0.0584,12.02761 0.0761,18.04141 -0.53124,5.8212 0.67104,11.0341 2.93817,16.344 2.86477,5.8175 6.86706,10.5773 12.65319,13.5375 5.2342,2.0602 10.90449,2.0867 16.44581,2.1656 6.9902,0.1709 13.80743,0.189 20.62451,-1.4813 16.2823,-5.3628 48.86474,-25.5547 -14.84206,10.9214 6.41216,-3.7552 11.99756,-8.6757 16.95742,-14.1707 4.86232,-5.4284 7.21156,-12.166 8.83573,-19.1357 1.37397,-6.7952 1.57155,-13.739 1.66828,-20.64717 0.007,-6.68107 0.0116,-13.36223 -0.0154,-20.0433 -0.0251,-7.19951 0.004,-14.39912 0.002,-21.59868 0.12513,-7.8445 -1.00398,-15.63201 -2.6672,-23.27641 -2.04069,-6.30921 -3.79869,-12.69874 -5.77505,-19.02717 -1.57707,-6.7003 -3.70789,-13.24423 -5.57925,-19.86526 -1.08727,-3.21996 -1.84943,-6.75692 -4.21725,-9.35109 -0.43239,-0.47372 -0.9366,-0.9382 -1.54141,-1.15169 -0.34726,-0.12258 -1.4062,0.39951 -1.08145,0.22585 12.12986,-6.48659 24.35675,-12.79007 36.53512,-19.18511 -0.32922,0.1703 -0.8289,0.17597 -0.98767,0.51091 -1.61475,3.40638 1.99206,14.26003 3.01778,17.76733 2.70472,7.95644 5.42299,15.82867 6.9783,24.10015 1.01824,8.45788 2.36283,16.87076 4.11001,25.20763 1.87248,6.79381 3.81908,13.57232 6.48022,20.10416 2.5267,6.30029 5.4879,12.4159 8.99213,18.22811 4.75111,7.5034 8.64108,15.49361 12.73996,23.35793 3.17385,7.16701 7.2878,13.78921 11.51693,20.36031 4.8262,8.2521 9.8696,12.4259 18.98905,15.0658 5.37809,1.583 10.74206,1.2104 16.21839,0.67 0,0 -33.87342,24.9399 -33.87342,24.9399 l 0,0 c -5.81164,0.1715 -11.55867,-0.1015 -17.116,-2.0365 -9.02527,-3.4414 -15.63544,-8.972 -20.47219,-17.4408 -4.39544,-6.6299 -8.66203,-13.3539 -11.80089,-20.6941 -3.97991,-7.7993 -7.67566,-15.76466 -12.51056,-23.09312 -3.80734,-5.91089 -6.97149,-12.17934 -9.51684,-18.73854 -2.8181,-6.7672 -4.70513,-13.83155 -6.69868,-20.87584 -1.73288,-8.37499 -3.22719,-16.79935 -4.21169,-25.2989 -1.34432,-8.16952 -3.98301,-15.90003 -6.66611,-23.71361 -2.22235,-7.26054 -4.19786,-14.75035 -4.67839,-22.34779 30.90673,-16.72033 37.83567,-33.92544 46.75705,-6.72501 1.80297,6.59582 4.3288,12.95951 5.67171,19.67694 1.97964,6.46619 3.69304,12.9983 5.81071,19.42553 1.69629,7.90127 3.11001,15.95655 3.10329,24.05801 0.003,7.18629 0.0385,14.3725 0.0527,21.55874 0.0114,6.70217 0.10013,13.40405 0.0333,20.10625 -0.0769,7.15929 -0.10431,14.35103 -1.36422,21.42514 -1.4442,7.4392 -3.33225,14.8523 -7.92281,21.0487 -4.83338,5.8293 -10.13251,11.1806 -16.44261,15.4471 -18.51808,10.647 -36.84534,24.1393 -57.99002,29.5564 -7.0999,1.0698 -14.25055,1.1406 -21.42095,0.882 -6.0683,-0.3099 -12.17243,-0.8976 -17.58904,-3.9161 -6.09869,-3.9388 -10.73414,-9.3244 -14.0295,-15.8152 -2.57232,-5.7289 -4.40729,-11.4863 -3.8007,-17.8542 -0.006,-6.0365 -0.0195,-12.0731 0.008,-18.1095 0.0582,-7.9805 0.12434,-15.97161 0.72184,-23.9332 0.85559,-9.83845 1.86668,-19.72371 4.68123,-29.23127 1.93534,-7.53678 3.47316,-15.22972 6.99622,-22.23796 3.08414,-6.7286 6.50263,-13.30958 10.72113,-19.4081 5.10867,-6.17382 11.15167,-11.49817 16.7875,-17.18226 6.14429,-5.84436 12.42547,-11.58103 19.4646,-16.34938 7.97304,-5.36934 15.90214,-10.79338 23.78953,-16.28865 0,0 39.37502,-15.80151 39.37502,-15.80151 z"
       inkscape:connector-curvature="0" />
    <path
       style="fill:#00ffff"
       id="path3267"
       d="m 493.38564,947.37555 c 5.29313,-7.61206 12.30592,-13.73515 19.0905,-19.96369 6.5568,-6.23661 13.28151,-12.26423 20.20354,-18.09067 7.02199,-6.35367 14.93341,-11.57584 22.48135,-17.25987 6.64796,-5.15182 12.97232,-10.72677 18.83771,-16.75411 5.13779,-5.25029 6.30957,-11.87945 6.98835,-18.89883 0.96273,-6.98709 0.0359,-12.87763 -3.59415,-18.87413 -7.65004,-11.31553 -19.09917,-18.75686 -30.71598,-25.47665 -11.08029,-6.34499 -22.92891,-10.88021 -35.02267,-14.8083 -4.9458,-1.62347 -10.30027,-2.77462 -15.17272,-0.26667 -0.91673,0.47186 -3.47709,2.21323 -2.5759,1.71233 11.17936,-6.21365 22.27883,-12.56996 33.41824,-18.85495 -6.57891,5.84749 -9.66867,14.29672 -12.4015,22.42863 -2.44791,7.28859 -3.72001,14.85182 -4.36451,22.48937 -0.8531,6.19326 -2.0779,12.30675 -2.64811,18.53912 -0.4648,6.25219 -0.49685,12.52493 -0.52197,18.79095 -0.007,5.77317 0.009,11.54635 0.017,17.31951 -0.43696,5.82656 0.81209,11.50339 1.56912,17.23793 0.90582,7.03777 1.07997,14.13336 1.1568,21.21932 0.11033,7.48569 0.0733,14.97184 0.0893,22.45797 -0.18832,6.33093 1.21151,12.54885 1.99959,18.80056 0.64032,5.71062 0.59104,11.43763 1.54304,17.10987 1.85331,5.56736 3.07249,11.2864 4.47259,16.97209 1.85586,5.9684 5.07026,11.31187 8.28038,16.62447 3.91075,6.1635 8.91529,11.5072 13.91245,16.7879 4.60247,4.4 10.49014,7.1078 16.51867,8.9609 5.49363,1.3993 11.18705,1.4772 16.82032,1.5577 5.6746,0.2423 11.40099,-0.6919 16.76856,-2.536 0.89591,-0.4566 1.79181,-0.9133 2.68771,-1.3699 0,0 -33.18882,26.1461 -33.18882,26.1461 l 0,0 c -1.00885,0.3249 -2.0177,0.6498 -3.02655,0.9747 -5.78937,1.2052 -11.59105,2.0553 -17.52656,1.5516 -5.92614,-0.2393 -11.8955,-0.6536 -17.5382,-2.6436 -6.45018,-2.4965 -12.64623,-5.6567 -17.45979,-10.7527 -5.20007,-5.5041 -10.38623,-11.0873 -14.46971,-17.4982 -3.4377,-5.6533 -6.81746,-11.3538 -8.94678,-17.6556 -1.5721,-5.7457 -2.43835,-11.6826 -4.64158,-17.26388 -1.06859,-5.75493 -1.29398,-11.49365 -1.64367,-17.33218 -0.7073,-6.4353 -2.2041,-12.81622 -2.11382,-19.30409 0.0287,-7.4739 0.0242,-14.94813 -0.017,-22.42193 -0.12696,-6.91335 -0.23442,-13.84186 -1.04035,-20.71747 -0.79888,-5.89311 -2.31409,-11.70896 -1.88936,-17.6993 -0.005,-5.78377 -0.017,-11.56755 -0.005,-17.35131 0.0282,-6.36929 0.074,-12.74198 0.44221,-19.10259 0.41514,-6.24846 1.19047,-12.42567 2.63801,-18.53026 0.57198,-7.96575 1.77051,-15.86565 4.18828,-23.50322 2.68178,-8.61807 5.63177,-17.29873 11.20544,-24.54406 12.9192,-7.73327 25.71848,-15.67048 38.75759,-23.19981 5.79745,-3.34768 13.62553,-0.28084 19.33898,1.36229 12.17204,4.12679 23.82998,9.4815 34.98264,15.89188 12.10914,7.26534 24.1975,15.0207 32.4978,26.73445 4.24725,6.66066 5.96,13.29647 4.90206,21.22958 -0.53208,7.55029 -0.9873,15.21712 -5.85264,21.41444 -5.55523,6.50207 -12.15364,12.03645 -18.70471,17.50665 -7.42927,5.80431 -15.43555,10.83291 -22.51736,17.06662 -6.91642,5.83729 -13.87603,11.59279 -20.32615,17.95714 -6.60381,6.01743 -13.55383,11.76248 -19.06306,18.84486 0,0 -38.81997,16.98504 -38.81997,16.98504 z"
       inkscape:connector-curvature="0" />
    <path
       style="fill:#00ffff"
       id="path3269"
       d="m 611.43993,850.2173 c 12.15226,5.69451 24.60646,10.76426 37.12022,15.60961 9.16116,4.12097 18.8203,7.18579 27.7713,11.75458 6.23334,3.57942 12.20328,7.55944 18.18306,11.54039 6.21886,4.29585 11.73423,9.48541 17.18897,14.68884 6.19143,6.20871 10.63007,13.73404 14.71671,21.41697 4.26344,8.4634 8.3781,17.01115 11.74496,25.87651 2.75619,7.36806 4.02575,15.09858 5.64576,22.75208 1.88214,7.98389 2.40074,16.18004 3.43289,24.29059 1.20261,6.91243 2.14404,13.85453 2.65754,20.85173 0.37371,6.974 -1.95778,12.9857 -5.6214,18.7634 -12.75199,17.2189 -33.08121,29.2702 -53.84743,34.2072 -7.69426,1.3001 -15.50895,1.448 -23.29185,1.5001 -10.36941,0.5212 -13.94543,-0.2693 -22.97375,-5.6022 -8.74277,-5.4931 -15.26669,-13.4354 -20.68657,-22.0824 -5.98531,-9.0193 -8.36435,-19.1789 -9.75993,-29.7403 -1.69437,-11.6507 -2.6316,-23.37571 -3.29742,-35.12307 -0.43911,-9.34474 -0.53757,-18.70019 -0.63333,-28.05333 -0.48329,-6.97311 0.99908,-13.5052 3.74993,-19.84936 2.99811,-6.195 6.75505,-12.01711 10.81429,-17.56564 4.76283,-6.1931 10.23235,-11.78968 15.68426,-17.36875 5.69851,-5.83779 11.59651,-11.47816 17.20441,-17.40336 5.75946,-6.67429 11.64801,-13.23804 17.22673,-20.0653 5.70134,-6.89315 11.48834,-13.70831 17.13621,-20.64612 2.73551,-3.37897 5.6184,-6.63219 8.50927,-9.87742 0,0 38.74216,-16.27319 38.74216,-16.27319 l 0,0 c -2.93268,3.18687 -5.86278,6.37768 -8.63327,9.70856 -5.70328,6.8927 -11.26246,13.88886 -17.15232,20.62585 -5.54157,6.88763 -11.34868,13.52339 -17.10225,20.23617 -5.28506,6.23473 -11.39796,11.69067 -17.0762,17.56293 -5.41888,5.47359 -10.86428,10.94066 -15.81178,16.85183 -4.17855,5.23602 -7.77935,10.85761 -11.13883,16.64535 -2.73215,5.88744 -5.21556,11.59511 -4.6517,18.3024 -0.0621,9.34418 -0.077,18.69121 0.24992,28.03135 0.46239,11.65261 1.32774,23.29142 3.21244,34.81141 1.16026,9.98559 3.19184,19.61469 8.92485,28.10479 5.11072,8.0687 11.19237,15.4492 19.61779,20.2591 8.23011,4.2083 12.94259,3.9904 21.95468,3.6702 7.54451,-0.1191 15.18083,-0.3104 22.49366,-2.3711 15.56259,-5.674 3.76114,-1.6215 -28.87218,17.8357 -1.03822,0.619 2.20803,-1.0115 3.20817,-1.6904 1.98081,-1.3444 3.66436,-3.3168 5.22244,-5.0916 0.78437,-0.8935 1.53786,-1.8136 2.3068,-2.7204 3.76176,-4.9156 6.64179,-9.791 6.7719,-16.1733 -0.37228,-6.9245 -1.11471,-13.815 -2.35611,-20.6421 -1.2402,-7.9801 -1.27321,-16.1415 -3.31011,-24.00784 -1.65757,-7.45798 -2.72166,-15.03875 -5.32848,-22.27038 -3.07824,-8.77938 -7.11285,-17.16917 -11.34167,-25.4454 -3.85017,-7.30503 -8.32345,-14.25876 -14.16647,-20.15313 -5.33223,-5.01219 -10.75029,-9.98042 -16.88271,-14.01503 -5.86028,-3.84628 -11.63531,-7.83281 -17.8168,-11.16077 -8.87609,-4.28508 -18.11026,-7.8405 -27.1514,-11.75541 -12.57824,-5.16073 -25.09704,-10.48516 -37.82539,-15.26714 0,0 35.23803,-23.4832 35.23803,-23.4832 z"
       inkscape:connector-curvature="0" />
    <path
       style="fill:#00ffff"
       id="path3271"
       d="m 809.29792,837.39003 c -7.24625,7.27282 -13.86785,15.19462 -19.40037,23.8472 -3.47884,5.90693 -5.67817,12.37991 -7.95725,18.80398 -2.10115,6.10655 -2.62876,12.56155 -2.96512,18.96372 -0.22413,5.84299 -0.18632,11.6918 -0.17265,17.53786 0.0189,6.29324 -0.0161,12.58619 -0.001,18.87952 -0.30086,6.04476 0.18723,11.9613 1.16844,17.91332 0.8719,6.40472 3.16681,12.53856 5.36416,18.59047 2.71226,6.7482 7.51593,12.2299 12.3288,17.55546 5.09665,6.04616 10.91854,10.92974 18.20442,14.02734 5.73757,2.0541 11.84022,2.1922 17.86104,2.2747 7.59301,0.06 15.18641,0.02 22.77936,-0.031 6.59667,-0.3854 13.33332,0.5994 19.84574,-0.6319 0.91175,-0.3588 1.85233,-0.6516 2.73524,-1.0765 0.31817,-0.1531 13.35992,-7.67949 5.77857,-3.346 -58.00641,33.1562 -38.07586,22.9645 -26.00006,14.06 6.9048,-5.5025 10.26731,-13.2162 12.31516,-21.55806 1.51901,-7.85347 1.56214,-15.87606 1.5782,-23.84391 0.68603,-7.04286 -1.18345,-13.345 -3.52369,-19.87753 -3.25494,-8.59084 -7.91325,-16.45931 -12.74194,-24.22836 -4.88725,-7.61985 -10.5003,-14.77024 -17.00833,-21.06387 -7.99006,-7.70408 -17.41537,-13.50702 -26.80132,-19.31064 -9.92626,-5.83809 -20.27128,-10.804 -30.70995,-15.61925 -7.30815,-2.90112 -14.80044,-5.3193 -22.0695,-8.32902 -1.05297,-0.13498 -2.12252,-0.63486 -3.15891,-0.40493 -0.58114,0.12893 -1.67418,1.65322 -1.15501,1.36199 12.30672,-6.90345 23.55645,-15.89598 36.61148,-21.25128 1.90918,-0.78317 2.73416,3.1045 4.27201,4.48048 6.84761,6.1268 12.864,10.01034 20.52941,15.46883 0,0 -33.57271,21.45815 -33.57271,21.45815 l 0,0 c -7.90701,-5.11424 -15.02081,-9.38094 -22.3269,-15.17215 -1.92896,-1.52899 -7.13705,-3.13621 -5.47662,-4.95325 23.75504,-25.99549 21.9004,-29.79464 39.21794,-24.38845 7.37708,2.87075 14.96591,5.21472 22.14681,8.56511 10.41324,4.97761 20.55609,10.47647 30.54014,16.26857 9.76418,5.85564 19.52131,11.85971 27.72035,19.85661 6.66203,6.60312 12.40755,14.04606 17.44049,21.9617 5.02718,7.98186 9.81971,16.12768 13.32702,24.91582 2.54515,6.9382 5.19405,13.57682 4.31367,21.14 -0.0654,8.24095 -0.13562,16.52527 -1.34653,24.6929 -1.65591,9.00846 -4.66277,17.43787 -11.07735,24.23469 -16.447,13.34765 -34.8885,26.06325 -55.46409,31.19065 -6.65136,0.3145 -13.31495,0.062 -19.97184,0.1499 -7.67799,0.02 -15.35702,0.1427 -23.03441,0.025 -6.41555,-0.3197 -12.83545,-1.0056 -18.72793,-3.7803 -7.39727,-3.8386 -13.64275,-9.1136 -19.04966,-15.4632 -5.15409,-5.7416 -10.22264,-11.68545 -13.20416,-18.89931 -2.33581,-6.2552 -4.79008,-12.64237 -5.83972,-19.24294 -1.01843,-6.17405 -1.91717,-12.26341 -1.42805,-18.55259 0.004,-6.2794 -0.0459,-12.5581 -0.0672,-18.83737 -0.0137,-5.9146 -0.0492,-11.83088 0.12262,-17.74374 0.27389,-6.73531 0.75265,-13.49354 2.43569,-20.04864 2.25648,-6.72378 4.59988,-13.40794 7.83461,-19.74117 5.19382,-8.94414 11.93984,-16.75511 18.62504,-24.60952 0,0 39.15634,-16.21909 39.15634,-16.21909 z"
       inkscape:connector-curvature="0" />
    <path
       style="fill:#00ffff"
       id="path3273"
       d="m 896.14492,918.98786 c 5.48235,-6.1597 11.55454,-11.7738 17.45306,-17.5314 5.67351,-6.08025 12.40351,-10.93332 19.05159,-15.85938 6.99802,-4.997 13.23785,-10.75002 18.48298,-17.55319 4.63817,-5.57825 7.93708,-11.54627 8.912,-18.7578 0.0119,-8.37768 -5.22308,-14.69516 -10.32954,-20.79666 -5.82122,-7.15668 -13.21856,-12.34875 -21.7274,-15.75376 -7.9114,-3.52616 -16.10821,-5.81484 -24.65016,-7.11163 -6.93556,-0.86972 -13.87897,-1.92482 -19.85931,2.31562 11.28484,-6.42391 22.48986,-12.99009 33.8545,-19.27172 0.77815,-0.43011 -1.42979,1.06763 -2.05806,1.69675 -2.56893,2.57238 -3.51907,5.82747 -4.30058,9.26068 -1.05928,6.83404 -0.9058,13.78318 -0.8749,20.67791 -0.0162,8.10472 0.019,16.20933 0.0524,24.31395 0.0161,7.47691 0.0386,14.95378 0.0743,22.43069 -0.29016,6.00386 0.18968,11.87767 1.1732,17.78784 0.67582,5.73822 1.58113,11.39935 2.73148,17.06006 1.81232,6.97772 3.60285,13.94596 6.486,20.56706 3.42032,8.08228 7.36573,15.89613 11.81834,23.45496 3.8983,7.74514 9.24084,14.51821 14.43364,21.3982 5.35413,7.5719 11.64078,13.90639 19.62459,18.58613 10.43835,4.5136 21.96029,4.96557 33.16018,5.47397 9.65527,0.57419 18.97907,0.70495 28.08167,-2.81548 6.425,-3.00621 1.6477,-0.63886 7.8981,-4.0969 1.2587,-0.69639 5.0496,-2.75739 3.8051,-2.03592 -38.7655,22.47286 -42.47924,24.79716 -28.9973,16.52426 0,0 39.1903,-15.27984 39.1903,-15.27984 l 0,0 c -17.298,11.86543 -35.6608,22.69194 -55.1051,30.62104 -9.45277,2.4252 -19.0614,2.0702 -28.74545,1.4002 -11.75925,-0.8025 -23.84802,-1.5548 -34.53889,-7.012 -8.22406,-5.1669 -14.63249,-12.10059 -20.38641,-19.90716 -5.513,-6.87624 -10.74094,-13.94856 -14.68819,-21.87276 -4.53777,-7.68722 -8.7614,-15.55804 -12.2184,-23.79894 -3.04604,-6.86018 -5.00884,-14.07502 -7.10876,-21.26854 -1.12674,-5.71409 -2.31837,-11.36453 -2.79349,-17.18295 -1.02382,-6.13979 -1.92337,-12.19122 -1.41378,-18.44801 0.0339,-7.49387 0.0542,-14.98762 0.0437,-22.48153 -2.1e-4,-8.09281 -0.0247,-16.18571 -0.11917,-24.27802 -0.003,-7.09386 -0.1878,-14.21343 0.38711,-21.28816 3.12153,-22.48649 20.19742,-24.58874 43.58768,-36.5936 6.97572,-2.11291 14.15352,-1.30115 21.24632,-0.0626 8.7021,1.71236 17.1095,4.35595 25.22816,7.95549 8.7135,4.19774 16.52824,9.89128 22.65942,17.45239 5.77495,6.97271 11.41308,14.12199 12.04655,23.52934 -0.16281,7.92042 -2.82076,14.84788 -7.95823,20.94875 -5.12927,7.12372 -10.81797,13.57508 -18.05344,18.67779 -6.53618,4.97976 -13.5602,9.40755 -19.28166,15.36658 -5.75603,5.62651 -11.53321,11.23137 -17.25844,16.88929 0,0 -39.0157,16.66899 -39.0157,16.66899 z"
       inkscape:connector-curvature="0" />
    <path
       style="fill:#00ffff"
       id="path3275"
       d="m 1111.558,817.93443 c -9.0659,-2.44741 -18.0775,-5.1018 -27.1969,-7.35589 -9.8994,-2.14439 -19.7713,-4.36091 -29.7506,-6.12609 -11.9314,-1.78237 -23.8324,-3.65308 -35.8536,-4.73841 -4.0543,-0.3517 -8.4148,-0.62609 -12.3166,0.87273 -1.2329,0.47359 -4.619,2.56354 -3.4689,1.91427 34.134,-19.27016 42.4443,-26.79165 30.2156,-16.19112 -4.4267,5.44296 -6.2636,12.13885 -8.0101,18.77856 -1.5924,6.09479 -3.0407,12.23519 -4.3885,18.38974 -1.4603,7.34428 -1.7596,14.84576 -1.9411,22.31079 0.072,6.27342 -0.675,12.61961 0.8422,18.7595 3.2572,6.97902 11.0572,8.32309 17.8751,10.0355 9.8557,2.04829 19.9443,2.37068 29.9738,2.59177 8.3368,0.067 16.6747,0.0412 25.0118,0.0129 6.9879,-0.0396 13.9758,-0.079 20.9638,-0.0994 6.7293,-0.61808 12.944,1.49571 19.0868,4.00162 7.2109,3.37386 13.1694,8.69625 18.9687,14.03666 5.628,5.01182 10.2424,10.85925 13.2656,17.75955 2.2953,6.38925 2.4375,13.26372 2.6158,19.97765 0.6546,7.31639 -0.7321,14.01673 -3.8061,20.62522 -3.2184,6.61522 -8.594,11.00327 -14.7438,14.71718 -18.7489,13.02675 -38.1906,22.24018 -58.7953,30.8569 -7.8519,2.68844 -15.4855,6.06574 -23.7259,7.32604 -9.2035,0.6881 -18.3137,2.1393 -27.491,3.1058 -7.0087,0.728 -14.0529,0.9309 -21.0936,1.016 -5.8219,-0.1514 -11.706,0.5239 -17.4507,-0.5389 -6.55454,-2.3219 -13.06391,-4.7566 -19.17226,-8.0962 0,0 35.23286,-23.10088 35.23286,-23.10088 l 0,0 c 5.8648,2.88871 12.0371,5.42922 18.4551,6.75339 5.6894,0.29391 11.3922,0.0966 17.0869,0.0883 6.8917,-0.13209 13.7835,-0.41001 20.6395,-1.16237 9.1251,-1.00878 18.2465,-2.15721 27.3279,-3.47107 7.8817,-2.01262 15.5111,-4.93182 23.0819,-7.88439 16.0387,-6.82901 52.687,-25.55179 -13.4924,10.27001 5.9219,-3.40092 12.1551,-6.43222 15.7319,-12.58807 3.4842,-5.9054 5.3084,-11.73716 4.6269,-18.67602 -0.067,-6.2099 -0.027,-12.56183 -1.8725,-18.55204 -2.5972,-6.4351 -7.0137,-11.69442 -12.1932,-16.27584 -5.5025,-4.96083 -11.1781,-9.90662 -18.1702,-12.64619 -5.9957,-2.0406 -11.9197,-3.23891 -18.2942,-2.70333 -6.9296,-0.007 -13.8592,-0.0216 -20.7889,-0.0191 -8.3282,0.0147 -16.6581,0.0879 -24.9835,-0.19698 -10.2408,-0.36755 -20.5361,-0.98713 -30.5347,-3.39196 -8.42614,-2.39821 -16.53421,-5.01299 -20.45352,-13.58233 -1.95571,-6.5231 -1.4476,-13.16397 -1.30175,-19.91536 0.18021,-7.66938 0.38744,-15.35405 1.55224,-22.95189 1.18702,-6.27127 2.75962,-12.44778 4.2286,-18.65546 2.10111,-6.99112 3.44709,-14.1952 7.33761,-20.54125 12.26412,-17.85886 36.82842,-29.74609 58.51292,-27.2283 12.0028,1.42731 23.9249,3.40715 35.8948,5.07653 10.0837,1.80064 20.0793,3.94382 30.0505,6.28429 9.2245,2.38861 18.3659,5.11187 27.6675,7.18791 0,0 -34.9565,23.94012 -34.9565,23.94012 z"
       inkscape:connector-curvature="0" />
    <path
       style="fill:#008080"
       id="path3297"
       d="M 114.27435,20.221352 C 105.23918,15.11718 95.036724,13.424331 85.07759,11.118187 76.25214,9.0972682 67.250667,8.2354564 58.336591,6.7228224 51.545216,5.5200738 44.667451,5.0550555 37.78421,4.845583 31.945001,4.4247522 26.357,4.7903905 20.865745,6.8719435 4.7604933,12.343438 -24.473438,30.500762 37.833502,-5.1292645 32.160945,-2.1183696 29.676652,2.6607681 27.86244,8.5144134 25.885593,14.125865 25.052309,19.829279 25.447507,25.743556 c 0.562509,7.594014 2.535045,14.9001 5.714505,21.792135 3.691947,7.206924 8.653528,13.54855 14.731309,18.874274 5.509202,4.180191 11.931723,6.16366 18.657672,7.248753 5.933449,1.174764 11.708132,-0.497667 17.567425,-1.316901 5.787182,-0.457092 11.432133,-0.858992 17.107911,-2.051053 5.697921,-1.177871 11.511311,-1.501622 17.310591,-1.69835 5.73233,-0.139551 11.467,-0.117714 17.20056,-0.111461 7.08284,0.880139 12.6152,5.397965 17.88578,9.844708 6.38683,4.400025 12.02688,9.556063 17.25029,15.257205 5.42046,6.522554 10.01333,13.677744 13.09936,21.583214 2.08596,5.95433 2.46124,12.24669 2.64473,18.49415 0.0153,6.51042 -0.0217,13.02083 -0.0396,19.53122 -0.0118,6.96639 -2.37049,13.03083 -6.03968,18.82331 -4.83549,7.13676 -11.10528,12.86062 -18.0293,17.89519 -19.70146,12.09997 -39.35956,24.60188 -60.788011,33.39884 -7.459805,2.62444 -14.998843,4.85677 -22.806253,6.15782 -7.85886,1.81673 -14.608469,-0.58606 -21.667545,-3.88337 -7.993684,-4.14611 -15.844664,-8.55663 -23.133946,-13.85709 -7.22177,-4.92051 -13.932831,-10.50643 -20.420418,-16.34518 -5.9517331,-5.63035 -12.03057198,-11.16633 -17.4550574,-17.31476 -2.4873463,-3.57138 -4.7481146,-7.16245 -7.9681256,-10.11401 0,0 36.0376,-22.12002 36.0376,-22.12002 l 0,0 c 3.058935,3.20147 5.51011,6.78095 7.969458,10.45703 5.316848,6.02217 11.294899,11.42816 17.131632,16.93779 6.402637,5.72321 13.044753,11.16777 20.19327,15.94627 7.124416,5.033 14.704381,9.44311 22.620746,13.1117 6.782473,2.66398 13.14066,3.64574 20.31829,1.77803 7.54083,-1.60055 14.93681,-3.89861 22.09297,-6.76525 4.3297,-1.93527 4.16601,-1.81697 8.48132,-3.9315 1.33948,-0.65636 5.28394,-2.7653 4.00082,-2.00464 -58.387697,34.61302 -36.6176,20.91042 -23.57389,13.87014 6.95964,-4.5599 13.33021,-9.64011 18.33157,-16.38319 3.81595,-5.01637 6.67638,-10.04398 7.05549,-16.49684 0.0446,-6.47007 0.13418,-12.9409 0.0477,-19.41092 -0.0767,-5.80938 -0.18328,-11.68726 -1.87466,-17.29867 -2.65085,-7.49059 -6.92969,-14.24229 -12.14704,-20.22701 -5.18676,-5.49113 -10.94524,-10.25432 -17.03547,-14.72161 -4.86635,-3.865823 -9.88586,-7.525449 -16.400168,-7.351479 -5.694952,0.0066 -11.393128,0.0012 -17.0831,0.27155 -5.696144,0.343801 -11.364909,0.964782 -16.952015,2.165398 C 59.77981,96.733634 53.981128,96.745823 48.269074,97.681624 42.130839,98.589869 36.050156,99.37677 29.920238,97.795791 22.714582,96.106264 15.78626,93.445706 10.084944,88.572139 3.8525641,82.639543 -1.4748766,75.91604 -5.4182812,68.230138 -8.8378486,60.955566 -11.230533,53.264298 -11.984246,45.226692 c -0.675214,-6.38689 -0.519621,-12.512985 1.603958,-18.673305 1.9882917,-6.221701 3.1249478,-12.479578 8.8864839,-16.53364 18.8725011,-10.85573157 35.4420531,-22.613119 55.8466891,-28.950334 5.868879,-1.229402 11.748635,-1.365104 17.728076,-0.91396 6.93324,0.393475 13.834701,1.147234 20.663496,2.438594 8.913943,1.50158 17.937603,2.387837 26.697613,4.721461 10.28646,2.335274 20.46491,4.9382783 30.07032,9.4226386 0,0 -35.23804,23.4832054 -35.23804,23.4832054 z"
       inkscape:connector-curvature="0" />
    <path
       style="fill:#008080"
       id="path3299"
       d="m 157.27466,182.19787 c 7.86939,4.4404 15.91248,8.54088 24.05543,12.45328 6.79091,3.13063 13.54996,6.02514 20.92404,7.40453 7.32249,0.38409 14.52483,1.35305 21.78031,2.38121 6.32235,1.15874 12.33148,-0.87986 18.17501,-3.08341 12.85735,-6.85474 32.63164,-17.78246 -26.2877,15.1955 -1.14829,0.64272 2.18143,-1.47285 3.25478,-2.23415 1.80528,-1.28041 5.267,-3.8718 7.0301,-5.18351 6.86244,-5.11314 13.18638,-10.88319 19.39058,-16.7623 5.30313,-4.6147 9.48949,-10.1407 12.62286,-16.40461 2.41005,-5.56164 4.98923,-11.06349 6.78552,-16.8605 1.63207,-5.97105 1.76075,-12.18428 1.9384,-18.3293 0.11546,-8.049 0.10407,-16.0991 0.0534,-24.14856 -0.18303,-8.12409 -3.13019,-15.73629 -6.40578,-23.055096 -4.17174,-9.081049 -10.72308,-16.139226 -18.66271,-22.028222 -8.13346,-5.29107 -17.03417,-9.094562 -26.07866,-12.502988 -8.06664,-2.317318 -15.69554,-5.835288 -23.47674,-8.936772 -3.55326,-1.166245 -7.79008,-3.201355 -11.68714,-2.215453 -0.67401,0.170514 -2.3586,1.471227 -1.75131,1.132768 35.11063,-19.56799 45.68195,-28.482878 34.26852,-18.97179 -1.03615,4.919119 2.43466,9.820736 4.74759,13.924838 3.77362,5.531663 6.54583,11.615838 10.28381,17.168446 3.97738,5.666599 8.41088,10.766718 14.6613,13.881259 6.01135,2.640383 11.09043,1.787351 16.84571,-0.860312 1.18005,-0.59674 2.34863,-1.216742 3.54016,-1.79022 2.47867,-1.192974 9.77422,-5.044339 7.39251,-3.667946 -58.10853,33.581008 -38.06844,22.385858 -25.79439,14.346181 7.03843,-4.371204 13.78081,-9.149884 20.39734,-14.12785 7.15565,-5.336425 13.95029,-11.097391 21.34072,-16.113617 5.89665,-3.289557 34.90841,-31.463419 51.03816,-19.635275 2.02481,1.484815 3.79983,3.937876 5.35051,5.860805 5.02514,7.137211 8.17249,15.301176 11.65476,23.241917 3.43621,9.033507 6.9982,17.993819 10.24334,27.096607 2.54877,8.37929 4.95825,16.83321 6.51661,25.45849 1.18365,7.18896 1.56499,14.47064 1.66028,21.745 0.0616,6.56519 0.0574,13.13076 0.0558,19.69617 -0.003,5.81004 -0.006,11.62009 -0.008,17.43013 -0.0721,6.4905 -0.0396,12.98161 -0.0249,19.47234 0.0142,5.88514 0.0192,11.7703 0.0221,17.65546 0.001,2.85901 0.001,5.71802 0.002,8.57703 0,0 -37.68632,19.20216 -37.68632,19.20216 l 0,0 c 2.6e-4,-2.85956 4.8e-4,-5.71912 0.002,-8.57867 0.003,-5.89256 0.008,-11.78512 0.0216,-17.67766 0.0144,-6.4835 0.0466,-12.96734 -0.022,-19.45063 0.004,-5.8184 0.01,-11.63681 0.0371,-17.45515 0.0322,-6.55583 0.0948,-13.11187 0.0487,-19.66777 -0.11522,-7.08567 -0.2036,-14.19317 -1.2351,-21.21978 -1.40249,-8.43448 -3.692,-16.68106 -6.11364,-24.87254 -3.17016,-9.01452 -6.53758,-17.92945 -10.07989,-26.80835 -3.41197,-7.535527 -6.27444,-15.435116 -11.22451,-22.144574 -2.09495,-2.402619 -3.77037,-4.50412 -7.09635,-5.079417 -3.56956,-0.617429 -6.32749,0.882924 -6.29442,0.86223 10.58225,-6.621638 21.50458,-12.683571 32.25687,-19.025357 -7.46315,4.927779 -14.53343,10.249653 -21.44476,15.933825 -6.66395,4.885247 -13.09193,10.081982 -20.18708,14.358524 -18.65539,11.673477 -37.14005,24.032495 -57.60198,32.320999 -6.67931,1.80978 -12.84183,1.34411 -19.00537,-2.044079 -6.37972,-3.968154 -11.33125,-9.451414 -15.64525,-15.576966 -3.81273,-5.639105 -6.64528,-11.801573 -10.47568,-17.42756 -3.08363,-5.364171 -6.1999,-10.783049 -6.71302,-17.084563 2.82968,-28.694859 35.09011,-28.163598 52.50955,-21.219504 7.84872,3.0349 15.60906,6.270974 23.62282,8.857847 9.1858,3.830297 18.24533,7.986918 26.49684,13.620485 8.2342,6.54825 15.38186,14.02473 19.82332,23.71333 3.62216,7.810223 6.84827,15.869288 7.36216,24.570775 -0.0158,8.063885 0.0514,16.127455 0.0331,24.191275 -0.0232,6.42676 -0.007,12.9069 -1.34063,19.22664 -1.49184,6.07549 -4.0342,11.72936 -6.55195,17.4369 -2.67182,6.82019 -6.68924,13.05735 -12.15118,17.99432 -6.19157,5.99057 -12.45944,11.92225 -19.25461,17.23347 -17.34057,13.3371 -35.88654,25.63883 -56.31569,33.64436 -6.37192,1.89862 -12.71726,2.93759 -19.33705,1.48532 -7.32737,-1.0908 -14.70439,-1.46514 -22.0151,-2.60828 -7.41745,-1.92247 -14.33048,-5.09851 -21.25186,-8.34851 -8.2548,-4.00028 -16.27701,-8.45243 -24.50319,-12.51044 0,0 35.47891,-23.06274 35.47891,-23.06274 z"
       inkscape:connector-curvature="0" />
    <path
       style="fill:#008080"
       id="path3301"
       d="m 299.77734,-68.429974 c 5.7364,6.236235 12.46615,11.464627 19.24828,16.504825 6.03746,3.995914 12.27502,7.685652 18.2147,11.825156 2.69017,1.800614 5.65347,3.100703 8.50519,4.615014 0,0 -35.32563,23.124783 -35.32563,23.124783 l 0,0 c -2.96876,-1.567993 -5.97234,-3.093775 -8.71684,-5.044345 -6.04703,-4.052768 -12.27023,-7.841967 -18.21166,-12.054147 -6.90257,-5.261625 -13.53722,-10.867819 -19.85108,-16.826481 0,0 36.13704,-22.144805 36.13704,-22.144805 z"
       inkscape:connector-curvature="0" />
    <path
       style="fill:#008080"
       id="path3303"
       d="m 401.74082,36.561386 c 0.33323,7.935265 1.27192,15.847601 2.83906,23.632306 1.75805,6.263545 3.68584,12.48233 6.20736,18.483642 2.55555,5.683768 5.00915,11.401125 7.31639,17.192577 2.19228,5.585999 2.7584,11.579589 4.0484,17.396629 1.46256,6.41593 1.87859,13.00717 2.19199,19.56163 0.21128,6.68815 0.18801,13.38248 0.20538,20.0736 0.0119,5.97537 0.0104,11.95076 0.01,17.92613 -8.5e-4,5.71533 -0.001,11.43066 -0.002,17.14598 -2.5e-4,5.71028 -2.5e-4,11.42055 -2.6e-4,17.13082 0,3.88719 0.071,1.90713 -0.23058,5.93953 0,0 -37.90841,18.7502 -37.90841,18.7502 l 0,0 c 0.61446,-3.56939 0.45292,-1.74107 0.45287,-5.48765 -1.2e-4,-5.71023 -3.5e-4,-11.42046 -4.3e-4,-17.13069 1.3e-4,-5.71721 -4e-5,-11.43442 0.006,-17.15162 0.008,-5.98566 0.0238,-11.9713 0.0523,-17.95689 0.0246,-6.63923 0.05,-13.27921 -0.13174,-19.9168 -0.20835,-6.3174 -0.49517,-12.67281 -1.8864,-18.86153 -1.27508,-5.61656 -1.85675,-11.36462 -3.71066,-16.83494 -2.25371,-5.77399 -4.70658,-11.44953 -7.24073,-17.102314 -2.70246,-6.252613 -4.61652,-12.771337 -6.51954,-19.304389 -1.58676,-8.031021 -2.34366,-16.136954 -3.46668,-24.242795 0,0 37.76735,-19.243426 37.76735,-19.243426 z"
       inkscape:connector-curvature="0" />
    <path
       style="fill:#008080"
       id="path3305"
       d="m 405.72565,24.503013 c 8.78417,4.598913 17.14883,9.967036 25.2599,15.65739 7.46785,5.439167 14.2156,11.75866 21.31887,17.649225 6.64832,5.009396 12.10196,11.257796 17.61916,17.428378 4.74146,5.332221 6.95134,12.050706 14.21771,13.993952 12.9671,-4.789488 35.23294,-17.160438 -28.14236,16.306952 -1.07905,0.56982 1.89435,-1.54723 2.7446,-2.42251 2.11871,-2.18105 2.55999,-3.181705 4.14186,-5.716212 3.48541,-5.562715 5.056,-11.779634 6.48623,-18.088614 1.324,-5.893079 2.9773,-11.697503 4.73753,-17.473127 1.94689,-6.222005 4.7521,-12.119394 7.26354,-18.122345 3.42778,-7.584264 7.70913,-14.768246 13.08467,-21.125741 11.53799,-9.363001 34.45434,-32.835722 46.39175,-20.074662 1.66599,1.7809416 2.60196,3.9667931 3.70595,6.0934599 3.28456,6.9303941 4.40242,14.5440901 5.94928,21.9806571 1.44301,6.578882 2.09804,13.276658 2.44574,19.990587 0.12265,6.484539 1.39753,12.868895 2.14194,19.298413 0.31812,6.583271 1.49617,13.057734 2.43753,19.567632 1.39392,6.063306 2.76088,12.103422 3.5136,18.284842 0.33207,6.69778 1.15857,13.34358 2.46445,19.92162 1.68012,6.56828 2.83314,13.22789 3.46284,19.97367 0.85295,6.9723 2.09701,13.89433 4.08395,20.63434 2.22802,6.24178 3.4056,12.76166 5.08025,19.15505 2.03316,6.90625 4.07236,13.80617 6.13643,20.70334 1.93704,5.7583 0.87061,2.9023 3.204,8.56624 0,0 -36.57325,20.50084 -36.57325,20.50084 l 0,0 c -2.50979,-5.9007 -1.34619,-2.94876 -3.50017,-8.85213 -2.24626,-6.89903 -4.18966,-13.87752 -6.41614,-20.78093 -1.64901,-6.35949 -2.76317,-12.83809 -4.87804,-19.07367 -2.17737,-6.98129 -3.49069,-14.14279 -4.6332,-21.35888 -0.46635,-6.60376 -1.39987,-13.14941 -3.08599,-19.56333 -1.50212,-6.63982 -2.5279,-13.41126 -2.80503,-20.21666 -0.6104,-6.17168 -1.81997,-12.22098 -3.38777,-18.2218 -0.8624,-6.561 -2.32212,-13.036325 -2.51737,-19.667377 -0.65188,-6.526501 -1.99407,-12.980365 -2.30281,-19.521481 -0.22345,-6.524184 -0.67065,-13.050922 -1.99656,-19.458721 -1.45042,-7.034547 -2.43011,-14.28081 -5.41899,-20.870045 -0.55311,-0.974544 -1.62723,-3.279549 -2.75715,-4.093359 -1.63964,-1.180937 -3.31253,-0.07262 -2.96507,-0.280998 32.34091,-19.3958127 46.70514,-24.47550138 31.13225,-18.7544472 -6.20949,5.2148422 -9.95154,12.5671022 -13.70115,19.6444552 -2.57115,5.861758 -5.06997,11.770455 -7.29778,17.767741 -2.07544,5.57579 -3.4692,11.40392 -4.88975,17.173007 -1.78404,6.465382 -2.46754,13.27249 -6.13587,19.107817 -8.99295,18.794392 -22.65397,20.220218 -45.18134,32.626568 -1.04238,0.57407 -2.33618,0.5733 -3.52609,0.55821 -1.2166,-0.0154 -2.39468,-0.43231 -3.59202,-0.64847 -6.75036,-3.55238 -10.603,-9.72454 -15.14427,-15.665453 C 428.52563,91.023135 423.20824,84.943615 416.72452,80.067925 409.72351,74.2471 403.07524,67.9976 395.69053,62.652468 387.71249,57.109454 379.48668,51.729042 370.48761,47.986219 c 0,0 35.23804,-23.483206 35.23804,-23.483206 z"
       inkscape:connector-curvature="0" />
    <path
       style="fill:#008080"
       id="path3307"
       d="m 617.49631,149.59426 c -4.15529,-7.93807 -8.35032,-15.84157 -12.79774,-23.62194 -5.13171,-7.42988 -6.64081,-11.10404 -15.5122,-7.08369 -15.65495,9.05664 13.71933,-7.94632 29.70086,-16.88191 1.17253,-0.65559 -2.27024,1.43916 -3.36544,2.21708 -3.37784,2.39925 -6.44123,5.17172 -9.51093,7.94195 -5.03169,4.42672 -8.1175,10.2323 -10.52145,16.37957 -1.86856,5.3435 -2.16489,11.00557 -2.35646,16.60946 -0.30059,5.61692 -0.15413,11.1225 1.3076,16.56802 1.85483,6.6944 3.46756,13.39668 5.68181,19.9918 2.79899,7.4782 5.88978,14.81067 11.88708,20.25167 0.81099,0.3448 1.56781,0.86684 2.43298,1.0344 2.97497,0.57618 10.98381,-4.67665 7.29007,-2.61572 -33.84278,18.88261 -43.08317,27.08804 -30.67129,16.46877 5.04309,-5.55295 9.48392,-11.62494 13.53956,-17.92651 3.10556,-5.28375 5.51173,-10.86008 6.8933,-16.82708 1.47336,-5.5976 2.73337,-11.20818 3.39701,-16.96127 0.5325,-5.63429 0.55078,-11.29935 0.57848,-16.95352 0.009,-5.71127 -0.008,-11.42255 -0.0165,-17.13381 -0.50782,-17.00988 -3.36137,-4.10239 37.8328,-21.58159 0.66807,-0.28347 -0.0711,1.44978 -0.0926,2.17518 -0.0226,0.76397 -0.10394,5.7256 -0.11164,6.17978 -0.0913,7.69019 -0.0539,15.3806 -0.0148,23.07097 0.035,6.17416 0.0499,12.34841 0.0578,18.52265 -0.31303,5.6824 0.24667,11.12538 2.4489,16.38386 2.752,6.16387 8.23987,8.03129 14.41574,9.24697 0.97483,-0.0518 1.94965,-0.10365 2.92448,-0.15548 0,0 -34.30938,24.63653 -34.30938,24.63653 l 0,0 c -1.12184,-0.16869 -2.24369,-0.33738 -3.36554,-0.50606 -7.14242,-2.12136 -13.18572,-5.47838 -16.48826,-12.51293 -2.56465,-5.70406 -3.73203,-11.61942 -3.30374,-17.89507 0.008,-6.19378 0.0227,-12.38755 0.0574,-18.58125 0.0385,-7.68543 0.0758,-15.37091 -0.0153,-23.05617 -0.035,-2.05005 -0.39593,-8.04075 -0.1998,-8.15743 43.07832,-25.62648 38.22884,-34.207543 37.84738,-16.97709 0.007,5.71702 0.0217,11.43403 0.0254,17.15105 -0.009,5.77495 -0.002,11.55649 -0.39647,17.321 -0.50771,5.87664 -1.39092,11.70662 -3.22667,17.33446 -1.10423,6.46296 -3.29083,12.42688 -6.38433,18.21505 -3.82569,6.65737 -8.52313,12.69947 -13.19304,18.78013 -11.65999,14.61022 -2.78043,4.21245 -41.42676,25.88094 -4.12192,2.31111 -9.15118,0.0271 -12.4381,-2.49264 -6.01342,-6.24073 -9.7778,-13.9422 -12.83929,-21.99931 -2.24862,-6.63525 -4.13681,-13.29419 -5.92225,-20.0601 -1.80634,-5.79818 -2.31598,-11.6561 -1.93818,-17.71853 0.11397,-5.96914 0.28193,-11.99259 1.81983,-17.79965 2.07116,-6.67881 5.07659,-13.19816 9.89459,-18.35245 15.8944,-15.10513 34.42305,-27.99457 55.55569,-34.917836 10.0434,-1.258773 13.20893,4.07249 18.2944,11.848736 4.4688,7.65807 8.537,15.54187 13.09408,23.13655 0,0 -36.55899,21.42246 -36.55899,21.42246 z"
       inkscape:connector-curvature="0" />
    <path
       style="fill:#008080"
       id="path3309"
       d="m 658.88368,-57.724329 c -0.28673,9.526241 -0.23391,19.059642 -0.25942,28.589386 -0.0944,9.120725 0.93267,18.241313 2.35676,27.2403936 1.44636,6.9189679 2.55749,13.8844384 3.15774,20.9266944 0.002,6.589074 1.84818,12.86274 3.52428,19.161632 2.12815,6.47866 4.06571,13.023827 5.8478,19.607725 1.39517,6.896087 3.72375,13.54287 5.46233,20.347098 2.29627,8.595547 5.22525,17.002198 7.57148,25.57995 2.38912,7.7169 4.32008,15.56828 7.19688,23.1248 3.12279,5.70183 5.52583,11.60995 6.88791,17.96387 1.4599,6.12239 3.0562,12.21156 4.49627,18.33852 0.95891,7.06894 2.53196,14.02529 3.75166,21.04949 -2.34483,-3.70224 1.21339,3.41387 0.75286,2.62769 -8.95881,-15.29397 4.61485,-4.4712 -37.43184,18.34513 -0.68577,0.37213 0.1962,-1.54883 0.25256,-2.32703 0.0898,-1.24032 0.12386,-2.48406 0.18579,-3.72609 -0.32266,-12.46374 -2.38292,-24.79982 -3.62515,-37.19374 -1.17567,-11.79316 -1.6097,-23.63417 -1.92597,-35.4752 0.40684,-11.09555 5.60553,-20.93546 10.5106,-30.619796 3.61067,-7.00273 7.24536,-13.956728 12.09671,-20.187515 15.09103,-14.245964 33.92199,-26.746137 54.67906,-29.627039 7.25658,-1.167685 13.10013,2.712106 18.61564,6.888976 5.26887,4.621707 8.74863,10.630672 11.01883,17.182422 2.64114,7.290752 3.64408,14.885707 4.18392,22.572406 0.36782,9.447876 0.78562,18.918526 0.28237,28.366266 -0.99616,7.80008 -1.41639,15.66812 -2.40223,23.46567 -1.15515,5.94139 -2.09024,11.90322 -2.57447,17.93696 -0.37346,6.08877 -0.41811,12.19238 -0.43278,18.29073 0.0955,6.53243 -0.16303,13.07346 0.23232,19.59576 1.54389,7.00106 3.06138,14.02808 4.7688,20.99396 0.82302,1.97179 1.46541,5.9094 4.23118,6.33379 1.70519,0.26165 6.40305,-2.51452 4.89839,-1.67064 -11.14398,6.25004 -22.35291,12.38355 -33.52937,18.57533 1.0694,-0.79217 2.13879,-1.58434 3.20819,-2.3765 0,0 38.90443,-15.97128 38.90443,-15.97128 l 0,0 c -0.91524,1.07115 -1.83048,2.1423 -2.74572,3.21346 -14.81146,8.27313 -38.75237,31.51187 -49.1628,18.23754 -1.40348,-1.78957 -2.13436,-4.17851 -2.92806,-6.25162 -1.86348,-7.14996 -2.96235,-14.50153 -4.99392,-21.62179 -0.79524,-6.60866 -0.42921,-13.25538 -0.48924,-19.90317 0.002,-6.17133 -0.0925,-12.34684 0.22275,-18.51295 0.38034,-6.16352 1.09931,-12.29312 2.51362,-18.31533 1.48361,-7.65438 1.37188,-15.55496 2.73432,-23.24451 0.91367,-9.23352 0.25158,-18.5596 -0.0109,-27.81792 -0.51909,-7.31156 -1.32652,-14.607 -3.93986,-21.519296 -1.79689,-5.793368 -4.81403,-11.071807 -9.57741,-14.95453 -5.25924,-3.582232 -10.29456,-5.723899 -16.73911,-4.042616 -2.54108,0.599988 -3.52607,0.737398 -5.98093,1.707497 -1.0259,0.405408 -3.95809,1.9384 -3.01136,1.372254 59.02933,-35.299595 38.80072,-23.683521 26.88403,-15.286413 -5.56354,5.550863 -8.98162,12.528659 -12.75951,19.339402 -4.77869,9.168767 -10.34517,18.256322 -11.39551,28.766372 0.0503,11.80317 0.34001,23.61285 1.36346,35.37712 1.21046,12.47584 3.30836,24.82083 4.43846,37.30154 0.028,1.23177 0.0518,2.46365 0.0841,3.69531 0.0219,0.83293 0.74753,2.00179 0.0785,2.49843 -10.18327,7.55927 -35.55409,39.04715 -38.78429,17.73532 -1.07127,-6.96966 -2.72558,-13.82757 -3.59797,-20.82798 -1.38534,-6.17706 -3.15574,-12.25525 -4.64683,-18.40722 -1.10326,-6.18894 -3.37968,-11.8896 -6.44189,-17.38513 -2.96324,-7.70451 -4.72468,-15.75834 -7.15071,-23.6375 -2.29589,-8.60501 -5.45694,-16.93633 -7.80336,-25.530038 -1.70556,-6.797927 -4.21846,-13.377898 -5.50922,-20.281187 -1.6769,-6.612236 -3.71479,-13.135156 -5.87167,-19.603603 -1.66071,-6.526455 -3.8707,-13.00675 -3.91945,-19.814405 -0.43961,-6.952109 -1.33625,-13.852167 -2.79319,-20.66994 -1.66522,-9.1945876 -2.36861,-18.64808882 -2.46777,-27.978459 -0.0254,-9.441595 0.0297,-18.887052 -0.25942,-28.325031 0,0 37.76736,-19.243426 37.76736,-19.243426 z"
       inkscape:connector-curvature="0" />
    <path
       style="fill:#008080"
       id="path3311"
       d="m 833.16939,85.132814 c -0.26202,7.995551 -0.1607,15.998126 -0.11563,23.996466 0.0702,6.72459 0.0199,13.44914 0.0276,20.17384 0.0426,6.6371 -0.008,13.27396 -0.002,19.91106 0.10714,6.27984 -0.18095,12.57142 0.2515,18.83982 0.89271,9.0018 3.96482,17.56729 6.45881,26.20658 3.23397,10.35114 5.911,20.85591 8.96413,31.25891 0.41074,1.49701 0.79602,3.00123 1.2322,4.49101 0.38844,1.3267 0.75547,2.66284 1.24125,3.95706 0.31434,0.83748 0.64374,1.68795 1.15349,2.42302 0.13964,0.20136 0.91196,0.12897 0.69431,0.24155 -38.12414,19.72078 -43.94194,30.38604 -35.93952,16.74145 0,0 38.12681,-18.41837 38.12681,-18.41837 l 0,0 c -0.27811,17.68699 0.88968,5.19211 -38.53465,23.87057 -0.63745,0.30201 -0.8987,-1.10176 -1.21649,-1.73149 -0.82141,-1.6277 -1.99326,-5.59854 -2.40375,-7.09134 -0.40574,-1.4755 -0.7354,-2.97087 -1.1031,-4.4563 -2.8813,-10.44559 -5.69351,-20.91004 -8.94158,-31.24962 -2.56588,-8.83519 -5.83246,-17.55223 -7.13918,-26.69216 -0.86292,-6.37419 -0.30745,-12.81802 -0.43202,-19.23875 0.006,-6.63652 -0.0443,-13.2728 -0.002,-19.90933 0.008,-6.73406 -0.0426,-13.46796 0.0276,-20.20191 0.0446,-7.95902 0.14855,-15.9225 -0.11562,-23.87864 0,0 37.76735,-19.243426 37.76735,-19.243426 z"
       inkscape:connector-curvature="0" />
    <path
       style="fill:#008080"
       id="path3313"
       d="m 827.65633,-43.704478 c 1.6567,8.066643 3.13994,16.165098 4.67204,24.256841 1.40358,7.610281 3.7598,14.9845063 7.30435,21.8591029 0,0 -36.52157,20.8655141 -36.52157,20.8655141 l 0,0 C 799.35446,16.066082 796.6704,8.3967286 795.24809,0.37246229 793.56116,-7.7269804 792.67848,-16.004883 790.17005,-23.929325 c 0,0 37.48628,-19.775153 37.48628,-19.775153 z"
       inkscape:connector-curvature="0" />
    <path
       sodipodi:type="spiral"
       style="fill:#ff00ff;stroke:#000000;stroke-width:1px;stroke-linecap:butt;stroke-linejoin:miter;stroke-opacity:1"
       id="path3315"
       sodipodi:cx="551.42859"
       sodipodi:cy="629.50507"
       sodipodi:expansion="1"
       sodipodi:revolution="3"
       sodipodi:radius="94.97583"
       sodipodi:argument="-19.123724"
       sodipodi:t0="0"
       d="m 551.42859,629.50507 c 4.58408,-1.28928 3.99954,5.54316 2.14286,7.61904 -5.03149,5.6255 -13.84171,2.04127 -17.38095,-3.33332 -6.33088,-9.61388 -0.65819,-22.17443 8.8095,-27.14286 13.89422,-7.29138 30.64276,0.70342 36.90477,14.28569 8.34628,18.10303 -2.05212,39.16219 -19.76187,46.66668 -22.28592,9.44363 -47.7067,-3.3934 -56.42859,-25.23806 -10.56338,-26.45682 4.73022,-56.26547 30.71425,-66.1905 30.62127,-11.6963 64.83316,6.06423 75.9524,36.19043 12.8376,34.78189 -7.39637,73.40681 -41.66661,85.71431 -38.94004,13.98457 -81.98463,-8.7272 -95.47622,-47.1428 -15.13553,-43.09649 10.05708,-90.56548 52.61898,-105.23812 47.25177,-16.28942 99.14863,11.38627 115.00004,58.09516" />
  </g>
</svg>
