<svg id="Capa_1" enable-background="new 0 0 512 512" height="512" viewBox="0 0 512 512" width="512" xmlns="http://www.w3.org/2000/svg"><g><path d="m472.326 172.655c-9.308 0-17.87 3.23-24.644 8.617v-30.216c0-26.243-21.35-47.593-47.593-47.593h-222.665c-4.15 0-7.515 3.364-7.515 7.515s3.365 7.515 7.515 7.515h222.665c17.956 0 32.564 14.608 32.564 32.564v134.635h-70.311c-4.15 0-7.515 3.364-7.515 7.515s3.364 7.515 7.515 7.515h77.826c4.15 0 7.515-3.364 7.515-7.515v-80.878c0-13.589 11.055-24.644 24.644-24.644s24.644 11.055 24.644 24.644v126.5c0 12.431-10.113 22.544-22.544 22.544h-251.915c-4.15 0-7.515 3.364-7.515 7.515s3.364 7.515 7.515 7.515h174.825v14.602c0 9.668 7.866 17.534 17.534 17.534h38.664c9.668 0 17.534-7.866 17.534-17.534v-14.602h3.357c20.718 0 37.573-16.855 37.573-37.573v-126.5c.001-21.878-17.797-39.675-39.673-39.675zm-16.285 218.348c0 1.382-1.124 2.505-2.505 2.505h-38.664c-1.381 0-2.505-1.123-2.505-2.505v-14.602h43.674z"/><path d="m192.453 361.372h-154.88c-12.431 0-22.544-10.113-22.544-22.544v-126.5c0-13.589 11.055-24.644 24.644-24.644s24.644 11.055 24.644 24.644c0 .003.001.006.001.01v80.868c0 4.151 3.365 7.515 7.515 7.515h260.45c4.15 0 7.515-3.364 7.515-7.515s-3.364-7.515-7.515-7.515h-252.936v-134.635c0-17.956 14.608-32.564 32.564-32.564h35.454c4.15 0 7.515-3.364 7.515-7.515s-3.364-7.515-7.515-7.515h-35.454c-26.243 0-47.593 21.35-47.593 47.593v30.216c-6.774-5.387-15.337-8.617-24.644-8.617-21.876.001-39.674 17.798-39.674 39.674v126.5c0 20.718 16.855 37.573 37.573 37.573h3.357v14.602c0 9.668 7.866 17.534 17.534 17.534h38.664c9.668 0 17.534-7.866 17.534-17.534v-14.602h77.79c4.15 0 7.515-3.364 7.515-7.515s-3.364-7.514-7.514-7.514zm-92.819 29.631c0 1.382-1.124 2.505-2.505 2.505h-38.665c-1.381 0-2.505-1.123-2.505-2.505v-14.602h43.674v14.602z"/></g></svg>